<svg xmlns="http://www.w3.org/2000/svg" viewBox="0 0 850 1250"><g fill="#fff" fill-rule="evenodd" stroke="#fff" stroke-miterlimit="3.2" stroke-width=".8"><path d="m443.49 177.41-77.92 6.11-9.17 15.28-9.17 9.17-27.5 16.81L301.4 237l-18.33 3.06-22.92 21.39-47.36 56.53-30.56 38.2-41.25 51.95-1.53 15.28 7.64 35.14 13.75 12.22 41.25 35.14 44.31 42.78 24.44 19.86 4.58-7.64s9.02 9.56 13.75 11.46c5.75 2.3 13.75-2.29 13.75-2.29l13.75-3.06 235.29 18.33 12.22-16.81 19.86-4.58 12.22-21.39 3.06 3.05 10.7-35.14 27.5-58.06 7.64-30.56-4.58-38.2-6.12-6.11-67.23-103.9-25.98-33.61-21.39-19.86-35.14-12.22-19.86-3.06-21.39-27.5Zm85.56 175.71 24.44 16.81 16.81 47.36 6.11 10.7v9.17l3.05 16.81v9.17l-6.11 7.64-6.11 29.03-4.58 10.7-6.11 19.86-27.5-4.58 1.53-7.64-1.53-10.7 4.58-16.81v-32.09l-6.11-21.39v-15.28l4.58-21.39-3.06-19.86v-27.5Zm-247.52 38.2 12.23 51.95 4.58 12.22 16.81 47.37 13.75 10.7-24.44 19.86-29.03-30.56-18.33-13.75-3.06-7.64-13.75-9.16v-10.7l-12.23-12.23-9.16-12.22 9.16-6.11 9.17-9.17 27.5-15.28 16.81-15.28Z"/><path d="m368.63 184.29-6.11-16.04-12.22 3.06-4.58-10.7 3.82 3.82 8.4.76-7.64-15.28-12.22-16.81v-10.7l-10.7-30.56 10.7-25.97L361 38.37l9.17-7.64 24.45-4.58 16.81 4.58 22.92 10.7 18.33 30.56 6.11 19.86 6.11-1.53-4.58 9.17v24.45l-12.22 13.75 1.53 15.28-13.75 35.14-67.23-3.82Zm-45.84 379.68-9.17 19.86-4.58 22.92v29.03l3.06 19.86 7.64 61.12 4.58 47.36 4.58 39.73 7.64 44.31-1.53 21.39-3.06 27.5 12.22 123.76 18.33 105.42 3.06 16.81 15.28 4.58 1.53 15.28 3.06 3.06s-10.7-3.06 0 13.75 24.45 25.97 24.45 25.97l27.5 3.06h24.45l6.11-9.17 3.06-16.81-24.45-33.61 1.53-12.22h-6.11l-1.53-47.36-18.33-85.56-15.28-82.51 6.11-9.17-3.06-19.86 19.86-122.23 16.81-61.12 21.39 50.42 24.45 58.06 12.22 45.84 3.06 13.75 7.64 4.58-6.11 12.22 7.64 50.42v45.84l-7.64 65.7 7.64 16.81-12.22 55-6.11 13.75v24.45l1.53 6.11v13.75l41.25 7.64 16.81-3.06 62.64 12.22 38.2-7.64 13.75-6.11-10.7-12.22-47.36-13.75-15.28-22.92 4.58-6.11-6.11-67.23-1.53-88.62-1.53-50.42 4.58-13.75-4.58-22.92 6.11-51.95v-18.33l-6.11-13.75-16.81-76.39-21.39-87.09v-9.17l-7.64-6.11 9.17-48.89-235.3-15.28Z"/></g></svg>