<svg xmlns="http://www.w3.org/2000/svg" viewBox="0 0 850 1250"><path fill="#fff" d="M514.66 410.35c.19 0 .47.29.92.9 2.65 3.56 6.98 7.85 12.51 12.48 3.66 3.01 3.88 3.28 3.9 4.96 0 .97.34 2.83.75 4.15 1.05 3.57-.26 5.27-4.54 5.84-3.05.38-4.32 1.55-5.56 5.19-1.29 3.64-1.33 4.52-.18 8.49 1.05 3.57 2.04 4.62 5.5 5.69 4.88 1.54 4.93 1.98 1.14 12.37-.56 1.47-1.11 4.26-1.26 6.2-.35 4.74-1.26 10.58-2.08 13.29-.73 2.4-.58 3.72.82 6.85 1.81 3.96 2.14 6.39 1.87 14l-.24 7.17-2.48 3.78c-4.44 6.77-5 8.94-3.14 12.9 2.17 4.67 2.36 5.64 1.32 7.82-.95 2.04-3.57 5.25-4.28 5.26-.27 0-.72-.84-.99-1.89-.55-1.72-4.71-11.36-5.39-12.46-.18-.26-.67-.97-1.08-1.58-.45-.57-.9-1.89-1.05-2.95-.14-1.06-.55-2.34-.91-2.82-1.08-1.49-.84-4.33.55-7.21 1.99-4 3.72-8.48 4.79-12.17.51-1.82 1.72-5.24 2.67-7.55 2.89-6.97 3.75-10.03 4.27-15.17.44-4.29.39-5.18-.3-7.78-.46-1.63-1.37-4.14-2.09-5.6-1.9-3.78-2.62-5.59-4.44-10.57-1.41-3.92-1.64-5.16-2.01-11.04-.26-3.67-.69-7.33-.97-8.17-.55-1.72-.76-9.9-.24-10.7.17-.31.32-3.14.29-6.33 0-5.09.69-10.31 1.68-13.06.08-.2.17-.3.28-.3Zm-89.92 333.91c.44 0 1.14 1.38 1.86 3.76.46 1.37 1.19 3.7 1.64 5.16.46 1.45 1.1 3.84 1.38 5.29.28 1.46 1.43 6.22 2.58 10.63 1.11 4.37 2.31 9.88 2.69 12.22.38 2.34.8 4.41.93 4.63.13.22.47 2.25.8 4.5.29 2.3.71 4.64.94 5.21.23.57.65 2.96.89 5.3.29 2.3.9 5.48 1.4 7.06 1.14 3.53 1.15 4.76.12 7.69-1.55 4.39-1.51 8.51.27 17.47.42 2.3.96 3.57 1.77 4.4 1.34 1.45 2.6 3.73 2.61 4.79 0 .44-.43 1.69-.94 2.8-1.99 4.22-1.41 8.82 1.92 15.15 1.67 3.17 1.76 3.48 1.66 6.88-.06 2.61-.44 4.56-1.43 7.49-1.89 5.41-2.43 9.09-2.94 19.84-.4 8.19-.34 9.87.32 14.24.47 2.69.82 6.63.84 8.75.05 4.56 1.23 7.82 3.19 8.81.71.35 1.56.96 1.96 1.35.67.66.58.88-1.16 3.02-1.05 1.25-2.45 3.08-3.05 4.06-1.7 2.72-3.32 8.17-3.29 11.22.01 1.46-.27 4.25-.65 6.15-1.47 7.8-1.99 12.67-2.06 19.39-.13 17.56-1.38 29.82-3.13 31.61-.22.22-.41.35-.71.35-.47 0-1.2-.32-2.7-1.07-1.86-.91-3.1-1.34-3.94-1.34-.48 0-.84.14-1.11.42-.15.15-.29.22-.43.22-.19 0-.38-.14-.59-.39-.4-.48-.37-1.63.08-5.18.37-2.52.81-7.22 1.05-10.36.23-3.19.71-8.5 1.07-11.86.69-6.55.41-20.79-.66-34.14-.3-3.67-.72-10.17-.94-14.45-.33-6.23-.57-7.96-1.15-8.61-.72-.79-1.68-3.83-2.92-9.21-.32-1.5-.58-4.86-.61-7.51.04-5.04-.84-9.06-2.97-13.72-1.13-2.51-1.25-5.47-.3-8.09.39-1.11.9-3.28 1.14-4.88.25-1.59.84-4.43 1.31-6.34 1.53-6.38 1.41-17.57-.64-54.7-1.36-24.93-1.71-33.37-1.72-43.11l-.06-10.61 1.43-3.11c.82-1.73 1.99-4.71 2.59-6.66.64-1.95 1.24-3.86 1.37-4.22.07-.22.18-.33.3-.33Zm-20.6-693.15c-6.13 0-9.16.72-12.61 2.41-6.38 3.07-9.46 4.74-10.91 5.86-1.45 1.08-7.04 3.3-8.5 3.31-.4 0-2.51.91-4.62 1.99-2.16 1.08-4.58 2.17-5.37 2.49-1.76.59-6.68 4.09-7.6 5.34-.35.49-1.79 2.27-3.28 3.97-2.45 2.86-2.79 3.57-4.42 8.71-1.63 5.15-1.8 6.03-1.75 10.19.03 2.96-.21 5.44-.64 6.99-.85 2.93-.91 6.64-.17 9.11.32.97 1.4 3.04 2.39 4.53 2.11 3.07 2.61 4.75 2.7 8.86.02 1.64.35 3.8.71 4.81.96 2.64.91 2.95-1.02 4.17-4.09 2.65-4.54 6.24-1.68 12.98 1 2.38 1.81 4.49 1.82 4.71 0 .8 2.94 6.69 4.29 8.67.81 1.1 1.84 3.12 2.43 4.44 1.21 2.93 3.64 4.71 6.48 4.71h.13c1 0 1.98.25 2.24.51.99 1.23 2.33 11.43 2.78 21.38l.39 8-2.5 1.93c-3.73 2.87-6.29 7.32-6.96 11.97-.41 2.83-3.1 8.43-4.29 8.89-.53.23-2.16.86-3.61 1.41-1.45.55-5.15 2.09-8.24 3.44-3.08 1.36-5.86 2.45-6.17 2.45-.31 0-3.26 1.27-6.52 2.76-3.26 1.54-7.62 3.48-9.69 4.34-2.03.86-5.42 2.44-7.48 3.53-3.92 2.03-12.28 6.1-12.63 6.1-.09 0-3.26 1.54-7 3.39s-6.95 3.39-7.04 3.39c-.13 0-1.06.59-2.07 1.26-1.01.72-2.94 2.02-4.31 2.87-2.55 1.71-6.53 6.08-8.27 9.06-2.35 4.14-5.95 15.19-9.44 28.84-.43 1.69-.98 3.81-1.24 4.66-.51 1.82-3.97 18.92-5.1 25.26-.42 2.3-1.05 5.27-1.44 6.6-.38 1.33-.68 3.15-.67 4.03 0 .84-.28 2.66-.62 3.99-.34 1.33-1.27 6.03-2.11 10.41-.8 4.39-1.85 9.75-2.31 11.96-.46 2.17-1.14 5.67-1.51 7.76-.33 2.08-.93 4.65-1.22 5.76-.34 1.11-.76 3.1-.97 4.43-1.33 7.97-1.84 10.81-2.6 14.18-.47 2.08-.93 4.56-1.05 5.54-.12.97-.5 3.15-.84 4.87-3.66 18.92-3.7 19.32-3.67 30.33.01 10.04-.39 13.94-1.52 15.41-.26.36-1.4 1.08-2.59 1.71-2.29 1.17-2.99 2.15-2.97 4.1.02 1.68 1.41 3.39 3.63 4.52 2.36 1.17 3.03 2.58 2.08 4.49-.39.76-1.13 1.96-1.65 2.58-.52.67-1.69 3.56-2.63 6.44-2.19 6.74-2.46 10.68-2.2 31.56.2 15.26.2 15.65-.71 16.81-.48.62-1.31 1.91-1.83 2.89-1.08 2.05-1.03 2.75 1.01 12.2.79 3.75 1.64 9.01 1.89 11.7.25 2.65.63 5.39.9 6.01.27.62.69 2.91.98 5.08.29 2.21.85 5.08 1.3 6.4 1.1 3.44 1.12 10.12.09 13.18-.69 2.09-.76 3.24-.43 9.73.17 4.02.18 9.02.02 11.1-.43 5.13.16 11.01 1.57 14.89 1 2.73 1.14 3.48.76 5.3-.59 3.23-1 23.49-.62 30.04q.37 5.75 2.17 8.6c2.88 4.44 4.01 6.86 5.6 11.71 2.15 6.75 5.74 12.02 10.1 14.89 1.47 1 4.84 2.3 9.99 3.92 4.26 1.28 9.54 3.09 11.72 3.91 2.33.89 3.99 1.37 5.25 1.37 1.9 0 2.87-1.09 3.89-3.5.65-1.51 1.22-2.05 2.76-2.77 3.13-1.36 3.72-3.49 1.75-6.3-.63-.88-1.12-1.85-1.13-2.07 0-.7-4.24-2.64-5.76-2.64h-.09c-1.86 0-3.03-.74-3.04-1.87 0-.53-.19-1.24-.41-1.59-.67-1.01-.06-1.77 1.83-2.32 2.29-.64 3.74-1.63 4.48-3.05 1.26-2.53.51-15.4-1.18-20.16-.64-1.76-.83-3.75-.9-9.94-.07-7.34-.12-7.87-1.26-10.6-.68-1.59-1.54-3.79-1.95-4.89-1-2.69-4.01-7.61-6.2-10.02-1.83-2.06-1.97-2.63-1.24-4.1.61-1.2 2.38-18.07 2.38-22.49-.03-2.92.18-3.76 1.52-6.65 1.3-2.76 1.64-4.13 1.91-7.76.24-2.43.61-5.45.86-6.64.25-1.24.57-4.74.67-7.79l.21-5.57 2.71-2.99c3.28-3.57 4.31-6.41 3.79-10.34-.53-4.11-.41-9.59.32-12.52.38-1.51 1.75-6.21 3.03-10.42 1.33-4.44 2.47-9.22 2.72-11.35.24-2.04.74-5.76 1.11-8.28.62-3.9.61-4.78.11-6.41-.36-1.1-.76-4.72-.89-8.88l-.25-7.03 2.06-1.83c4.12-3.67 5.56-5.41 6.9-8.25 2.29-5.07 1.64-8.51-2.99-15.71-2.38-3.65-2.57-4.97-1.42-9.27 1.28-4.7 1.5-5.1 3.78-6.89 1.1-.85 3.07-2.46 4.43-3.54 1.33-1.1 2.02-1.54 2.42-1.54.15 0 .27.07.35.19.22.35.41.84.41 1.15 0 .27.5 1.54 1.13 2.86.63 1.28 1.14 2.95 1.14 3.7.02 1.55 1.33 4.67 5.26 12.64l1.67 3.43-.71 4.52c-.42 2.48-.91 6.02-1.11 7.84-.78 6.38-2.11 14.84-2.66 17.05-.77 3.06-1.07 11.82-.51 15 .24 1.41.83 3.35 1.37 4.28 1.31 2.46 6.99 8.82 8.63 9.64 2.18 1.13 2.85 2.14 3.19 4.83q.33 2.47-1.68 4.88c-1.09 1.34-2.09 2.9-2.22 3.52-.13.62-.55 2.22-.98 3.59-.81 2.66-.65 5.31.58 8.75.59 1.67.72 9.94.14 13.97-.25 1.99-.42 2.22-1.48 2.36-1.94.24-2.86 1.89-3.17 5.69-.16 1.81-.45 3.98-.66 4.74-.26.8-.77 3.02-1.23 4.97-.42 1.95-1.36 5.23-2.09 7.32-2.28 6.35-3.91 11.72-3.89 12.87 0 .62-.37 2.39-.84 3.99-5.22 17.43-5.64 19.56-5.55 28.8.08 8.09.92 12.42 3.92 20.53l1.46 3.97-.02 11.06c.02 6.55.21 12.25.49 13.93.33 1.59.78 7.42 1.06 13.04.59 10.25.69 10.87 3.5 22.08.41 1.46.88 3.62 1.11 4.85.23 1.19 1.11 4.5 1.89 7.28 1.37 4.63 2.02 7.28 4.66 18.97.46 2.07 1.06 4.32 1.33 4.98.27.66.69 3.04.98 5.3.72 6.01 1.76 12.01 3.57 20.4.93 4.1 1.96 9.67 2.34 12.36.71 4.81 1.37 8.35 2.71 14.79 1.9 8.96 2.61 12.89 2.62 14.26 0 .84.43 2.78.88 4.33.5 1.54 1.25 5.21 1.67 8.12 2.24 15.9 6.08 32.27 10.68 45.8 2.01 5.91 2.1 6.3 1.96 10.37-.17 4.65.9 19.14 1.65 23.03.23 1.32.49 4.24.51 6.5.02 2.39.56 6.81 1.21 10.51.7 3.84 1.19 8.13 1.21 10.74.02 2.39.47 6.72.98 9.63.52 2.91 1.28 8.57 1.68 12.59.39 4.02.92 8.08 1.2 9.05.23.97.66 4.5.92 7.86.5 5.83 1.26 10.87 3.6 23.93.61 3.4 1.27 7.55 1.46 9.27.19 1.68.61 3.89.93 4.81.36.93.88 3.53 1.12 5.74.29 2.21.8 5.12 1.17 6.49.37 1.37.7 3.27.71 4.19 0 .97.43 2.91.88 4.37.46 1.45 1.01 4.01 1.21 5.74.19 1.68.84 4.77 1.48 6.84 1.1 3.66 1.68 8.43 3.04 24.96.25 3.14.78 6.71 1.19 7.95.37 1.19.69 2.6.69 3.09 0 .49 1.14 3.04 2.49 5.59 1.49 2.82 2.89 6.16 3.45 8.37.51 2.03 1.51 4.94 2.23 6.52.68 1.59 1.54 3.57 1.86 4.4.32.84 1.44 2.33 2.51 3.29 1.83 1.71 1.88 1.88 1.49 3.35-.26.84-.89 3.72-1.44 6.43-.59 2.75-1.7 6.47-2.57 8.38-.87 1.91-1.77 4.66-1.97 6.17-.83 5.09-1.13 6.25-2.21 8.47-.61 1.2-1.64 3.73-2.29 5.55-.69 1.82-1.47 3.82-1.81 4.44-.3.62-.56 1.38-.56 1.69s-.3.67-.66.8c-1.15.45-1.91 3.87-2.11 9.84-.1 3.23-.42 6.37-.68 6.95-.26.58-.34 1.51-.2 2.08 1.15 4.37 10.01 10.6 19.02 13.39 3.48 1.07 8.32 1.59 13.46 1.59 5.6 0 11.58-.62 16.57-1.85 5.69-1.43 8.2-2.6 8.63-4.07.17-.49.43-.89.65-.89.22 0 1.01-.94 1.79-2.1 1.26-1.87 1.31-2.09.68-2.57-1.07-.74-.95-1.67.32-2.88.57-.58 1.4-1.87 1.78-2.94.65-1.78.64-1.95-.12-3.23-.77-1.32-.77-1.45.42-6.46 1.19-5.05 1.19-5.19.46-7.48-1.14-3.48-1.06-4.1.75-4.7 2.42-.82 3.03-2.15 2.64-5.69-.69-6.72-1.16-10.12-1.66-11.26-.54-1.37-.71-4.73-.29-6.9.17-.88.44-1.32 1.01-1.32s1.37.4 2.66 1.19c1.11.74 3.2 1.83 4.67 2.47 1.69.74 2.51 1 3.93 1 .49 0 1.05-.03 1.74-.08 2.52-.25 3.4-.52 4.98-1.69 1.05-.76 2.24-1.39 2.64-1.4.4 0 1.67-.81 2.86-1.84 5.09-4.34 13.86-20 18.12-32.16 1.25-3.64 2.27-6.92 2.27-7.32 0-.4.25-1.2.56-1.82 1.95-3.82 4.25-12.96 5.19-20.62.33-2.7.87-6.29 1.25-7.97.93-4.56.76-11.9-.37-14.28-1.18-2.51-1.27-3.22-1.95-14-.42-6.63-.81-9.63-1.3-10.6-.95-1.85-.6-11.49.52-13.85.74-1.47 4.2-4.42 10-8.46 5.18-3.59 7.67-6.49 7.65-8.83 0-.66-.29-2.21-.65-3.44-.96-3.4-1.96-14.09-1.39-15.16.69-1.33 2.56-9 2.84-11.7.24-2.39 2.38-9.93 3.24-11.58.56-1.11 5.53-17.57 5.52-18.32 0-.58 1.23-4.97 2.39-8.69 3.64-11.32 5.78-23.14 6.53-36.15.41-7.35.41-7.7-.55-10.52-1.23-3.61-1.23-3.84-.07-7.25l.95-2.75-1-3c-.55-1.68-1.01-3.35-1.01-3.79 0-.44 1.31-2.09 2.93-3.66l2.89-2.86-.31-4.82c-.37-5.52-2.12-13.11-3.93-16.99l-1.22-2.69-.09-13.05c-.08-11.85 0-13.4.85-17.04 2.2-9.49 2.3-12.76 1.74-54.86-.36-27.24-.37-40.91-.02-45.55.46-6.64.42-24.2-.03-24.94-.49-.7-.46-10.88.01-11.99.69-1.6 1.68-9.04 2.14-15.72q.38-5.75 2.51-9.53c1.13-2.09 3.08-5.69 4.25-8 1.17-2.31 2.95-5.65 3.95-7.34.96-1.73 2.65-4.85 3.73-6.98 3.29-6.58 5.96-10.28 8.07-11.23 1.01-.45 2.46-1.44 3.21-2.24 1.62-1.65 4.7-7.88 7.89-16.05 1.25-3.2 3.15-7.77 4.19-10.21 1.08-2.44 2.29-5.64 2.67-7.1.43-1.46 1.2-3.46 1.72-4.44.57-.98 2.17-4.4 3.55-7.55 1.38-3.2 4.07-8.27 5.99-11.34 4.48-7.21 6.17-10.5 7.68-15.11 1.76-5.28 1.65-7.71-.43-11.45l-1.62-2.95 1.31-5.59c1.74-7.49 2.69-14.22 2.72-19.84 0-4.11.17-5.04 1.42-8.2l1.42-3.55-.09-8.4c-.03-7.83 0-8.54.91-10.4 1.82-3.69 1.94-5.06 1.42-13.11-.52-7.65-1.13-10.74-3.03-15.4-1.72-4.27-2.82-7.98-4.35-14.33-.74-3.27-1.8-7.06-2.3-8.47-.5-1.41-.91-2.87-.92-3.22s-.51-2.07-1.1-3.84c-.59-1.76-1.64-5.03-2.33-7.19-.69-2.2-1.69-5.25-2.28-6.83-1.36-3.66-3.11-10.01-4.41-15.88-.51-2.56-1.39-6.22-1.9-8.16-.51-1.94-1.15-4.72-1.39-6.18s-.84-4.46-1.31-6.62c-.46-2.21-1.31-6.84-1.87-10.37-1.42-9.14-1.7-10.33-3.52-15.22-1.5-4.19-5.29-15.69-6.07-18.51-.55-1.98-4.99-12.55-5.98-14.27-.49-.79-1.4-3.13-2-5.15-1.46-4.85-2.09-5.95-4.55-7.96-1.11-.92-3.08-2.58-4.37-3.67-4.82-4.2-7.89-6.11-15.62-9.66-4.4-2.03-8.58-3.98-9.33-4.37-.71-.39-1.55-.69-1.82-.69-.59 0-4.8-1.77-7.73-3.24-1.11-.56-5.24-2.07-9.19-3.4-3.95-1.29-7.68-2.66-8.21-2.97-.58-.35-1.82-.87-2.8-1.17-2.31-.73-22.11-8.44-23.8-9.27-1.64-.82-4.62-6.5-6.09-11.57-1.65-5.78-4.25-9.29-9.01-12.29-2-1.26-2.09-1.48-2.67-6.21q-.29-2.87 2.35-8.21c2.69-5.51 4.4-10.88 5.23-16.64.41-2.83.67-3.5 2.16-5.15 1.53-1.65 1.75-2.27 2.07-4.97.2-1.73.58-3.5.84-4.03.26-.49.47-2.08.45-3.5-.02-1.81.32-3.28 1.1-5.01.82-1.87 1.2-3.64 1.47-7.53.19-2.79.48-5.36.56-5.71.13-.31-.2-1.86-.7-3.44-1.1-3.48-.81-5.3 1.25-7.44 3.46-3.62 2.68-10.29-3.3-28.49-.46-1.46-.74-3.49-.71-5.08.2-6.37-3.69-14.56-9.58-20.25-11.21-10.77-12.55-11.73-19.6-14.26-2.8-1.03-4.7-1.37-9.08-1.63-4.92-.31-8.68-.49-11.69-.49Z"/></svg>