<svg xmlns="http://www.w3.org/2000/svg" viewBox="0 0 850 1250"><path fill="#fff" d="m569.13 610.7-3.2 11.65-6.35 11.65s-2.05 4.11-3.61 7.2c-.93 1.88-1.69 3.39-1.69 3.39l3.19-20.12s1.05 3.17 1.05-19.07 1.06-67.8 1.06-67.8l-4.23-33.9v-26.48l16.95 48.74 1.05 27.53-4.22 57.21Zm-265.42-49.17c-1.64 7.88-1.14 9.1-.49 12.77 3.19 18-3.28 34.3-3.28 34.3v16.94l-6.37-6.35-2.1-12.72 1.04-31.78 2.85-46.04 7.36 26.01s2.62-.96.99 6.87Zm332.18-103.39-5.3-45.54s-20.12-34.96-5.3-45.56c14.84-10.59 10.59-4.23 1.06-18.01-9.54-13.77-10.61-34.95-19.07-58.27-8.48-23.3-23.54-26.69-24.24-28.45-.72-1.77-10.95-14.48-13.78-18.03-2.83-3.53-68.19-41.69-68.19-41.69s-8.48-1.41-12.73-2.83c-4.23-1.41-12.01-7.06-12.01-7.06s-1.41 1.06-8.12-1.41c-6.72-2.48-10.95-8.48-10.95-8.48s-1.06-27.57.36-32.51c1.41-4.94 3.17-13.78 6.7-14.48 3.53-.72 3.89-11.31 5.31-19.09 1.41-7.77-1.78-10.95-3.19-10.95s-1.78-2.47-1.78-2.47-1.41-8.13 1.07-11.66c2.47-3.53 1.05-22.26.35-29.68-.7-7.42-6-8.84-6-8.84l-6.36-9.53L442.07 33 435 27.35l-7.07-4.6s-13.77-2.47-23.65-2.12c-9.9.36-25.09 11.66-35.35 21.2-10.23 9.54-9.89 24.73-9.89 24.73l-1.06 17.66 1.77 9.19-5.73 16.21v14.83l7.42 1.06 3.17 11.64 8.47 21.2-2.11 34.95-10.59 2.12-8.48 6.36-16.95 12.72s-14.84 11.65-40.27 25.42c-25.43 13.78-38.16 32.84-47.69 63.57-9.54 30.72-32.85 54.03-32.85 54.03l11.65 7.41 14.84 14.84s5.3 57.2 0 69.91c-5.3 12.72-2.12 41.31-2.12 81.57s10.59 47.67 10.59 47.67l6.37 59.35v42.37l6.36 27.54 23.31 16.95 16.96 13.77s10.59 108.05 13.77 174.79c3.19 66.75 24.38 157.86 24.38 157.86s-1.06 1.06-9.54 5.3c-8.48 4.23 7.42 14.84 7.42 14.84l9.53 12.7s-20.12 13.78-26.48 20.12c-6.36 6.36-5.31 10.61-5.31 10.61l6.36 5.28-14.83 16.96s-8.48 20.12-10.61 29.65c-2.11 9.53 14.84 21.2 36.04 22.26 21.2 1.05 32.84-8.48 43.45-13.78 10.59-5.3 11.65-24.37 11.65-24.37l3.19-21.19 16.95-7.41 12.72-9.54 3.19-16.95v-10.59l9.53-6.36 4.23-10.59-6.35-16.95-5.31-61.45-2.11-153.62 5.3-56.14 6.36-85.82 5.3 60.38 10.61 26.49 9.53 29.65s8.48 118.66 3.19 163.15c-5.31 44.49 7.42 72.04 7.42 72.04l3.17 6.36 2.11 12.7 5.31 11.65 15.89 13.78-5.28 10.59 11.65 13.78 7.42 6.36 3.17 21.19 15.89 26.48s10.61 6.36 31.8 7.41c21.19 1.06 27.56-8.47 27.56-8.47l10.59-21.19-10.59-43.43-10.61-15.89-16.95-10.61 6.36-11.65v-23.3l-8.48-2.12 5.28-14.83 3.2-47.67s-8.48-32.85-4.23-42.38c4.23-9.53-2.12-85.8 1.04-118.64 3.2-32.85-13.77-93.22-13.77-93.22l54.05-34.96 24.37-43.45-3.17-14.83-7.42-30.73 11.65-94.27 4.23-66.75Z"/></svg>