<svg xmlns="http://www.w3.org/2000/svg" viewBox="0 0 850 1250"><path fill="#fff" d="M649.17 636.66c-.54-15.29-5.43-32.93-5.6-46.91-.28-22.72 4.31-43.31 4.2-66.52-.13-27.27-1.58-56.32-7.06-79.83-10.99-47.24-29.53-88.65-46.16-130.91-3.91-9.93-8.6-20.1-14-30.11-3.03-5.62-5-11.8-7.39-16.71 0 0-2.3-4.12-3.24-5.24-6.44-9.39-14.34-17.73-24.26-21.46-5.05-1.9-13.62-1.18-18.91-2.1-8.83-1.53-20.69-9.55-30.81-14.07-8.3-3.71-26.63-11.34-28.7-16.8-2.37-6.24-2.36-19.82-.7-30.04.49-3 1.17-7.23 2.1-10.37 1.35-4.59 2.67-9.12 3.51-10.64 2.13-3.86 8.15-5.35 9.8-9.1 3.91-8.84 3.48-27.8.7-33.61-.5-18.29.79-32.62-4.2-44.81-2.84-6.96-12.78-18.4-22.5-23.68-9.23-5.02-23.09-7.36-23.09-7.36-12.72-1.7-25.06-.61-38.55 7.24-6.85 3.99-18.86 16.85-21.7 23.81-4.99 12.19-3.7 26.52-4.2 44.81-2.78 5.81-3.21 24.77.7 33.61 1.66 3.75 7.67 5.24 9.8 9.1.84 1.52 2.07 4.21 3.42 8.8.93 3.14 1.69 9.2 2.18 12.2 1.66 10.22 1.67 25.27-.7 31.51-2.08 5.46-20.41 13.09-28.71 16.8-10.12 4.52-21.98 11.07-30.81 12.6-5.28.92-13.85.2-18.9 2.1-17.3 6.5-28.53 27.04-36.41 42.71-5.23 10.4-21.63 53.15-25.91 65.82-3.03 8.98-15.01 48.7-17.5 58.11-2.03 7.68-2.09 15.58-4.2 23.11-2.27 8.11-7.3 15.71-9.1 23.81-2.44 11-3.32 24.6-4.9 37.81-4.62 38.75.15 87.16-3.5 125.33-2.01 21.03-8.91 46.6 8 52.2 15.51 5.13 52.56 14.82 46.61-9.49 4.59-1.95 11.98-1.08 14-5.6.17-10.32-.11-16.81-4.2-23.81-6.11-10.45-21.97-12.69-25.21-23.81-1.65-5.67-1.47-13.3-1.4-18.9.17-13.82 3.1-28.32 5.6-42.01 2.4-13.14 8.96-25.23 11.2-37.11 3.69-19.53-.05-40.32 5.6-57.41 3.59-10.86 10.56-21.88 15.4-32.21 10.25-21.86 17.58-40.07 30.11-56.71.69 8.66 7.31 16.37 9.8 25.21 2.4 8.5 4.6 19.67 6.17 30.62 2.31 16.08 5.61 31.45 5.03 49.2-.42 12.8-3.86 23.85-6.01 36.01-1.73 9.79-3.49 19.35-5.9 28.4-3.23 12.2-7.74 24.69-10 36.39-5.79 30-10.6 61.3-12.41 95.24-2.14 40.25-1.63 75.58 2.1 114.12 1.68 17.32 7.61 35.41 7.7 53.91.04 8.5-3.41 18.4-3.5 28.01-.06 5.85.62 12.3.05 17.52-.81 7.42-4.39 15.58-7.05 23.08-2.83 7.96-6.25 15.99-8.4 23.81-9.77 35.42-4.2 80.92-4.2 122.53 0 10.81 1.98 22.8.7 32.91-.54 4.3-2.96 9.17-4.2 14-3.99 15.51-7.25 24.08-17.5 33.61-6.97 6.47-16.25 11.6-25.9 18.2-8.23 5.62-22.16 13.15-23.81 20.3-.63 2.75-2.07 7.75.7 13.3 1.7 3.41 4.62 4.68 7.7 6.94 4.27 3.13 11.39 5.81 12.6 6.37 5.18 2.38 13.66.89 18.2-1.4 8.14-4.11 16.33-14.44 25.21-22.41 8.64-7.75 17.51-17.82 25.21-22.4 4.28-2.55 9.02-3.12 10.5-5.6 3.13-5.24 2.32-21 2.8-28.7.64-10.33.79-21.42 2.8-29.41 1.7-6.75 5.09-12.43 7.08-19.3.92-3.16 1.79-6.95 2.72-10.11 6.56-22.31 19.84-43.42 26.61-66.52 2.97-10.15 4.86-21.12 6.3-31.51 2.01-14.48-.97-30.05 2.1-46.21 3.13-16.47 12.35-32.56 16.1-49.72 2.07-9.44 2.59-19.21 4.2-28.7 7.16-42.23 19.85-82.57 30.11-119.73 1.09-3.96 2.6-9.24 4.9-11.9 11.87 27.77 17.3 58.02 23.81 89.62 3.23 15.69 6.14 32.22 8.4 48.31 2.37 16.91 2.38 33.95 7 49.71 3.75 12.79 11.6 24.18 14 37.11 3.85 20.75-.76 43.78 4.2 64.41 4.14 17.25 12.25 34.23 18.2 51.11 6.18 17.53 13.85 35.19 18.2 51.81 2.94 11.22.87 23.77 2.8 37.11.89 6.15 4.62 9.43 5.7 14.65.73 3.51.38 10.16 1.3 14.75 1.64 8.22 9.31 20.19 14.7 31.51 3.01 6.33 10.72 23.82 17.81 27.98 7.27 4.26 30.54 2.9 35.4.72 5.38-2.4 13.16-13.57 13.3-18.2.13-4.15-3.58-9.66-5.6-14-7.05-15.13-13.24-22.35-23.81-32.91-4.56-4.56-14.68-14.71-16.8-19.6-3.94-9.04-5.57-22.96-6.3-35-2.23-36.87 6.36-83.13 4.2-119.03-1.24-20.56-5.79-37.97-11.2-53.21-3.01-8.47-7.94-16.73-9.1-25.21-1.5-10.95-.48-23.53-1.4-36.4-2.6-36.32 3.29-63.38 7-95.22 5.79-49.76 7-102.2 2.8-153.33-.78-9.55-1.63-19.53-4.2-28.71-3.15-11.25-13.22-93.04-10.5-112.73 2.54-18.46 4.32-37.53 7-55.31 2.66-17.63 4.57-35.32 11.9-50.41 10.24 11.12 16.33 28.24 23.81 45.51 6.91 15.96 17.71 31.62 22.4 47.61 3.53 12.04.07 32.91 1.4 45.51 1.02 9.66 3.97 20.61 5.6 31.51 1.64 10.92 4.18 21.92 4.9 32.21.74 10.6 3.52 36.63.7 46.91-2.51 9.14-19.02 14.71-21 25.91-2.6 14.63 1.85 26.01 7.94 35 2.4 3.54 11.68 3.58 15.4 3.39 4.36-.22 8.93-.99 13.07-1.28 2.56-.19 9.75-.31 11.2-.7 5.35-1.44 7.68.56 11.2-2.8 4.28-4.11 5.97-27.97 5.6-38.53Z"/></svg>