<svg xmlns="http://www.w3.org/2000/svg" viewBox="0 0 850 1250"><path fill="#fff" d="M388.8 30.68c28.76-14.49 69 9.79 73.27 44.89.77 9.21-.3 18.45-1.27 27.6 1.2-1.63 2.26-3.95 4.64-3.84 3.28.21 5.28 3.61 5.67 6.59 1.74 13.75-6.92 26.68-7.72 28.2-2.5 4.56-4.38 3.27-7.3 2.18-2.76 59.41-11.2 39.1 27.98 70.03 6.6 5.04 12.47 10.93 18.95 16.11 13.38 8.99 44.57-.88 73.84 35.61 7.68 13.02 16.4 31.82 14.72 46.78-.7 10.75-4.12 8.37 6.49 18.12 17.65 15.75 15.28 20.75 16.22 32.9-.1 5.35-1.65 11.01.9 16.06 4.37 9.69 5.77 20.31 6.98 30.76.65 21.33 4.14 13.07 1.19 30.71-6.43 17.19-33.87 21.71-46.36 28.57-19.34 10.45-44.96 16.74-66.06 22.27-3.7 17.74-8 14.83-.57 30.28 4.94 11.33 4.57 24.02 4.09 36.13-.76 10.35 68.86 198.54 11.29 257.93-4.17 10.49-3.18 24.61-2.67 46.5-.42 46.2 21.48 44.05 7.81 139.78-16.16 115.94-7.72 111.94-.52 130.63 3.88 8.78 5.2 16.24 18.89 30.69 4.6 5.05 9.9 9.67 13.1 15.82 1.53 3.69 14.34 22.46 6.14 28.53-.55 1.52-1.18 3.02-2.07 4.39-.13 5.14.74 5.35-4.81 7.64-.08 4.24-4.48 6.13-8.16 6.01-6.92 11.98-24.68 4.31-29.91-11.26-12-4.47-13.13-16.11-16.53-27.29-1.28-5.02-7.01-23.28-10.08-25.24-6.69-4.83-22.88-8.23-24.75-29.13-2.49-12.08 8.29-20.19 8.24-26.81 1.15-20.1 8.33-4.8-10.92-81.15-8.03-35.87-5.08-25.79-14.98-43.54-10.1-18.53-16.56-22.81.5-89.43-12.8-15.68-14.02-49.57-16.11-64.73-8.67-63.28-13.12-40.48-20.6-152.89-.1-6.22-.62-12.42-1.2-18.61-.4-4.07 1.84-13.53-12.57-12.54-1.11 6.13 1.16 12 3.28 17.62 4.49 13.67 10.9 52.94 8.27 100.28-3.5 83.71 3.63 101.04-8.09 121.86 38.17 94.28 8.5 67.05 5.38 123.95-.74 22.27-8.78 64.01-3.73 79.86 1.67 5.72 4.13 11.27 4.65 17.28.03 2.4 2.03 3.97 3.48 5.63 2.14 2.15 6.78 9.68 6.86 15.02.85 29.34-17.08 27.36-19.15 35.8-7.07 26.95-.23 42.13-13.72 51.77-1.14.7-1.15 2.11-1.49 3.27-2.65 12.46-17.46 23.65-26.31 13.89-3.49 1.5-8.36.72-9.75-3.24-5.34-1.13-5.1-.33-6.49-5.79-1.02-1.03-1.98-2.11-2.9-3.21-1.53-.93-3.39-1.84-3.82-3.74-1.58-6.16-.21-12.66 2.07-18.46 1.15-2.71 1.43-5.69 2.53-8.41 3.8-9.84 12.18-17.12 19.18-35.2 2.13-6.73 3.25-13.72 5.01-20.55 1.24-5.2 3.2-10.47 2.27-15.89-1.31-7.26-.65-14.68-1.57-21.98-3.24-27.06-22.98-88.9-29.34-116.92-8.25-35.99-7.7-27.88-4.94-69.66 2.1-31.47 1.98-29.41-2.35-60.62-3.13-26.68-8.39-26.79-10.21-28.33-16.46-13.47-26.65-44.42-31.78-65.3-11.61-51.78-5.11-87.59-3.21-112.84.69-14.44-1.21-40.97 10.26-70.21 6.15-16.7 1.6-28.55 7.75-44.57 2.1-5.52 6.38-10.34 6.46-16.51-5.04-1.88-9.21-5.38-14.1-7.56-10.66-5.55-51.22-12.59-71.3-25.71-3.55-2.24-7.47-3.79-11.47-4.99-4.62-1.34-16.25-7.17-24.09-15.2-2.23-2.13-2.81-5.26-3.83-8.03-1.98-5.88.28-12.16-1.25-18.1-1.03-7.21.65-14.57 3.65-21.13 9.31-20.37 10.68-42.42 14.61-52.93 5.2-9.66 15.04-15.25 22.64-22.76 4.31-4.12.31-12.18 3.05-22.83 9.49-36.1 31.83-57.3 58.93-64 14.2-4.69 24.47-1.55 34.85-12.57 28.43-29.44 32.39-27.7 44.27-38.4 1.26-49.71-2.52-23.8-4.39-50.33-5.98 3.58-5.79-2.26-8.42-7.17-3.93-7.64-8.65-31.58.04-29.72 2.05.48 2.42 2.91 3.48 4.41.3-15.06-3.05-30.68 2.22-45.26 5.14-12.08 14.81-22.26 26.76-27.77M280.75 379.11c-7.59 12.47-16.49 24.12-26.04 35.15 24.54 13.66 29.15 23.73 54.48 37.9 6.72-43.19-8.73-47.59-21.99-78.68-2.11 1.91-4.74 3.29-6.45 5.63m256.85-6.13c-9.34 22.72-26.95 46.62-27.79 48.36-1.43 4.83-1.56 9.93-1.86 14.92 16.28-10.93 31.15-24.4 49.44-32.01-7.56-9.77-13.84-20.46-19.79-31.28Z"/></svg>