<svg xmlns="http://www.w3.org/2000/svg" viewBox="0 0 850 1250"><path fill="#fff" fill-rule="evenodd" d="M469.89 135.32c-1.69 13.46-6.91 26.09-7.38 42.03 10.97 6.76 18.98 18.14 29.54 25.02 8.36 5.44 34.07 13.59 44.3 17.06 13.44 4.49 37.61 5.45 44.32 15.87 1.94 3.13.93 5.76 2.44 9.15 8.65 18.93 15.05 44.76 20.92 65.9.84 7.95 1.68 15.91 2.51 23.84 8.72 33.13 11.2 71.33 19.65 106.83 3.86 16.2.06 34.32 3.69 49.98 3.07 12.94-.94 29.5-1.2 40.98-.82 35.49-1.47 66.53-1.28 100-4.74 1.6-6.56 1.05-7.35 6.78 3.32 4.33 10.03 35.45 6.13 45.51-1.13 2.97-5.82 4.29-7.37 6.78-8.72 13.8-22.16 33.62-43.05 35.22.53-7.9 4.4-10.62 6.17-17.03 2.82-10.74-.8-26.13-3.76-32.99-1.2-.34-2.41-.69-3.68-1.11v1.11c-7.12 11.48.54 27.98-17.19 29.56-.27-14.9.8-43.11 4.89-55.67 1.68-5.17 5.06-9.97 6.17-15.88h-2.45c-2.29-1.42-7.01-1.24-11.1-1.18-3.18 4.18-3.92 7.77-3.73 15.94-13.34 15.58-10.32 60.51-8.58 88.64.37 5.67 4.37 11.67 2.48 18.2-1.01 3.31-5.23 7.22-6.17 10.19.4 12.9.79 25.75 1.24 38.69.07 7.78 5.53 14.47 2.44 22.74-.67 1.7-4.16 3.13-4.94 4.48-2.3 4.18-.53 10.38-1.22 13.64-2.43 11.76 5.36 18.7 1.22 30.73-8.31 24.35-14.37 51.03-23.36 76.11-2.07 5.7-6.9 11.52-8.64 17.1-5.41 17.34 4.29 35.54-1.21 51.14-3.76 10.7-13.28 10.89-13.54 26.12 16.69 20.57-4.63 60.74-12.27 77.27-4.2 8.85-3.76 15.73-17.28 15.92-3.38-2.37-8.75-2.37-14.78-2.3-2.51 4.59-4.84 12.25-6.17 14.74-1.21.79-2.43 1.6-3.66 2.41-1.77 4.64 3.99 14.92 1.23 21.49-.57 1.36-4.42 4.02-4.92 5.69.43 1.91.77 3.84 1.18 5.69-.21 1.36-1.95 4.77-2.38 6.81-16.23 9.29-73.46 19.32-75.14-7.91 4.26-3.85 4.36-8.43 7.42-13.69 6.88-11.88 12.84-13.26 8.61-30.64.42-6.82.85-13.64 1.21-20.43-2.31-6.75-9.46-9.78-11.07-18.22 1.97-1.53 1.41-.74 2.49-3.46-13.07-8.43-8.22-24.88-13.55-40.86-5.09-15.36-5.7-36.22-9.86-53.44-.39-9.04-.8-18.2-1.24-27.24-3.59-14.68-2.48-33.43-6.13-48.91-.41-8.31-.84-16.66-1.21-25.02-5.03-15.86-11.6-27.04-16.04-45.43-.39-16.68-.8-33.34-1.23-49.96.44-2.01 2.29-7.61 1.23-11.39-5.89-21.61-9.51-51.48-15.98-73.86-3.87-13.31.23-30.86-3.73-44.36-3.55-12.33-9.08-22.94-14.75-32.91-3.89-6.93-4.49-18.19-14.75-19.37-4.06 2.26-13.48-.69-19.71-1.08.07-43.39-15.69-73.81-24.61-110.29-.83-15.13-1.67-30.33-2.48-45.43-5.23-22.3-.54-42.88 4.97-63.65 6.83-25.95 7.71-52.38 14.71-77.28.85-6.87 1.65-13.62 2.49-20.46 5.54-19.41 12.27-51.12 23.43-65.92 9.93-13.24 34.86-13.09 51.63-20.49 10.67-4.68 23.83-7.93 34.46-13.59 9.03-4.83 19.09-19.22 27.12-26.19.23-21.14-5.13-33.32-6.2-51.11h-9.82c-1.21-2-1.54-1.92-2.49-4.54-5.86-6.79-3.52-22.73-1.24-30.68 5.5-1.51 7.92-.19 8.61-6.84-4.25-6.08-.7-23.53 1.28-28.39 7.47-18.7 26.56-34.96 51.66-36.37 31.31-1.76 54.99 19.72 60.34 43.18-1.26 9.84-2.48 19.72-3.68 29.62 7.61 2.29 11.16 4.06 12.27 12.48-7.18 10.08-2.36 25.06-21 24.97l.07-.02Zm68.92 253.43c-16.08 33.34-2.86 103.34 4.9 135.28v14.77c3.46 14.27 4.56 29.26 9.85 40.91 1.24.42 2.48.77 3.73 1.13v-1.13c.98-1.34.9-1.93 1.2-4.5-5.23-8.2 1.31-24.89-1.2-35.29-1.14-4.55-2.52-13.15-3.73-18.21v-32.88c-4.63-19.75-4.03-42.1-8.58-61.39-2.82-11.8 3.01-29.38-3.69-37.55-1.29-.91-.39-.46-2.5-1.14h.02Zm-230.18 12.47c-2.75 7.78-1.07 16.71-3.65 25.08-1.24 3.87-5.24 9.66-6.14 13.59-1.82 7.71 5.13 16.16 2.45 26.19-3.19 11.7-7.75 39.69-2.45 54.55h2.45v-2.29c6.87-9.44 6.54-24.36 9.82-37.51 6.37-25.45 13.01-34.8 3.69-62.5-2.08-6.3-.13-11.59-3.69-15.86-1.25-.95-.34-.48-2.48-1.25Zm113.25 348.99c-1.61 2.14-1.61.92-2.44 4.52-10.97 15.04 4.12 38.2 0 54.57-5.75 22.66.66 43.01 6.13 64.77-.4 9.04-.81 18.19-1.22 27.28 4.59 20.81 1 51.22 6.18 74.99h3.62c11.73-18.88 5.63-60.62 12.34-84.08.79-2.78 3.88-28 3.71-28.46-.49-1.14-4.38-1.49-4.92-2.2-1.95-2.96.57-7.8-1.24-10.3-1.74-2.43-6.54-2.4-8.62-4.5-3.48-3.56-7.38-15.98-8.59-20.52-3.62-13.04 8.73-21.83 11.06-29.53 1.49-4.85-10.65-38.58-12.32-45.42-1.22-.4-2.47-.74-3.7-1.11Z"/></svg>