<svg xmlns="http://www.w3.org/2000/svg" viewBox="0 0 850 1250"><path fill="#fff" d="M428.57 1211.41c-15.97-4.74-23.14-19.26-15.99-32.4 2.06-3.79 2.6-9.28 1.17-12.04-.61-1.17-1.06-3.17-1.01-4.44.05-1.27-.21-2.49-.57-2.72-.39-.24-.51-1.34-.27-2.71.21-1.27.11-3.05-.24-3.96-1.06-2.8-1.97-14.01-1.96-24.15 0-5.31-.28-11.37-.65-13.47-.56-3.24-.48-4.63.57-9.07 1.68-7.12 2.62-13.91 2.51-18.04-.12-4.28.65-10.05 1.48-11.07 3.9-4.82 1.12-118.1-2.9-118.1-1.16 0-1.45.69-2.49 6.08-.65 3.35-2.94 13.96-5.09 23.59-5.26 23.51-5.44 24.97-4.98 40.22.21 7.04.37 15.74.36 19.34s0 10.36.03 15.02c.05 7.49-.13 9.01-1.51 13.1-.86 2.55-1.75 6.74-1.97 9.31-.22 2.57-.82 7.17-1.33 10.22-.51 3.05-.86 6.56-.78 7.8.27 4.35-.08 7.48-.95 8.35-3.56 3.56-4.77 30.15-1.89 41.64 4.71 18.82 1 29.55-12.55 36.34-9.12 4.57-17.93 3.6-28.04-3.09-1.71-1.13-3.47-2.06-3.9-2.06s-.79-.41-.79-.92-.66-1.35-1.46-1.88c-5.62-3.68-7.6-10.09-6.37-20.67.53-4.56.96-8.59.96-8.95s.51-1.17 1.14-1.8c4.16-4.16 12.87-37.25 11.71-44.51-.25-1.56-.13-2.87.3-3.39.39-.47 1.2-3.74 1.81-7.26.61-3.53 1.67-7.96 2.36-9.84.69-1.89 2.12-5.81 3.19-8.72 1.37-3.73 2.14-7.32 2.62-12.17.37-3.78 1.08-8.98 1.56-11.56.49-2.57.89-7.53.89-11.02 0-4.15.24-6.42.7-6.58 2-.67.46-16.42-3.79-38.77-2.14-11.26-3.3-19.22-5.03-34.73-1.82-16.27-2.91-22.75-5.07-30.1-5.58-19-1.11-47.58 10.46-67.02 2.02-3.39 3.78-6.42 3.92-6.75.33-.79 1.37-2.06 2.71-3.33.6-.57 1.09-1.53 1.09-2.14s.39-1.11.87-1.11c2.63 0 3.89-14.99 2.23-26.48-.78-5.37.04-4.93-7.56-4.1-17.01 1.86-20.79 3-25.26 7.63-1.42 1.47-4.23 4.39-6.24 6.48-2.01 2.1-4.08 3.95-4.6 4.11-1.03.33-1.31 15.09-.36 18.99 1.28 5.22-14.51 11.21-18.53 7.03-2.47-2.57-2.64-4.04-2.64-23.02 0-16.94-.11-18.81-1.36-23.4-2.16-7.95-3.59-30.36-4.3-67.39-.25-13.07-.76-22.48-1.56-29.02-6.04-49.28-8.61-86.18-7.43-107.01.37-6.52.91-23.37 1.22-37.44.72-33.68 2.2-43.82 10.13-69.57 6.55-21.28 10.38-29.26 18.43-38.41 4.03-4.59 5.73-7.11 7.41-11.03 1.2-2.79 3.53-7.48 5.18-10.42 7.91-14.05 8.52-16.47 5.95-23.75-3.34-9.49-7.69-30.8-9.35-45.86-1.47-13.36-2.74-19.4-6.52-31.21-5.47-17.05-7.8-30.58-7.33-42.51.33-8.48 1.29-13.05 3.89-18.42l1.59-3.29-.98-8.44c-2.28-19.73-9.25-40.09-16.84-49.24-12.77-15.38-47.66-54.27-55.46-61.83-1.58-1.53-2.87-3.12-2.87-3.52s-.98-1.6-2.18-2.66c-1.2-1.05-2.18-2.18-2.18-2.51s-.91-1.35-2.03-2.28c-1.12-.93-2.17-2.05-2.34-2.49-.36-.92-5.75-7.26-8.27-9.72-.94-.92-1.72-1.86-1.72-2.07s-1.83-2.53-4.06-5.15-4.06-5.11-4.06-5.54-.23-.88-.51-1c-1.77-.72-11.32-18.08-13.49-24.51-5.69-16.86-4.94-24.64 2.92-30.04 14.14-9.71 71.11-3.17 112.74 12.95 17.59 6.81 34.74 11.75 40.81 11.75h3.24l1.46-4.07c17.32-48.29 66.34-72.53 97.12-48.02 2.43 1.94 2.7 2 10.4 2.35 19.71.92 37.2 16.38 42.98 38 1.33 4.96 1.83 5.07 12.3 2.7 61.67-13.92 114.38-12.08 118.74 4.14 1.8 6.68-8.27 28.7-19.37 42.34-2.37 2.92-4.33 5.61-4.34 5.99-.02.38-4.24 4.68-9.39 9.57-5.15 4.89-9.36 9.28-9.36 9.77s-.3.88-.67.88c-.93 0-8.69 6.93-8.69 7.76 0 .37-.88 1.06-1.95 1.54-1.07.48-2.09 1.39-2.26 2.02-.17.64-.65 1.16-1.08 1.16s-3.84 2.9-7.57 6.44-13.39 12.67-21.46 20.28c-20.78 19.62-20.56 18.56-6.24 29.95 4.09 3.25 5.35 4.62 5.51 5.98.12 1.01 1.67 3.55 3.61 5.9 1.88 2.27 3.58 4.84 3.79 5.7s1.6 2.92 3.08 4.58c3.42 3.83 7.32 9.71 11.44 17.26 1.78 3.26 5.39 8.65 8.02 11.98 12.54 15.86 17.47 29.81 15.08 42.71-1.73 9.37-4.18 10.2-5.91 2-1.3-6.16-1.93-7.39-3.74-7.39h-1.58v7.48c0 11.25-3.59 25.6-6.4 25.6-.47 0-1.34 1.02-1.94 2.26-1.46 3.07-1.78 2.42-.97-1.98.48-2.58.48-4.32.02-5.88-.36-1.21-.77-6.71-.91-12.21-.27-10.84-.96-13.52-3.68-14.24-2.79-.75-3.61-.48-3.61 1.17 0 3.92-3.88 15.14-5.61 16.21-1.81 1.12-.63 3.87 2.37 5.5 6.25 3.4 7.08 5.88 4.2 12.52-2.31 5.31-5.09 8.51-7.39 8.51-1.04 0-1.65.43-1.88 1.33-.32 1.22-.63 1.3-3.56.91-2.13-.28-3.51-.18-4.1.31-1.97 1.63-6.02-.21-26.15-11.92-3.09-1.8-10.25-5.67-15.91-8.61-5.66-2.94-10.39-5.57-10.5-5.85-1.86-4.52-3.05-.97-7.63 22.9-4.24 22.09-10.45 38.98-19.97 54.34-7.86 12.67-7.72 18.66.68 27.6 1.67 1.78 5.6 10.18 5.6 11.97 0 2.29 1.65 4.64 5.27 7.52 4.57 3.63 6.75 6.5 19.46 25.56 21.03 31.55 25.76 43.29 32.63 81.12 7.12 39.2 10.71 129.39 7.52 188.76-1.02 18.91-1.14 40.1-.37 63.34.83 24.88-.27 26.73-11.44 19.26-7.37-4.92-10.24-8.38-17.03-20.51-.86-1.54-2.58-4.46-3.81-6.47-1.94-3.19-3.11-5.84-5.99-13.65-.35-.94-1.04-1.72-1.54-1.72s-6.49-2.81-13.32-6.24c-11.23-5.64-15.13-7.13-15.13-5.77 0 1.56-3.5 24.92-5.35 35.72-3.97 23.14-4 28.4-.32 46.37 3.7 18.1 4.71 29.33 3.8 42.52-1.52 22.22-2.51 28.21-6.62 40.41-3.2 9.48-5.25 17.31-9.3 35.43-3.72 16.67-5.36 23.33-9.35 38.06-7.6 28.03-12.97 52.42-11.54 52.42 1.93 0-.53 12.55-2.59 13.23-1.14.38-1.01 11.19.21 17.97.59 3.26 1.52 9.49 2.07 13.85.98 7.79 1.78 11.51 4.87 22.65.86 3.09 1.72 6.35 1.92 7.26.21.93.91 1.78 1.63 1.97 1.14.3 1.23.66.87 3.71-.41 3.5.73 7.03 2.64 8.15.47.27.85.78.85 1.12 0 1.14 2.79 4.42 4.52 5.32 3.89 2.02 6.29 16.46 3.71 22.26-4.52 10.14-25.41 18.44-37.43 14.87ZM344.01 173.48c-.17-1.46-.66-5-1.09-7.87-.85-5.73.62-16.09 3.23-22.73 1.59-4.05 1.57-8.62-.05-9.78-.82-.59-1.35-1.96-1.63-4.19-.39-3.14-.51-3.32-2.21-3.32-.99 0-1.8-.26-1.8-.57 0-1.89-18.59-5.86-30.89-6.59-10.21-.61-25.75-2.08-29.57-2.81-4.04-.77-6.93-.82-6.93-.13 0 1.9 31.79 37.56 33.49 37.56.4 0 .82.26.94.58.17.46 8.3 5.39 21.74 13.19.86.5 1.78 1.26 2.06 1.68.27.43.74.78 1.03.78s1.52.87 2.72 1.93c1.95 1.73 7.38 4.75 8.76 4.88.29.03.39-1.14.21-2.6Zm197.11-24.57c5.81-5.02 12.34-10.71 14.51-12.64 6.18-5.48 6.59-5.84 10-8.71 1.77-1.49 3.21-3.06 3.21-3.49 0-1.15-46.77-2.47-47.88-1.35-.92.92 4.43 26.58 5.55 26.58.29 0 .53.98.53 2.18 0 1.53.28 2.18.94 2.18s.94.66.94 2.18c0 3.37.82 2.9 12.21-6.95Z"/></svg>