<svg xmlns="http://www.w3.org/2000/svg" viewBox="0 0 850 1250"><path fill="#fff" d="M423.52 18.72c-23.04 1.06-33.36 15.17-35.68 20.59-2.48 5.78-36.33 56.19-36.33 56.19l-20.59 27.23v1.23c-3.67 5.71-8.71 14.06-10.76 20.22-3.3 9.91-3.32 10.69-3.32 10.69l-2.46 10.76 4.98-4.12 4.12-14.01 7.58-19.5c.19 5.9.49 17.21-.14 26.08-.83 11.56-9.1 21.45-9.1 21.45v24.77s-2.47 4.13-9.9 5.78c-7.43 1.65-9.9.02-4.12 3.32s8.23 2.46 8.23 2.46l-7.44 15.67s-23.95 24.75-30.55 33.01-60.24 65.23-60.24 65.23-32.21 35.49-32.21 50.35 15.67 28.1 15.67 28.1 50.41 62.73 54.53 67.68c4.13 4.95 5.76 19.02 8.23 33.88 2.48 14.86 34.67-13.22 34.67-13.22s8.27 7.42 13.22 9.9c4.95 2.48 12.35-3.32 12.35-3.32s1.69 36.34.87 43.77c-.83 7.43-3.35 70.14-2.53 122.14.83 52.01-33.8 227.89-33.8 227.89l33.01 8.23s-4.17 26.41-.87 56.12c3.3 29.72 23.11 123.01 23.11 123.01l2.53 42.9-3.32 1.66-3.32 10.76.87 9.9s-4.15 11.56-3.32 23.11c.83 11.56 4.98 19.79 4.98 19.79s1.59 14.84 7.37 25.57 33.88 17.34 33.88 17.34l16.54-.79-7.44-36.33-3.32-14.01s-1.66-19.85-1.66-41.32-10.7-47.05-12.35-69.34c-1.65-22.29 4.96-44.54 7.44-68.48 2.48-23.94 5.78-92.45 5.78-92.45s38.76 2.42 74.25 3.25c35.5.83 66.89-4.12 66.89-4.12s1.61 23.15 4.91 41.32c3.3 18.16 11.61 35.45 14.08 45.36l19 75.98-2.53 42.11s-14.74 23.05-12.35 33.8c1.65 7.43 9.9 21.45 9.9 21.45l.79 47.09 5.78 3.25s-.83-39.61 0-44.57c.83-4.95 4.16-1.6 10.76 2.53s8.28 38.8 9.1 46.23c.83 7.43 20.59 9.03 20.59 9.03l54.53-3.25-33.88-26.44s-5.78-18.14-5.78-25.57-3.32-32.25-3.32-37.2-2.42-14.02-3.25-21.45-7.44-47.89-7.44-47.89-1.63-146.06-2.46-153.49c-.83-7.43-3.32-22.32-3.32-22.32l14.01-4.98s-9.91-36.31-11.56-44.57c-1.65-8.26-8.21-51.18-16.47-104.01-8.25-52.83-47.89-188.16-47.89-188.16V523.1l4.91.79s-1.66-20.63-1.66-33.01-12.35-59.44-12.35-59.44-1.66-13.21-1.66-17.34 4.98-18.13 4.98-18.13 20.63 36.31 33.01 33.01c25.72-6.86 42.1-20.68 34.67-99.1-8.89-93.86-21.45-126.26-21.45-126.26l-29.76-7.44c-9.91-2.48-37.92-13.22-37.92-13.22l3.25-9.1 2.53-17.34 9.03 11.56-6.57-18.13 2.46-9.1-3.32-11.56s-2.45-16.51-6.57-28.89c-4.13-12.38-15.72-33.83-28.1-50.35-12.38-16.51-33.82-30.52-60.24-31.35-1.65-.05-3.23-.07-4.77 0Zm93.9 104.01 4.19 8.23 1.59 10.76-4.12 7.37-1.66-19.79v-6.57Zm-149.37 10.69-7.44 15.67-11.56 7.44 9.1-16.47 9.9-6.65Zm146.12 20.66v21.45l-1.66 4.12-6.65-3.25 4.19-9.97 4.12-12.35Zm-171.69 18.13-4.19 13.22-7.37 4.98 4.12-9.9 7.44-8.31Zm1.59 15.75 1.66 9.03-10.69 2.53 9.03-11.56Zm-22.54 125.25c1.45.06 2.68.64 3.61 1.88 4.95 6.6 18.13 42.91 18.13 42.91l13.22 33.8 7.44 17.34v22.32l-7.44 1.66-28.89 30.55s-18.19-27.27-28.1-33.88-23.93-19-27.23-24.77c-3.3-5.78-18.17-21.43-13.22-29.69 4.95-8.26 21.46-37.97 34.67-46.23 10.73-6.71 21.51-16.13 27.81-15.89Z"/></svg>