<svg xmlns="http://www.w3.org/2000/svg" viewBox="0 0 850 1250"><path fill="#fff" d="M439.54 22.98h3.95c7.49.23 14.96 2.18 21.45 5.99 5.2 2.97 9.66 7.03 13.87 11.26 7.76 7.83 14.32 16.91 18.92 26.95 3.62 7.83 6.05 16.19 7.35 24.71.64 4.04.93 8.12 1.34 12.18 2.96 31.64 5.13 63.34 7.56 95.02.41 4.77.46 9.65 2 14.22 1.13 3.55 3.45 6.83 6.81 8.55 4.54 2.4 9.83 2.42 14.85 2.41 7.19.11 14.55.9 21.16 3.9 4.39 1.99 8.25 5.15 11.03 9.1 3.81 5.37 5.86 11.75 7.22 18.12 2.27 10.6 2.52 21.49 2.6 32.29.09 37.2-.42 74.39-.22 111.59.16 37.19 1.46 74.36 2.69 111.53 1.73 50.12 3.64 100.24 4.31 150.39v3.69c-.23 7.17-1.45 14.39-4.28 21.03-2.47 5.85-6.28 11.23-11.37 15.09-4.6 3.54-10.17 5.72-15.89 6.59-5.38.85-10.87.56-16.23-.25 2.52-6.96 5.5-13.77 7.54-20.9 2.25-7.83 4.71-15.6 6.48-23.55 1.4-6.12 2.14-12.37 2.34-18.64.32-8.17.53-16.57 3.53-24.29.74-2.03 1.77-3.94 2.77-5.85 1.71-3.69 1.72-7.9 1.35-11.88-.67-6.85-2.69-13.45-4.51-20.06-7.07-25.07-15.44-49.76-21.91-75-1.9-7.64-3.9-15.29-4.94-23.11-2.29-16.82-1.58-33.83-2.48-50.74-.38-6.42-.03-12.85-.05-19.27-2.16.06-4.31.04-6.47.13.03 18.82-.9 37.65.13 56.45 2.09 35.31 5.96 70.49 8.05 105.79 1.13 18.76 1.56 37.55 1.88 56.34.42 28.92.38 57.85.88 86.78.19 8.37.29 16.75.67 25.11 1 12 6.07 23.07 9.4 34.52 3.83 12.54 8.16 24.92 12.08 37.43 5.85 18.4 10.09 37.26 14.15 56.12 2.33 10.98 4.49 22 6.62 33.02.81 4.49-1.04 8.82-1.58 13.22-.36 2.27.01 4.56.22 6.84 1 10 2.45 19.96 3.84 29.91 1.16 8.03 2.31 16.1 2.21 24.23.05 20.62-5.81 40.93-15.27 59.15-3.27 6.43-7.24 12.46-10.92 18.65-12.65-5.55-25.15-11.48-38.19-16.07-13.93-4.95-28.7-7.95-43.54-7.37-5.28 33.1-2.88 67.28 6.18 99.51 1.81 6.51 3.88 12.96 6.18 19.32 2.15 6.05 4.85 11.94 6.03 18.29.93 4.73.95 9.83-1.09 14.29-2.31 5.14-6.75 8.91-11.31 12.03-4.47 2.94-9.13 5.91-14.48 6.91-5.99 1.26-12.58-.05-17.32-4.01-5.05-4.11-7.67-10.6-8.1-16.98-2.3-39.13-3.74-78.3-5.68-117.45-.34-4.9-1.05-9.77-1.6-14.64-1.67-.04-3.34-.08-5-.14-.48 5.59-1.41 11.13-1.66 16.74-.24 3.6.15 7.21.27 10.81 2.2 42.55 4.71 85.08 7.07 127.62.23 4.85.09 9.71.01 14.57-7.17-.22-14.35.1-21.53.17h-10.86c-12.07-.01-23.97-2.48-35.62-5.4-.84-.24-2.35-.62-1.97-1.79.93-1.73 2.79-2.65 4.38-3.65 2.58-1.58 5.51-2.49 7.96-4.27 3.26-2.14 6.56-4.24 9.99-6.1 4.07-2.03 7.89-5.08 9.62-9.41 1.32-3.12 1.7-6.54 1.81-9.89.75-16.74-1.12-33.49-4.28-49.91-3.13-16.3-7.48-32.34-11.69-48.38-10.8-40.85-19.33-82.24-28.74-123.42-.54-2.32-1.32-4.8-.45-7.14 3.38-10.97 2.52-22.83-.68-33.73-3.01-10.59-7.67-20.6-11.31-30.97-3.45-10.08-6.03-20.43-8.57-30.77-3.41-14.23-6.26-28.58-8.98-42.95-2.41-13.15-5.03-26.27-7.17-39.46-3.06-19.13-5.29-38.37-8.49-57.48-.41-4.68-4.21-8.38-8.29-10.24-4.78-1.52-9.44-3.57-13.5-6.55-5.08-3.65-9.18-8.55-12.22-14-3.94-7.03-6.3-14.8-8.22-22.58v-1.71c.59-4.84 1.45-9.64 2.13-14.46 5.15-33.97 10.32-67.93 15.48-101.9 2.31-15.05 4.52-30.12 7.02-45.14 2.98-18.14 6.09-36.27 8.28-54.53 2.44-20.62 3.82-41.35 4.47-62.09.42-16.02.63-32.06-.21-48.07-.96-20.03-2.92-39.99-3.64-60.03-.38-7.54.6-15.25 3.64-22.2 4.29-10.05 13.01-17.82 23.05-21.87 6.66-2.58 13.85-3.18 20.74-4.9 9.11-47.97 17.53-96.09 27.73-143.86.94-4.35 1.76-8.74 3.25-12.94 3.86-11.25 10.21-21.42 16.69-31.32 1.55-2.5 4.02-4.24 6.57-5.62 3.99-2.14 8.31-3.57 12.41-5.48 2.74-1.27 5.84-.27 8.68-1.02 6.44-1.61 13.01-2.81 19.65-3.15m-92.5 355.4c.01 19.2.01 38.39 0 57.59 2.11-3.68 3.52-7.73 4.62-11.82 2.49-9.87 3.06-20.25 1.46-30.32-.95-5.47-2.49-11.09-6.08-15.46M281.2 669.67c-.71 3.96.85 7.98 3.28 11.07 1.35 1.64 2.77 3.41 4.86 4.11 4.01 1.41 8.35.99 12.46 1.84.88-5.13 1.59-10.29 2.46-15.42-3.28 3-6.49 6.06-9.83 8.98-2.78-6.46-5.75-12.83-8.55-19.27-2.2 2.47-4.17 5.34-4.68 8.68Z"/></svg>