<svg xmlns="http://www.w3.org/2000/svg" viewBox="0 0 850 1250"><path fill="#fff" d="M386.44 26.13c-3.77 2.09-8.52 5.58-10.75 7.54-2.09 2.09-5.45 3.63-7.54 3.63-5.03 0-18.01 7.54-21.5 12.43-1.54 2.09-3.21 5.45-3.63 7.4-.56 1.95-3.63 5.72-6.84 8.52-8.66 7.12-14.8 17.03-14.8 23.46 0 2.93-1.12 7.4-2.51 9.91-1.26 2.51-3.63 8.1-5.03 12.29-1.4 4.19-3.21 8.24-3.77 8.94-.7.84-1.26 4.05-1.26 7.12 0 4.61.98 6.98 4.89 11.59l5.03 5.72-3.07 5.86c-1.54 3.21-3.21 7.26-3.35 8.8-.28 1.68-1.82 6.42-3.35 10.75-2.65 7.12-2.79 8.24-.98 13.4 2.51 6.98 7.96 12.98 11.87 12.98 5.17 0 8.52 2.65 8.52 6.7.14 2.09.98 5.31 2.09 7.26 2.79 4.89 2.51 6.7-.98 7.82-6.56 1.95-15.92 6.56-19.69 9.77-2.23 1.81-5.45 3.35-7.26 3.35-6.14 0-19.41 27.64-20.24 42.58-.98 16.33-.42 33.65 1.95 56.54 3.77 37.7 2.09 54.45-9.21 89.35-6.98 22.2-15.36 54.73-17.17 67.44-1.82 13.12 4.05 24.71 18.01 35.74 1.95 1.54 2.37 3.21 1.68 8.38-.56 3.49-.98 8.24-.98 10.61 0 15.78.42 19.69 2.79 22.34 2.65 2.93 9.08 21.5 10.75 30.44.42 2.79 1.4 5.59 2.09 6 .7.42 1.26 6.84 1.12 14.24 0 15.36 1.26 29.04 3.21 32.81.84 1.68.14 5.86-2.23 13.4-1.95 6.14-4.89 16.33-6.42 22.76-1.68 6.42-4.19 15.64-5.58 20.66-4.19 14.1-15.5 54.59-16.89 60.73-1.4 5.44-14.8 50.82-21.36 71.9-1.82 5.72-4.05 12.98-4.89 16.06-7.12 25.27-10.75 38.39-14.1 51.66-7.96 30.99-18.15 68.83-23.04 85.03-2.65 9.21-4.89 18.01-4.89 19.69s-1.68 7.68-3.63 13.4c-1.95 5.72-4.75 16.33-6.14 23.59-1.54 7.26-4.19 18.01-6.14 23.73-1.95 5.72-3.91 12.98-4.47 15.92-.56 3.07-1.82 7.12-2.79 9.08-1.12 1.95-1.95 5.03-1.95 6.7s-.56 3.49-1.4 3.91c-.7.42-1.4 2.93-1.4 5.31 0 2.51-1.26 8.52-2.79 13.54-1.54 5.03-2.79 10.47-2.79 12.29s-1.12 5.17-2.37 7.68c-1.26 2.51-2.65 6.98-3.07 10.05-.7 4.89-1.4 5.58-5.03 6.28-3.35.56-4.47 1.81-6.42 7.4-1.4 3.77-3.35 8.1-4.61 9.77-1.12 1.68-4.05 5.86-6.42 9.21-6.7 9.35-5.86 9.91 15.92 9.91 14.8 0 19.96-.56 23.73-2.37 4.89-2.23 5.17-2.23 14.94 2.09 7.68 3.49 12.01 4.47 18.57 4.47s9.77.84 14.1 3.49c3.07 1.81 7.54 4.47 9.77 5.86 3.49 2.09 6.98 2.51 20.38 2.23 15.5-.28 16.61-.42 23.18-4.47 3.91-2.37 7.96-4.33 9.21-4.33 3.91 0 6.56 1.68 6.56 4.19 0 1.4 1.12 3.91 2.65 5.72 2.51 3.07 2.79 3.07 10.75 1.26 4.61-.98 9.91-3.07 12.01-4.47 2.65-1.82 6.28-2.51 13.54-2.51 9.91 0 10.05 0 16.34 6.14 4.89 4.61 8.52 6.56 15.08 8.38 14.66 3.77 24.71 3.07 42.72-2.93 8.8-2.93 11.59-4.75 17.59-11.03 6.84-7.4 7.12-7.54 14.94-7.54 8.94 0 16.33 3.07 21.78 8.94 2.79 2.93 4.75 3.63 10.33 3.63 8.52 0 16.06-3.49 17.17-7.82 1.12-4.47 8.52-6.7 21.64-6.42 9.91.14 10.75 0 14.38-3.77 3.63-3.77 4.05-3.91 15.08-3.21 11.03.7 11.31.56 10.47-2.37-.98-4.05 2.37-7.12 8.24-7.12 9.08 0 15.78-3.91 19.55-11.31 3.63-7.26 5.45-7.96 11.45-4.89 2.09 1.12 6.42 2.37 9.35 2.93 3.07.56 9.21 2.23 13.68 3.77 6.84 2.37 10.61 2.65 25.13 2.09 17.31-.7 30.58-2.65 33.51-4.89 1.82-1.4 24.01 0 38.67 2.37 4.89.7 9.21 1.12 9.63.84.84-.98-2.79-4.89-4.75-4.89-.84 0-4.47-1.82-7.82-4.19-3.35-2.23-7.12-4.19-8.38-4.19s-3.35-1.26-4.75-2.79c-1.4-1.54-3.07-2.79-3.63-2.79s-7.54-3.07-15.5-6.84c-13.96-6.56-14.94-6.84-31.13-7.68-11.03-.7-17.87-1.82-19.96-3.07-1.82-1.26-4.33-2.37-5.58-2.65-12.57-2.93-18.15-5.17-20.94-8.66-6.7-7.96-26.53-51.66-29.6-65.34-.98-3.91-2.79-11.73-4.19-17.45-1.4-5.72-3.07-15.22-3.49-20.94-.56-5.72-1.68-12.98-2.37-16.06-1.4-5.17-2.37-25.27-2.51-50.26-.14-15.22-.28-37-.42-62.13 0-12.7.56-32.53 1.26-43.98.98-13.4.98-32.67.14-53.75-1.54-41.19-2.65-85.44-2.51-99.13.14-5.72.14-11.17.14-11.87-.14-.84-.7-24.29-1.4-52.36-1.82-72.88-3.63-96.2-9.77-131.24-2.51-14.52-2.65-14.38 2.93-16.89 2.65-1.4 11.17-8.94 18.57-16.75l13.68-14.38 6.7 2.37c7.4 2.65 16.2 3.07 21.5.98 5.17-1.95 12.98-14.52 16.89-27.22 7.68-25.41 9.91-38.53 11.17-66.32.84-17.73-1.26-21.5-30.58-55.85-8.24-9.63-17.59-20.94-20.8-25.13-3.07-4.19-11.73-13.4-18.99-20.52-7.4-7.12-13.82-13.4-14.38-13.96-.7-.56-4.61-4.75-8.8-9.22-4.33-4.61-9.35-10.61-11.31-13.54-5.03-7.68-11.59-10.75-18.57-8.94-4.19 1.12-6.56 1.12-9.77-.28-2.23-.98-7.26-2.23-10.89-2.79-11.17-1.54-12.43-2.51-13.54-9.08-.84-5.17-.56-6.42 2.93-9.91 1.95-2.09 4.89-3.91 6.14-3.91 1.4 0 4.19-1.54 6.42-3.35 3.49-2.93 3.77-4.05 3.49-11.45-.14-4.33-.98-8.8-1.68-9.63-.84-1.12-.7-2.51.7-4.33 2.93-3.91 2.51-6.14-1.68-10.61-2.79-2.93-3.21-4.19-2.09-5.72.84-.98 1.82-7.12 2.09-13.4.56-10.89 1.68-13.96 5.58-14.1.56 0 .98-1.26.98-2.65 0-1.54.7-3.21 1.4-3.63.84-.42 1.4-2.37 1.4-4.33 0-4.05-8.24-20.1-10.75-21.08-.98-.42-1.82-1.54-1.82-2.51 0-1.12-1.82-3.21-4.05-4.75-2.23-1.68-6-6.84-8.24-11.73-2.37-4.75-6.14-10.89-8.52-13.54-2.37-2.65-4.33-5.72-4.33-6.7 0-.84-.56-1.68-1.26-1.68-.56 0-3.49-1.54-6.28-3.49-2.79-1.95-7.82-3.91-11.03-4.33-3.21-.56-8.38-2.09-11.31-3.49-3.07-1.54-6.28-2.65-7.26-2.65s-3.49-.84-5.72-1.95c-2.09-1.12-5.45-2.65-7.4-3.35s-5.31-2.09-7.4-2.93c-5.86-2.37-10.75-1.68-18.29 2.65ZM512.38 305.5c6.98 4.61 16.06 12.01 20.1 16.47 6.14 6.56 8.1 10.05 11.31 20.1 2.23 6.7 5.45 13.96 7.4 16.2 3.21 3.91 4.05 4.19 10.33 3.35 9.21-1.12 9.77.98 4.05 12.29-5.17 10.33-8.8 15.5-18.99 26.95-9.77 10.89-9.77 17.45.14 20.94 3.35 1.12 2.37 6.28-3.63 19.27-5.17 11.31-6.84 11.73-17.03 4.19-6.84-5.17-14.38-9.91-26.53-16.75-8.38-4.75-14.38-11.03-19.96-21.08-4.19-7.4-5.17-10.61-5.72-19.27-.56-9.08-.28-10.89 2.37-14.38 1.54-2.23 2.93-5.58 2.93-7.54 0-3.35 8.1-21.5 11.45-25.83 7.54-9.21 9.49-20.38 6.14-33.51-2.79-10.75-2.79-9.91.28-9.91 1.4 0 8.38 3.77 15.36 8.52Zm-172.85 66.73c0 1.4 1.68 3.63 3.63 5.03 4.61 2.93 19.96 34.21 19.41 39.51-.14 2.09-1.95 10.33-3.91 18.43-1.95 8.1-4.75 19.69-6 25.83-1.26 6.14-2.79 12.15-3.49 13.26-1.95 3.91-16.75 51.38-22.34 71.9-8.24 30.3-8.94 31.27-17.45 22.06-4.75-5.03-5.03-5.58-4.19-12.98.98-9.35 2.65-18.01 5.45-27.22 1.54-5.58 4.05-9.07 13.26-18.15 10.75-10.75 11.17-11.59 12.15-19.27 1.26-9.49-1.54-55.15-3.63-63.11-.98-3.07-1.68-13.4-1.82-23.04-.14-15.5.56-21.22 4.19-33.23.84-2.65 4.75-1.95 4.75.98Z"/></svg>