<svg xmlns="http://www.w3.org/2000/svg" viewBox="0 0 850 1250"><path fill="#fff" d="M464.7 27.12h3.73c10.7-.03 20.7 4.45 29 10.93 9.09 3.81 16.75 10.68 20.76 19.74 6.76 5.58 11.39 14.03 10.91 22.82 12.72 16.63 9.65 38.15 8.58 57.21-10.41 24.48-29.84 45.3-39.52 68.48-2.45 6.02-.05-1.22-.81-3.11 10.39-24.99 33.81-44.52 38.13-71.96-8.3 29.47-32.85 50.45-46.73 77.14-4.39 12.75-3.07 26.19 0 39.05 12.11 4.13 23.92 10.99 30.27 22.56 13.24 24.52 12.15 53.29 19.03 79.68 6.63 24.83 16.53 48.65 24.29 73.1 2.18 18.26 15.92 31.37 23.72 47.25 13.5 27.38 24.35 56.05 40.05 82.33 13.24 21.85 23.38 45.45 31.62 69.55v6.57c-3.27 16.46-7.44 35.06-23.8 43.61-2.73-.09-4.08-3.6-3.62-6.1-3.42 3.89-12.46 7.58-10.72-1.39 5.11-5.44 10.8-10.72 14.5-17.43-6.19 5.54-9.91 13.81-17.7 17.51-3.35.2-4.8-4.02-3.33-6.65 3.29-6.42 9.76-10.65 12.31-17.55-3.14 3.8-5.91 8.86-10.82 10.64-4.76-1.67-1.79-7.48.32-10.18 8.39-11.62 3.67-27.06-3.31-38.15-5.24-8.5.27-19.86-7.22-27.35-29.96-38.76-66.82-73.63-85.92-119.58-10.62-39.15-36.48-74.54-33.68-116.73-6.31 14.88-12.91 33.46-16.95 50.46-5.81 16.44-4.58 36.39 7.9 49.51 15.82 15.55 32.87 29.8 49.36 44.62 20.99 18.07 37.22 42.32 43.39 69.52 6.12 20.18 4 42.66 14.11 61.6 6.96 15.05 4.05 39.98-16.38 41.65-3.32 62.36-21.24 124.03-13.18 186.71 3.83 19.94 10.56 39.59 9.48 60.19-1.5 59.55-31.33 115.89-25.07 175.99-2.87 36.97 16.07 73.27 8.22 110.13-9.36 23.91-49.53 18.06-57.17-3.78-.46-14.56.78-29.3 4.54-43.41 4.19-17.94.11-36.73 4.79-54.48-2.13-18.87 6.4-36.94 3.79-55.93 2.39-46.54-11.57-91.99-9.32-138.44.71-12.41 2.85-25.21-.87-37.36-7.72-24.96-4.08-51.72-12.77-76.46-6.41-35.47-8.76-71.6-17.69-106.63-7.53 1.85-15.6 3.07-22.76 5.33-10.71 27.26-18.19 55.71-29.63 82.72-7.49 20.73-21.22 38.84-27.05 60.18-5.5 24.69 7.43 47.17 20.41 66.9 19.07 30.17 22.41 66.74 22.85 101.57 3.31 35.16-1.68 72.43 13.33 105.52.37 2.82 3.43-1.03 4.08 1.6 4.42 10.16 15.56 15.83 18.44 26.74 6.04 19.12-.11 39.68 6.19 58.74 1.62 3.39-3.83 4.09-5.59 3.37-3.14-10.94-5.15-22.35-7.59-33.51-.01-1.68-1.7-2.41-3.11-1.73-24.65 10.79-44 30.84-58.44 53.2-9.11 14.98-28.4 15.42-43.73 18.24h-19.38c-7.71-.88-15.14-8.95-13.43-16.79 13.37-13.29 33.08-17.45 47.9-28.8 8.45-14.69 13.53-30.91 20.62-46.24 5.63-11.46 6.03-24.82 3.83-37.2-9.75-60.41-37.47-115.76-54.34-174.21-8.15-35.24-35.63-65.4-31.43-103.09 8.31-51.18 6.79-103.73 19.64-154.2 3.46-8.37-12.7-4.98-10.55-13.65 14.02-17.51 24.65-37.71 31.97-58.88 1.87-6.29 3.78-13.62.47-19.76-7.46-16.09-12.91-32.97-16.55-50.32-12.77-38.61-24.93-77.46-36.23-116.53-3.39-6.09-10.17-9.33-13.94-15.19-10.76-14.37-11.43-34.11-5.7-50.64 6.15-16.47 10.49-33.56 16.06-50.2 9.13-15.88 11.12-34.58 13.36-52.45 2.5-11.12-7.63-18.7-14-26.17-35.99-32.29-70.37-69.09-87.32-115.25v-6.02c2.29-7.32 8.48-12.15 14.85-15.9 20.35-14.69 45.88-19.51 70.49-20.82 11.79.14 23.65-1.23 34.82-5.14 16.28-.55 28.42 12.24 41.24 20.05-1.14-5.82-1.55-13.39 1.62-18.42 8.67 4.04 13.49 12.78 16.26 21.52 18.17-19.82 44.53-44.35 74.52-36.67 4.29.54 7.51-3.03 11.57-3.77M307.82 83.62c-17.22 2.55-31.18 13.31-45.67 21.92 15.56 17.07 28.8 36.84 48.13 49.99 18.43 10.37 34.66 24.15 49.09 39.53-6.75-15.42-10.39-32.31-7.24-49.1-3.5 3.48-1.51 11.31-3.44 14.81-1.82-12.45 6.48-22.77 7.63-34.79-3.97 5.18-4.55 13.84-6.98 19.34.47-14.03 7.49-26.33 12.18-39.14-21.12 5.97-35.4-18.18-53.7-22.56Z"/></svg>