<svg xmlns="http://www.w3.org/2000/svg" viewBox="0 0 850 1250"><path fill="#fff" d="M601 1191.51c-.4-5.5-4.3-17-7.1-30.8s-6.3-35.1-5.9-44.2c.4-9.1.8-14.2-2.1-20.9s-1.1-24.5-1.1-46.2 2.4-87.6 0-107.7c-2.4-20.1-11.8-46.6-16.2-57.2-4.3-10.7-2-20.9-3.6-29.6s-4.3-17.8-5.5-24.5-.8-15.4 0-26.8 0-39.5 0-39.5l1.6-1.6s-.4-15.4-1.6-28.8c0 0-.3-8.8-.6-17.4 4.9-4.3 12.6-12.8 14.8-15 2.4-2.4 8.3-3.9 9.9-5.9 1.6-2 9.5-25.6 10.3-29.6.8-3.9-2.8-21.3-2.8-21.3l2.4.8s-2-22.9-1.2-25.2 1.2-9.9 1.6-14.3c.4-4.3-5.5-14.6-5.5-14.6s-2-24.9-3.2-41-2.8-79.7-5.5-91.9c-2.8-12.2-5.1-29.2-4.7-42.6.4-13.4 3.2-44.6 5.9-77.3 2.8-32.7 5.9-77.7 2.4-87.2-3.6-9.5-17.4-17-28.4-20.1-11-3.2-32.9-6.9-32.9-6.9-2.6-3.7-5-9-7-15 .8-10.2 1.3-26.3-.8-40.5-3.2-21.3-12.6-47.3-12.6-47.3s-.8-12.2-3.9-22.5c-3.1-10.3-3.6-32.7-20.9-51.3-17.5-18.4-34.1-21.2-45.1-20.4-11 .8-18.5 5.5-28 12.2-9.5 6.7-13.4 9.5-17 16.6s-10.3 35.5-13.8 49.7-2.8 22.9 0 36.7c2.8 13.8 0 42.2 0 61.6s-.4 38.3-.4 38.3-20.9 12.2-29.6 16.2c-8.7 3.9-8.3 3.6-18.5 12.2-10.3 8.7-9.9 15.8-11 30.4-1.2 14.6-2.4 40.2.8 63.1s-3.6 80.9-4.7 91.1c-1.2 10.3-6.3 19.3-12.2 36.7-5.9 17.4-8.7 38.3-13 59.2s-11.8 50.1-11.8 56-7.5 16.6-8.3 20.1c-.8 3.6-2.4 13.4-4.3 17-2 3.6-2.4 16.2-2.4 16.2s2 0 2 1.6-9.5 27.6-9.9 30.4c-.4 2.8 4.3 7.5 5.5 11 1.2 3.6 3.9 18.2 6.3 21.3 2.4 3.2 11.8 9.1 14.2 11 1.6 1.3 3.7 1 6.1.3l-1.7 11.5s11.8 3.2 17.8 5.9c5.9 2.8 32 8.3 32 8.3s6.7 45 9.5 69c2.8 24.1 1.2 46.2 2.4 80.9s16.6 94.7 29.2 132.6c12.6 37.9 17 54.1 17.8 60.4s-1.2 15.8 1.2 20.9 3.6 10.3 2.4 20.9c-1.2 10.7-8.3 34.3-10.7 42.6-2.4 8.3 2 21.3 3.6 24.5s8.7 8.3 27.2 8.5 25.3-9.6 25.3-9.6.8-8.3-.4-22.9 0-24.9 0-36.7 3.2-15 3.6-22.9c.4-7.9-3.6-13-6.7-20.1-3.2-7.1-5.5-11-7.5-13.4s-6.3-9.5-11.4-28-2-44.2-2.4-82.9-4.7-39.8-8.8-72.6.1-47.7 2.1-59.6-1.2-24.1-2-43 2-47.3 2-47.3 37.1 0 47 1.2 22.5 4.7 22.5 4.7 15 52.9 19.7 75.4 6.7 26.8 11.8 41 6.7 27.2 7.5 49.3 5.9 40.2 15.4 66.3c9.5 26 18.5 69.4 20.5 78.1s-.4 17-1.6 21.7c-1.2 4.7.4 8.7-.8 12.6s-6.3 13.8-5.4 21.3c.9 7.5 3.8 12.6 4.2 20.9s0 15.4-2.8 24.9-.8 17.8 0 26.8c.8 9.1 5.9 9.5 17.4 12.2 11.4 2.8 22.5 3.9 32 0 8.9-3.9 7.8-22.4 7.4-28Zm-324-486.9c-1.8-2.4-4.2-5.8-3.9-7.8.4-3.2 3.9-9.9 3.9-9.9v17.7Zm16.4-47.7c-1.9-6.6-2.9-13.9-1.8-14.1 1.6-.4 5.5-10.7 5.5-10.7l-3.7 24.8Zm68.8-218c-2 16.4-6.3 21.5-6.3 21.5l3.2-43s5.1 5.2 3.1 21.5Zm140.9-294.9s.4-3.6 6.3 14.2c3.6 10.8 4.1 32.5 4.2 46.9-7.6-25.4-10.5-61.1-10.5-61.1Zm48.4 489.8c-3.3-23-10.4-67.1-14.5-87-5.1-24.5-24.9-63.1-27.2-67.9-2.4-4.7-2.4-18.5-2.4-18.5l7.1-5.9-5.9-9.1s2.4-9.5 3.9-14.6c1.6-5.1 17.8-60.8 17.8-60.8s.8 2.4.8 14.6.8 43.8-1.2 65.5 2 17.4 6.3 37.5 13 50.5 12.6 62.3c-.4 11.8 4.3 25.6 5.5 31.6 1.2 5.9-.8 18.1-.8 21.3s4.3 6.3 4.3 6.3-.8 2.8-1.6 4.3c-.8 1.6 1.6 6.8 1.6 6.8s-2 5.5-5.9 12.6c0 .3-.2.7-.4 1Zm6 58.3c3.7-5.6 1.2-12.8 1.6-17 .4-4.7 2.4-10.3 3.2-9.1s5.1-1.6 3.6 2.8c-1.6 4.3 1.2 14.6.4 17s-5.1 7.5-5.1 7.5l2 2.8s-2.3 2.3-5.1 2.4c-.2-1.9-.4-4.1-.6-6.4Z"/></svg>