<svg xmlns="http://www.w3.org/2000/svg" viewBox="0 0 850 1250"><path fill="#fff" d="M466.93 27.82c-15.66 1.45-31.72 10.54-37.85 25.54-18.09 21.05-26.17 48.37-32.01 74.96-3.51 18.38-7.2 37.27-3.34 55.91-3.7 13.66 1.39 26.72 7.6 38.63-13.02 8.59-29.85 5.55-42.96 13.84-9.79 4.43-13.4 14.87-20.36 22.11-6.35 20.73-11.87 41.76-18.5 62.45-7.46 21.41 3.67 42.53 6.74 63.63 7.84 21.04-2.12 42.36-1.76 64.16.16 32.55 4.66 64.86 6.74 97.29-.27 26.6 7.69 52.2 12.32 78.16-.26 18.72-.7 37.49-1.64 56.22 1.23-.14 2.46-.35 3.7-.47-3.48 27.06-6.11 54.21-9.09 81.32-4.73 25.18-11.31 50.08-19.74 74.27-8.56 20.74-22.31 38.88-30.68 59.72-13.22 33.46-15.81 69.73-22.16 104.84-5.68 29.43-7.3 60.89-23.34 87.1-4.25 5.87-.84 13.29-3.54 19.54-8.58 26.56-9.02 55.48-17.99 81.61v13.23c.81 9.81 10.12 15.05 17.52 19.85h5.79c12.95-4.03 34.45-4.08 35.62-21.49 2.04-47.63-5.97-98.67 16.41-142.82 17.14-33.74 29.84-69.79 50.31-101.79 15.67-27.34 12.89-61.44 30.8-87.59 20-31.1 24.93-68.71 39.95-102.12 11.48-33.02 33.56-61.5 43.42-95.06 4.23-9.51 8.16-19.16 12.31-28.69 10.02.94 20 2.55 30.13 1.91-1 19.68 5.58 38.54 8.77 57.73 9.07 41.46 4.02 84.5 10.94 126.12 13.2 30.31-.18 63.63 8.47 94.86 6.99 23.35 9.13 47.69 13.01 71.66 2.81 22.16 8.22 44.54 4.04 66.91-.9 34.14 3.74 68.19 3.67 102.47-.18 16.93 20.74 17.49 32.94 20.41 18.57.41 29.97-22.83 19.48-37.76-4.01-23.4-9.86-46.53-16.62-69.31.2-6.42 1.84-12.97.09-19.34-5.52-23.95 1.42-48.22 3.97-72.09 3.87-36.03 13.4-72.06 8.63-108.48-3.32-23.5-13.53-46.03-11.62-70.19-1.32-47.99 13.51-94 20.51-141 4.1-15.14 13.32-28.62 17.18-43.88 1.07-12.69 5.47-24.56 6.13-37.26V570.8c-12.08-40.93-15.67-83.8-25.17-125.32-3.82-16.52-17.39-32.79-10.9-49.8.93-19.61 9.87-38.3 8.3-58.05-3.37-20.42-14.29-38.49-20.03-58.23-5.73-22.87-25.09-43.12-49.71-44.28 1.84-11.98-1.38-24.07-.29-36.05 3.29 7.3.67 20.02 6.41 23.63 1.35-7.66 6.67-14.56 11.32-21.07.29-28.94-1.32-59.37-12.24-86.3 2.32-6.49 1.37-14.58-4.76-18.61-2.53-7.63-.45-16.27-2.97-24.07-3.01-13.15-14.46-21.41-21.87-31.94-10.33-7.46-22.97-11.17-35.52-12.88h-6.55Zm67.13 332.15c3.24 11.16 6.31 22.82 9.57 34.14-.09 8.8 1.87 17.82 6.39 25.41 3.01 12.81 2.84 26.15 6.28 38.88.36 1.49-1.45-.19-1.54-.77-3.73-11.87-15.18-19.29-19.05-31.15-6.5-21.7-.75-46.23-1.66-66.52Zm-160.55 46.86c7.07 22.61 19.13 44.72 16.24 69.22-3.26 21.6-2.35 43.68-9.25 64.66-8.87 8.34-13.94 21.36-18.43 30.89-6.84-45.45 12-90.83 8.78-136.64-1.45-9.5.73-18.89 2.65-28.13Z"/></svg>