<svg xmlns="http://www.w3.org/2000/svg" viewBox="0 0 850 1250"><path fill="#fff" d="m598.73 660.85-12.95-28.13-2.5-12.16c-.65-4.34-.66-93.98-.66-93.98 3.03-41.29-8.28-89.78-8.28-89.78-4.81-22.33-2.24-77.76-2.24-77.76 3.82-39.32 1.62-81.34 1.62-81.34-1.16-28.38-47.25-39.23-47.25-39.23-14.77-6.47-43.02-27.96-43.02-27.96-6.74-9.16-4.33-30.96-4.33-30.96 6.08-6.97 8.37-26.06 8.37-26.06.8 2.33 3.86 2.2 3.86 2.2l-1.36 7.13c-5.03.91-1.93 10.58-1.93 10.58-7.5 15.52-1.82 30.51-1.82 30.51 13.32-11.75 9.27-30.1 9.27-30.1 4.19-4.18-.48-11.78-.48-11.78l.59-5.8c6.77-4.64 2.82-11.91 2.82-11.91 1.25-1.11 2.71-8.6 2.71-8.6 7.36-27.67-3.96-21.78-3.96-21.78s14.76-34.1-7.28-62.57c0 0 2.27-10.83-11.65-19.46 0 0-33.63-20.56-49.22 2.02 0 0-42.35 14.24-35.56 56.19l2.01 20.21s-9.55-5.62-5.85 18.52c0 0-.75 10.53 1.98 13.72 0 0-3.85 9.59 2.43 10.4l.21 5.06s-6.38 2.62-4.47 11.74c0 0-3.61 18.43 9.58 26.62 0 0 7.65-9.04 5.73-21.47l4.48 8.66s1.74 19.51-11.14 27.47c0 0-26.21 16.76-34.66 17.7-41.45 4.65-45.94 13.09-45.94 13.09-15.73 10.43-15.16 35.89-15.16 35.89-1.38 15.27-3.7 65.26-3.7 65.26-2.11 8.93-7.43 57.63-7.43 57.63-3.06 20.41-7.86 35.59-7.86 35.59-9.39 21.38-14.3 56.85-14.3 56.85-1.57 22.12-9.94 71.3-9.94 71.3-2.89 12.86-4.61 20-4.61 20l-17.98 21.85c-4.03 2.29.57 13.9.57 13.9l4.72 14.43c3.58 12.47 8.96 14.26 8.96 14.26l14.33 1.3c13.3 5 6.86.43 6.86.43 2.69-.58 1.64-3.13 1.64-3.13l6.59-.27c10.55-1.73 4.4-4.78 4.4-4.78-.07-4.48-14.1-7.21-14.1-7.21 4.5-2.54 4-14.67 4-14.67 1.73-3.73 2.07-7.04 2.07-7.04 11.84-13.34 5.23-30.65 5.23-30.65-2.6-5.91 40.78-98.75 40.78-98.75 10.13-23.42 10.86-34.42 10.86-34.42.26-5.08.8-38.13.8-38.13s.89-10.06 3.03-15.22c0 0-1.19 19.98 5.78 17.34 0 0-5.19 14.37.53 12.84 0 0 2.86 3.66-1.3 8.55 0 0-9.57 13.96 8.34 13.46 0 0-3.06 8.85 4 5.62 0 0 3.3 5.64-7.34 10.8 0 0 1.38 7.73 11.44-.11 0 0-3.64 17.72-8.13 23.33l-6.79 18.44c-5.82 13.45-6.49 57.59-6.49 57.59-6 9.09-1.63 20.59-1.63 20.59 3.2 6.24 4.39 12.09 4.39 12.09-9.71 24.93 7.39 85.33 7.39 85.33l15.01 43.97c3.39 22.39 8.12 19.72 8.12 19.72l7.32 23.17c10.73 23.03 6.23 31.12 6.23 31.12 4.01 2.78 5.42-.22 5.42-.22-.82 2.98 5.93 49.65 5.93 49.65 3.36 21.45-.97 36.72-.97 36.72-11.51 41.64 25.91 131.64 25.91 131.64l-1.86 35.34c-1.28 17.63-8.59 40.93-8.59 40.93-4.2 4.06-3.86 12.43-3.86 12.43-.23 5.91-3.35 13.35-3.35 13.35-5.9 11.45-7.92 34.06-7.92 34.06-.03 10.74-6.92 35.55-6.92 35.55-3.5 21.14 3.45 29.58 3.45 29.58l1.51 5.13c18.76 5.84 48.22-.68 48.22-.68l2.86-7.9c8.06-7.64 2.86-25.24 2.86-25.24l10.29.64c34.86 1.52 28.62-41.28 28.62-41.28-2.3-21.49-12.69-50.67-12.69-50.67l-1.92-15.14c4.25-19.99-2.46-31.39-2.46-31.39-1.71-7.24-1.79-9.24-1.79-9.24l3.95-12.9c21.62-65.52 30.32-109.4 30.32-109.4 3.94-7.47 1.38-75.9 1.38-75.9 4.83-20.25 5.98-32.56 5.98-32.56 2.51-10.84 14.17-48.59 14.17-48.59 2.85 9.2 10.3.99 10.3.99 4.66 7.12 8.79-1.3 8.79-1.3l5.58 3.66c7.91 3.1 7.55-54.69 7.55-54.69 3.02 1.76 3.54-14.3 3.54-14.3s2.23 14.06 6.94 13.87c0 0 1.3-.05 4.92-3.62 0 0 12.09-1.56 15.62-7.36l9.65-20.68s7.2-5.6 2.85-19.7ZM528.26 397.4l.37 14.73-4.12.17c2.32-3.87-2.55-7.56-2.55-7.56 4.36-.18 6.31-7.34 6.31-7.34Zm3.13 70.76c-6.96-5.85-7.57-20.57-7.57-20.57 4.74.51 2.42-7.06 2.42-7.06 4.2-3.95 3.82-4.64 3.82-4.64l1.65-.07c-.1 6.26-.33 32.33-.33 32.33Zm47.25 217.81-7.65.31c-2.1-2.39-.65-10.24-.65-10.24 10.06.89 8.31 9.92 8.31 9.92Z"/></svg>