<svg xmlns="http://www.w3.org/2000/svg" viewBox="0 0 850 1250"><path fill="#fff" fill-rule="evenodd" d="M480.72 36.58c-10.56.01-21.69 1.97-34.35 9.32-28.85 23.98-32.38 59.58-34.6 98.83 2.47 24.57 6.03 47.44-4.17 73.49-11.7 1.42-24.56 5.66-37.6 3.92-13.16-1.77-28.8.54-35.24 7.21-20.4 27.97-29.09 64.17-40.61 100.3-11.53 36.13-18.01 65.15-18.22 70.6-2.83 15.39-2.51 33.25 2.95 50.89 11.33 29.32 21.89 56.36 33.98 87.95.79 1.81-3.34 3.11-2.83 5.1s1.53 4.44 1.83 6.54c.31 2.09 1.54 4.43 1.7 6.54.16 2.12 3.58 4.21 3.68 6.28.2 4.13.72 8.09 1.09 11.57.35 3.46.94 6.44 2.03 8.64l10.12 14.39c1.57 2.4 7.54-.99 8.58.93 2.17 4.07 8.13 2.75 10.29.62 1.53-1.52 3.99 2.03 6.07 1.8 2.09-.21 4.15-.6 6.13-1.25-7.69 22.24-20 44.47-23.07 66.71-8.78 29.38-21.69 44.27-26.36 88.13-1.3 17.3-.07 34.6 0 51.89l-9.88 32.94L280 901.69c-19.57 58.62-20.55 113.74-24.72 174.61l-6.59 12.36v18.93c-3.64 30.03-16.39 58.76-20.53 88.73.83 2.15 1.18 4.75 3.06 6.7 3.02 3.11 8.17 5.46 11.77 8.47 4.47 3.09 9.69 2.36 14.92 1.66 54.03-16.43 20.05-34.21 27.03-52.83.98-17.36 1.37-34.58 13.18-51.07 2.31-9.33-1.25-18.67-3.3-28.01 5.88-43.68 48.11-124.8 50.24-134.25l15.66-65.07c16.14-20.59 23.3-52.18 32.94-80.72l43.65-86.48 21.31-51.73c9.84-.07 19-10.61 23.16-16.63l9.88.82c-.86 10.43.07 20.87 10.71 31.29l27.19 132.61 16.47 37.88 11.54 52.71 15.65 104.61 1.64 42-4.11 14.83.82 30.48-4.94 38.72-11.1 31.68c-1.36 4.76-.24 11.37 2.86 14.2 20.97 20.41 52.34-.35 55.72-11.59.63-18.29 1.25-32.22 4.12-50.52l-.54-35.66-2.47-4.94v-12.36l-3.3-18.12c4.08-41.75 10.1-82.84 9.89-126.02-.54-35.83-6.63-70.28-16.48-103.77-2.39-22.61-4.97-45.14-6.92-67.98-1.4-16.4-2.48-32.94-2.95-49.8 1.15-11.25 2.29-21.55 3.17-31.35 2.86-32.14 2.9-58.75-8.16-94.67l-2.43-6.59 4.95-3.29c3.65-.82 3.05 4.44 11.53-3.3 1.52 1.27 4.12.91 8.72-2.47 3.65-9.09 11.8-16.92 9.84-28.1-6.39-4.95-2.79-3.45-21.03-13.08-2.21-9.68.25-18.2.82-27.17.17-15.34-1.29-29.93-5.11-44.61-5.09-19.73-8.47-39.44-13-59.18-5.76-20.28-4.09-56.63-11.97-89.87-9.42-15.61-19.5-15.96-21.42-17.38l-11.08-31.12c3.56 6.11 6.41 12.23 10.71 18.33l-5.77-19.15c5.23 9.53 16.02 18.6 12.92 28.83 3.22-8.21-1.64-14.95-5.61-21.85 3.91 6.17 10.05 11.8 14.92 17.73-7.23-10.16-14.41-20.32-14.83-30.48l-4.94-24.71c3.06 7.81 2.43 15.63 9.65 23.44-4.6-8.91-1.76-17.82-2.24-26.75 1.76 9.07 3.58 18.13 9.89 27.19-6.47-12.36-6.92-24.71-9.06-37.06-2.43-8.59-5.1-17.18-6.13-25.77-1.33-11.18-.67-22.37-1.29-33.54l.83-42.84c-2.94-12.9-5.05-25.81-16.48-38.72-7.84-10.63-17.89-16.1-28.01-21.41-8-.74-15.89-1.91-24.11-1.91Zm69.42 210.28c.48 1.07 1.02 2.13 1.6 3.19-.6-1.05-1.15-2.11-1.6-3.19Zm-208.4 107.77c1.56 22.71.19 45.21 3.62 67.92 5.74 22.85 11.94 41.69 16.71 66.52.16 12.4 1.33 22.33-6.98 55.89l-4.83-13.46c-1.32-2.05-2.21-4.2-6.7-5.73-4.36-16.84-11.3-31.44-13.26-48.73-2.25-19.97-6.79-34.65-11.92-51.22 1.11-16.12 7.62-28.97 12.69-46.1l10.66-25.09Zm205.09 80.48 7.85 29.71c2.19 15.92 5.13 31.36 15.73 41.92l-6.7 17.77c.05-5.06.11-10.09-.59-15.14-3.01-7.45-6-12.83-9-17.16l-19.23-27.39c-1.85-2.04-4.76-4.67-8.16-7l-.87-7.26-1.76-7.29c10.68-.94 17.45-4.12 22.73-8.16Zm38.42 99.9 1.17 8.13-4.07 11.07-6.13-12.51 7-3.5 2.03-3.19Z"/></svg>