<svg xmlns="http://www.w3.org/2000/svg" viewBox="0 0 850 1250"><path fill="#fff" d="M423.22 25.37c-7.65 4.21-11.88 12.66-13.44 20.95-15.06 8.11-28.39 18.82-43 27.59-7.64 5.24-12.55 13.87-21.38 17.39-3.85 1.67-8.39 6.8-12.24 2.66 4.61-5.07 7.9-11.06 11.61-16.76 1.29.85 1.93 7.29 2.93 3.41 1.76-4.96-4.37-7.69-8.07-4.48-5.51 5.8-11.43 11.2-16.96 16.98-5.39 7.28-16.06 5.8-22.56 11.72-7.62 4.77-1.98 17.97-11.69 20.71-22.17 11.05-34.53 46.09-11.44 62.4-1.64 6.73.27 13.89 6.91 17.21.36 7.53-2.11 16.72 3.87 22.69 5.12 4.72-3.94 10.13-5.02 14.98-5.27 2.9-13.75-.48-14.79-7.03-3.69-10.79 3.52-20.24 8.93-28.82-8.68 8.32-14.04 20.55-13.55 32.65.61 8.12 7.15 14.36 15.22 14.61-.78 5.87-2.97 11.63-2.25 17.64 3.12 10.9 15.55 16.34 26.17 15.16-15.08 29.34-24.36 62.44-47.01 87.28-30.78 41.13-42.33 93.17-73.27 134.18-12.81 8.67-29.67 7.22-43.23 14.37-10.83 1.65-22.18 3.86-33.04 1.14-2.14-.87-4.47-.92-4.85 1.61v1.16c8.3 9.95 23.51 7.3 34.95 8.71-7.85 7.97-13.81 17.57-20.67 26.35 2.38 6.84 10.02.39 13.02-2.39 4.09 1.53 8.49.78 12.05-1.69-2.2 3.58-5.01 6.8-7 10.5 1.69 6.57 10.64 2.91 13.68-.49 9.21-10.55 20.18-19.52 32.24-26.63 5.24-1.21 11.17.36 15.98-2.68 19.85-17.2 28.7-42.84 45.11-62.82 16.91-23.64 41.25-41.87 53.24-68.92 6.23-12.69 10.64-26.58 20.22-37.31 4.94 3.16 15.19 4.61 12.09 13.06-3.43.35-7.35-2.35-10.19.62.36 9.73.19 20.22-2.11 29.37-38.66 26.11-56.94 70.62-76.32 111.16-12.36 36.42-37.34 66.23-59.33 97.09-8.41 8.32-13.67 19.36-23.28 26.52 4.56 7.39 12.91 11.52 20.78 14.6 19.45 9.04 39.56 17.89 61.13 20.06-1.65 2.93-6.44 6.13-2.88 9.53 11.52 7.04 24.73 10.99 38.16 12.93 5.63-1.26.23 6.9 6.33 5.6 15.79 1.64 31.69-.2 47.51-.54 8.84 29.49 16.2 59.9 16.39 90.84 1.49 11.61-9.37 18.83-13.63 28.49-19.13 33.63-6.53 73.73-5.91 110.03-2.06 26.77 5.03 55.09-4.9 80.77-2.83.52-6.45-2.03-9.69-2.23 1.57 3.54 5.87 5.29 7.39 8.58-3.08 7.81-7.07 15.33-9.25 23.52-5.05 26.85-25.13 51.03-19.25 79.53 1.19 13.26 7.85 29.92 23.1 31.23 12.43.17 21.86-10.68 26.04-21.45 8.28-23.55 9.48-48.73 15.76-72.78 1.95-9.6 5.66-19.26 3.5-29.19 4.29 1.58 8.29-1.84 12.18-3.21-3.06-2.09-7.12-1.22-10.61-1.82-.34-5.58-2.15-12.73 4.82-14.9 1.8-3.23-6.16 1.41-4.34-2.31 4.3-20.09 10.06-39.85 15.09-59.77 5.33-21.32 17.17-40.27 22.4-61.63 7.17-24.3 6.33-50.97 19.94-73.11 15.18-35.99 5.74-76.3 8.15-114.03 2.57.2 5.14.66 7.58 1.53.29 37.36-3.89 75.18 2.66 112.24 2.7 21.29-2.8 42.35-3.49 63.58-4.29 39.65 4.94 79.19 1.82 118.87-.86 25.43-.31 50.99-3.65 76.28 1.44 4.54-2.11 1.98-3.83 1.6 3.59 4.75.94 10.92-.03 16.14-3.19-.45-6.25-1.39-9.4-1.92 1.46 3.85 5.78 5.31 8.54 8.03-5.03 13.86-2.6 29.08-5.09 43.46-1 21.98-9.81 43.75-4.49 65.81 4.26 8.86 14.53 12.44 23.68 13.33h4.14c9.77-1.79 21.85-6.24 24.58-17 9.67-20.93 1.92-44.38 1.09-66.32 2.7-11.72.85-23.64-.74-35.33 2.86-2.4 6.54-3.63 9.66-5.66-1.31-2.86-6.9.58-9.62-.63-.17-5.02-.7-10.04-.56-15.04.34-1.85 3.6-4.86-.17-3.83.69-29.21 10.69-56.96 16.38-85.35 6.93-38.8 22.2-75.74 27.3-114.9 4.34-28.73-10.26-56.56-5.09-85.24 3.71-25.28 7.36-51.25 17.31-74.87 24.22-1.11 46.19-12.56 68.9-19.87 3.97-.57 1.51-4.91.77-7.39 11.87-5.45 6.09-25.49 17.99-32.75 21.4-11.04 46.06-17.87 62.95-35.9 4.58-3.95-.77-8.19-3.45-11.37 2.83-2.82 5.75-5.56 8.51-8.47 2.28 7.92 1.99 21.41 12.16 22.75 12.69-9.51-9.46-29.21 5.2-37.47 4.03-5.83 7.75 4.85 12.24 5.59 16.02 7.88 5.25 30.15 16.62 41.02 5.34 2.35 3.84-4.8 3.25-7.89 2.89 4.6 4.14 14.2 11.87 12.06.58-5.38-2.48-10.19-3.41-15.33 3.23 2.35 9.55 5.44 12.24.68v-.58c-10.97-9.55-20.25-21.76-22.24-36.63-1.32-12.63-13.38-19.57-19.09-30.02-7.63-9.59-11.29-21.25-15.19-32.64-18.89-37.82-33.17-77.76-52.85-115.19-9.33-19.3-27.97-31.88-37.48-51.08-11.38-21.3-26.75-40.35-36.12-62.75-4.52-11.49-12.53-21.2-17.44-32.44-.1-7.03-3.61-13.8-4.81-20.29 11.36-4.86 19.32-17.08 17.99-29.43-4.31-11.47-16.46-17.02-25.98-23.45 2.32-12.69 8.63-25.23 4.16-38.25-4.24-1.18-5.68 3.44-4.1 6.7-4.5-2.04-6.72-6.33-9.09-10.33 1.5 9.65-3.51-7.5-4.61-7.81.65 4.21 2.05 8.26 2.63 12.47-7.59-8.88.52-20.51-2.35-30.6-2.72-16.16-2.14-32.69-5.22-48.78 7.35-4.82 8.27-14.55 2.58-21.01-12.48-3.83-20.34-17.07-34.03-18.59-12.34.65-20.95-9.82-33.21-10.35h-10.9c-5.2 2.21-10.11 4.31-15.1 0h-1.71Zm-29.66 33.95c-8.21 7.67-20.04 18.51-30.05 26.82-4.83 2.79-5.65 9.81-11.56 11.06 6.9-7.53 10.1-18.63 19.78-23.53 8.09-3.49 14.36-9.86 21.83-14.36Zm-77.67 45.77c8.94 7.02-11.05 5.77-7.07 14.75-3.08 1.42-8.07-.07-11.33-2.12 4.1-6.41 11.39-10.14 18.4-12.64Zm18.16 6.47c.56.41-1.26 5.41-3.49 4.78-1-2.74 1.6-3.95 3.49-4.78Zm-5.95 3.23c4.51 3.05-8.05 7.84-7.9 3.24 2.4-1.54 5.29-2.11 7.9-3.24Zm-16.74.03c.45.21-1.23 3.66.17 5.14-2.14-.93-2.07-3.99-.17-5.14Zm-18.14 12.2c7.56 6.28-9.29 11.69-8.98 19 2.84 8.2-6.02 19.21 3.96 24.48-.32 2.3-4.56 4.21-5.8 6.66-10.64-1.29-13.55-14.76-13.83-23.68.06-14.12 14.15-20.48 24.66-26.47Zm34.41 1.84c3.7-.03-8.83 2.8-9.29.65 1.66-.11 4.98-.33 6.63-.44 1.27-.14 2.13-.21 2.66-.21Zm-.67 1.43c-1.63 3.1-12.95 13.12-13.7 1.59 3.33-.7 9.54-.82 13.7-1.59Zm-15.15 1.83c1.75-.21-.05 7.47-1.41 3.9-2.73-2.82 1.4 3.33-.29 3.55-2.14-2.62-3.15-6.67 1.3-7.3.15-.09.28-.14.4-.15Zm-6.55 3.87c3.5 4.55-.74 9.69 0 0Zm-1.78 1.02c2.75 5.14-2.9 5.13 0 0Zm-7.31 5.64c2.39.63 6.39.54 7.54 2.17-.65 9.31-11.05 7.55-17.59 9.07-2.69-5.07 6.95-8.73 10.05-11.24Zm16.41 4.34c1.49 2.98-1.12 8.67-4.67 10.35 1.95-3.27 3.33-6.81 4.67-10.35Zm-40.31 25.14c2.39 3.33 6.6 4.96 9.06 7.68-3.92-.93-7.93-3.64-9.06-7.68Zm1.14 4.62c2.02 1.92 4.85 2.9 6.53 5.19-2.83-.65-5.06-2.77-6.53-5.19Zm-3.17 2.56c2.65 2.28 5.73 4.27 7.7 7.21-3.39-1.18-5.7-4.38-7.7-7.21Zm2.52.04c2.06 1.61 4.61 2.77 6 5.09-2.54-.92-4.61-2.8-6-5.09Zm275.55 28.98c7.87 4.01 13.88 18.06 4.63 23.37 3.02-8.16-3.2-15.6-4.63-23.37Zm-279.4 32.98c3.26 2.26 6.94 3.84 10.97 3.96-2.9.96-9.44.1-10.97-3.96Zm51.55 3.46c.02 4.48-10.84 11.75-15.12 6.91 5.07-2.22 10.12-4.51 15.12-6.91Zm-53.29 2.21c3.17 3.17 7.41 4.29 11.54 5.38-2.91.79-10.31-1.06-11.54-5.38Zm253.44 79.53c7.8 9.58 13.46 20.6 20.01 31.02 9.94 16.47 23.36 30.53 32.83 47.32 6.88 13.16 13.71 26.41 21.93 38.8 24.57 33.94 59.65 62.14 71.11 104.06-25.02-29.62-50.86-59.2-81.11-83.72-16.4-19.99-32.87-39.95-49.37-59.85-7.21-9.23-10.17-20.73-14.41-31.46-7.37-.32-17.92 8.56-21.64-2.2 6.28-14.91 12.62-29.89 20.65-43.96Z"/></svg>