<svg xmlns="http://www.w3.org/2000/svg" viewBox="0 0 850 1250"><path fill="#fff" d="M349.45 398.98c.51 0 .92.88.89 2.3-.04 2.38.77 3.93 1.92 3.93.1 0 .19-.01.29-.03.09-.03.18-.04.26-.04.78 0 1.04 1.54 1.81 9.46.53 5.34 1.36 11.31 1.82 13.28.46 1.97.79 4.18.78 4.8 0 .56.2.91.44.91.05 0 .1-.01.15-.04.2-.12.36-.17.45-.17.34 0 .04.66-.78 1.46-.69.66-.96 2.25-1 5.38-.04 2.76-.45 5.45-1.09 6.85-.64 1.4-1.18 4.7-1.35 7.89-.17 3-.48 7.23-.7 9.31-.22 2.2-.12 3.86.18 3.99 1.34.45.09 9.75-1.4 10.89-.74.54-2.3 5.67-2.84 8.97-.27 1.77-.67 3.36-.98 3.54-.25.18-.7 1.52-.91 3.05-.27 1.53-.72 2.74-1.08 2.74-.3 0-.56.55-.57 1.16-.01.67-.27 1.35-.58 1.52-.8.48-3.76 8.83-4.23 11.95-.21 1.84-1.04 3.54-2.22 4.87-1.56 1.75-1.88 2.67-1.92 5.37-.03 2.08-.36 3.61-.98 4.16-1.06 1.03-1.2 2.13-1.4 10.96-.11 3.37-.48 7.11-.87 8.27-.23.67-.38 1.06-.49 1.06-.19 0-.21-1.28-.2-4.44.02-5.46 2.25-22.17 3.35-25.71 1.22-3.6 2.07-10.88 2.53-20.81.27-5.58.65-10.48.85-10.9.26-.73.2-16.56-.09-25.88-.17-4.85.7-13.3 1.59-15.61.32-.85.95-5.69 1.39-10.71.75-8.7 1.22-11.33 2.83-16.21.39-1.16.98-3.91 1.26-6.11 1.09-7.04 1.69-10.09 2.19-10.88.22-.34.46-.5.67-.5Zm77.65 286.88s.08.03.11.08c.18.19.23.74.04 1.17-.07.19-.14.27-.2.27-.1 0-.16-.23-.16-.65-.04-.53.07-.87.2-.87Zm45.57-661.61c-3.19 0-6.29.11-8.23.35-1.72.22-4.06.79-5.23 1.33-1.17.47-4.13 1.04-6.64 1.18-2.52.21-5.41.71-6.46 1.19-2.58 1.12-9.32 3.21-10.4 3.21h-.01c-.75 0-8.22 4.41-9.1 5.38-.19.24-1.3.96-2.48 1.62-1.18.72-2.79 1.86-3.47 2.52-.75.66-2.42 1.62-3.65 2.09-1.23.53-2.41 1.43-2.61 2.04-.13.61-.88 1.52-1.63 2-2.97 1.92-11.01 10.07-11.03 11.23-.01.67-.7 1.52-1.5 1.94-.8.42-2.12 2.17-2.94 3.94-.82 1.7-1.71 3.16-1.95 3.28-.31.12-.5.73-.51 1.4 0 .61-.58 1.71-1.26 2.37-.69.66-1.25 1.64-1.26 2.19 0 .49-.33 1.53-.77 2.26-1.13 1.94-2.42 5.42-2.43 6.65 0 .61-.26 1.1-.56 1.1-.49 0-1.25 1.35-4.1 7.42-.57 1.22-1.03 3.17-1.05 4.4-.02 1.22-.28 2.2-.64 2.2-.31 0-.62.67-.63 1.52-.01.86-.4 2.2-.9 2.93s-1.21 2.86-1.67 4.7c-.4 1.83-1.05 4.22-1.37 5.25-.32 1.04-.59 2.57-.61 3.49-.01.92-.27 1.65-.63 1.65-.31 0-.63 1.34-.66 3.06-.03 1.65-.29 3.06-.6 3.06s-.68.48-.87 1.03c-.19.61-1.22 3.42-2.31 6.28-1.09 2.87-1.99 5.92-2.01 6.84-.01.86-.21 1.71-.46 1.83-.93.35-5.23 9.06-5.26 10.53-.01.86-.27 1.52-.57 1.52-.55 0-3.89 9.38-3.91 10.98 0 .55-.26 1.22-.58 1.52-.37.36-.98 3.66-1.47 7.46-.77 6.18-.97 6.85-2.13 7.02-1.04.11-1.36.78-1.77 3.1-.27 1.65-.91 3.48-1.41 4.03-.56.6-1.01 1.52-1.01 2.07 0 .55-.26 1.03-.62 1.03-.3 0-.61.3-.62.6 0 .37-.64 1.46-1.33 2.43-1.19 1.51-1.32 2.25-1.01 5.63.26 3.19.12 4.17-.76 5.26-3 3.76-5.24 5.56-9.32 7.64-2.47 1.25-4.52 2.5-4.52 2.75 0 .18-.81.72-1.73 1.08-3.02 1.24-11.95 11.04-11.98 13.24 0 .43-.25.73-.5.73-.62 0-3.91 7.11-3.93 8.4 0 .43-.84 2.56-1.92 4.81-1.02 2.19-1.91 4.39-1.92 4.81 0 .49-.25.85-.62.85-.31 0-.62.55-.63 1.22-.01.67-.41 2.81-.93 4.77-.52 1.89-1.25 5.13-1.65 7.15-1.01 5.44-2.47 12.59-5.76 27.2-1.59 7.27-3.07 15.71-3.3 18.96-.23 3.19-.76 9.25-1.13 13.47-1.11 11.88-1.68 48.24-.86 55.18.49 3.75.68 15.1.55 31.59-.1 14.17-.12 26.98-.08 28.52-.02 1.53-.32 4.96-.79 7.65-1.42 8.44-2.18 25.91-2.54 56.69-.19 19.81-.05 34.28.43 43.24 1.97 34.8 1.98 45.97.08 57.22-.61 3.55-.92 4.16-4.35 7.6l-3.74 3.74.37 3.99c.2 3.07.61 4.24 1.64 5.12 1.15 1 1.27 1.43.73 4.3-.33 1.77-1.31 5.38-2.21 8.06-1.94 6.1-3.09 17.25-2.45 23.57.27 2.52.44 7.12.45 10.13-.08 4.97.09 5.83 1.53 8 .84 1.36 1.8 2.6 2.04 2.79.3.19.9 1.36 1.43 2.66 1 2.47 1.66 3.4 5.52 7.81 1.45 1.56 2.77 3.48 2.94 4.22.17.8.65 1.42.96 1.43.98.02 2.18 1.57 2.4 3.17.11.77.5 1.37.91 1.37h.05c.03-.01.07-.02.1-.02.35 0 .77.53.92 1.26.51 2.46.09 21.4-.64 28.94-.82 9.13-2.91 21.3-3.65 21.78-.31.18-1.03 3.23-1.64 6.72-.55 3.49-1.33 6.54-1.7 6.78-.43.24-.79 3.73-1 9.31-.34 9.93-1.27 18.13-2.19 18.67-1.05.6-2.03 8.43-3.56 27.66-.38 4.59-1 8.88-1.38 9.48-.32.61-.84 2.75-1.06 4.71-.27 1.89-.73 3.48-1.03 3.48-.3 0-.56.61-.57 1.34-.01.74-.46 1.77-.96 2.32-.62.67-1.28 3.29-1.7 6.78-.42 3.31-1.53 7.83-2.62 10.69-1.02 2.68-1.86 5.37-1.87 5.86 0 .55-.4 1.77-.9 2.75-.5.91-1.41 4.15-2.01 7.21-.6 3-1.31 5.62-1.5 5.8-.74.54-1.95 3.28-2.42 5.48-.2 1.16-.79 3.24-1.24 4.58-.45 1.34-1.35 4.03-1.93 5.92-.64 1.95-1.4 3.53-1.65 3.53-.31 0-.56.79-.58 1.71-.02.98-.61 3.92-1.33 6.48-.91 3.48-2.71 16.46-2.77 20.32 0 .12-.35.23-.77.23h-.04c-.67 0-1 1.66-1.32 6.54-.62 8.02-2.07 18.54-2.56 18.54-.18 0-.42 3.12-.54 6.86-.24 7.23-.78 10.78-2.59 16.4-.58 1.83-1.38 5.8-1.67 8.87-.57 5.14-.99 8.14-3.74 27.36-.55 3.98-1.35 7.71-1.66 8.38-.38.67-.7 1.83-.72 2.63-.03 1.9-1.87 9.72-3.35 14.24-1.42 4.33-2.08 7.27-3.88 16.8-1.67 8.81-1.81 13.59-.43 15.82 1.38 2.39 5.42 6.13 6.48 6.13.04 0 .07 0 .1-.02.08-.03.18-.05.27-.05.41 0 .9.27 1.19.62.33.39.78.63 1.1.63.09 0 .17-.02.24-.06.06-.03.13-.05.21-.05.34 0 .85.3 1.19.81.35.5.68.81.83.81.05 0 .08-.04.08-.12 0-.06.03-.08.07-.08.16 0 .57.31 1.08.84.6.62 1.57 1.44 2.06 1.69 1.64 1.01 1.49 6.83-.32 8.83-.69.79-1.25 1.64-1.26 1.94 0 .24-.75.46-1.74.46h-.25c-1.4 0-1.71.35-2.27 2.23-.39 1.28-.73 3.24-.74 4.28-.02 1.1-.28 2.01-.58 2.01-.31 0-.75 1.16-1.02 2.56-.27 1.47-.93 4.28-1.45 6.29-3.58 13.19-4.96 26.72-3.54 34.41.45 2.64 1 6.88 1.2 9.4.2 2.82.72 5.04 1.26 5.72.72.87.95 2.16.78 4.98-.16 2.08.05 4.6.46 5.59.77 2.04 1.33 5.36 2.46 15.06.37 3.56.93 7.19 1.1 8.11.29 1.17.09 1.96-.66 2.75-.93.91-1.01 1.58-.64 5.33.27 2.4.44 7.37.44 11.11-.06 3.68-.05 7.05 0 7.48.16 1.23 4.2 1.91 12.05 2.15 4.11.13 7.41.48 7.53.79.14.4.67.6 1.23.6.64 0 1.33-.25 1.53-.74.13-.27.22-.41.28-.41s.09.14.09.42c.02.53.79.81 1.59.81s1.56-.25 1.78-.75c.16-.27.27-.41.37-.41s.21.14.36.42c.21.54 1.54.83 2.82.83 1.19 0 2.36-.24 2.57-.74.16-.27.27-.41.37-.41s.21.14.36.42c.23.55 2.18.84 4.04.84 1.51 0 2.96-.19 3.38-.6.24-.23.49-.35.79-.35.33 0 .73.14 1.24.44.51.28.93.43 1.24.43.25 0 .43-.09.54-.28.25-.36 4.43-.73 10.13-.82 5.34-.16 9.94-.4 10.31-.57.56-.36.48-7.23-.39-18.47-.35-4.79-.31-7.85.22-10.12 1.85-8.43 1.36-20.1-.85-20.13-.49 0-.97-.87-1.2-1.86-.17-1.05-.52-1.85-.83-1.85-.31 0-.54-.56-.53-1.23.01-.67-.23-1.23-.47-1.23-.43 0-2.47-6.48-2.45-7.89 0-.43-.36-.74-.85-.75s-.97-.87-1.13-2.04c-.44-3.13-1.8-6.59-2.53-6.6-.43 0-.94-2.96-1.28-8.18-.36-4.42-.94-10.62-1.38-13.64-.49-3.69-.57-6.63-.17-8.9.34-1.83.64-5.75.69-8.7.11-2.94.45-5.51.76-5.69.8-.48.95-9.74.26-12.45-.29-1.05-.94-2.41-1.37-2.9-1.87-2.18-2.29-2.8-1.86-2.85 2.77-.45 3.81-.55 5.28-.59 1.35-.04 2.22-.64 3.41-2.46 1.57-2.24 1.7-2.98 1.79-8.5.05-3.31.28-6 .58-6 .24 0 .44-.61.51-1.4 0-.51.1-.78.21-.78.05 0 .11.06.16.17.17.5.42.75.77.75.38 0 .88-.3 1.5-.9.68-.6 1.01-2.07 1.05-4.15.03-1.72.36-3.49.8-3.91.37-.36.92-4.03 1.24-8.81.7-9.43 2.07-18.37 3-18.97.31-.18.64-1.46.72-2.75.08-1.29.29-2.76.54-3.24.19-.49.72-2.69 1.06-4.89 1.76-10.46 3.54-18.71 4.5-20.72.63-1.22 2.46-4.38 4.1-7.05 2.96-4.8 5.27-11.32 7.25-20.12.53-2.32 1-4.89 1.01-5.69.01-.74.27-1.84.65-2.44.57-.97 3.95-9.63 5.88-15.06.45-1.34.96-2.56 1.15-2.74.62-.6 3.2-8.23 3.22-9.58.01-.74.27-1.47.58-1.65.25-.18.83-1.89 1.29-3.84.4-1.96 1.76-6.41 2.98-9.95 4.56-12.93 9.23-29.29 10.71-37.55.95-5.63 4.63-21.64 5.27-23.22 1.91-4.57 6.44-19.4 6.46-21.06 0-.61.4-1.83.9-2.75.51-.91 1.4-3.47 1.99-5.73.59-2.2 1.36-4.58 1.62-5.25.76-1.64 7.46-22.02 8.3-25.01.33-1.34.98-3.66 1.37-5.19.45-1.53 1.12-4.83 1.59-7.33.46-2.64 1.09-4.46 1.46-4.46h.02c.09.02.17.03.25.03 1.08 0 1.75-1.64 1.91-4.72.16-2.21.55-3.61 1.36-4.39.81-.78 1.14-2.01 1.18-4.83.04-2.7.09-3.43.7-3.43.17 0 .37.05.64.14.27.09.5.15.69.15.46 0 .73-.29.91-.98.19-.73.57-1.27.87-1.27.31 0 .56-.98.58-2.14.03-1.59-.21-2.15-1.01-2.22-.86-.01-.86-.14.19-.55 1.91-.71 2.04-1.13 2.25-6.65.13-4.6.2-4.94 1.45-4.94h.3c1.16 0 1.27-.27.99-1.52-.23-.92-.2-1.3.12-1.3.09 0 .2.03.33.08.06.02.12.04.18.04 1.06 0 2.24-3.71 2.78-8.64.35-3.16.61-3.9 1.45-3.9h.06c1.69 0 2.61-1.57 2.16-3.71-.24-1.07-.23-1.59.02-1.59.05 0 .11.02.18.06.16.1.3.16.44.16.67 0 1.05-1.51 1.69-6.32.95-6.95 1.09-7.89 2.05-7.89.09 0 .18 0 .28.02h.14c.65 0 1.04-.49 1.17-1.58.14-.86.89-2.26 1.64-3.04 2.62-2.53 5.21-7.95 6.78-14 1-3.9 1.78-5.96 2.18-5.96.2 0 .3.52.28 1.59-.01.91.13 1.34.52 1.34.11 0 .23-.03.38-.1.13-.04.24-.06.34-.06.45 0 .57.48.55 1.8-.04 2.46.38 3.76 1.13 3.76.09 0 .19-.02.29-.06.04-.01.08-.02.12-.02.91 0 1.41 3.82 1.31 10.16-.04 2.36.13 3.94.35 3.94.03 0 .05-.02.08-.07.01-.02.03-.03.04-.03.31 0 .76 4.48 1.02 10.47.33 6.57.8 11.3 1.17 11.43.3.13.6 1.11.58 2.16-.02 1.04.24 4.17.63 7 .6 4.55.52 6.08-.83 13.85-1.76 10.34-1.97 16.1-.74 23.48.73 4.37.74 7.31.26 14.66-.32 5.02-.66 11.09-.7 13.48.02 2.33-.06 8.03-.14 12.57-.07 4.54-.14 12.69-.1 18.09-.02 28.52-1.11 47.51-3.37 58.39-1.46 7.28-1.46 6.91-1.32 56.52.03 1.84-.32 8.76-.67 15.32-.5 8.21-.53 13.97-.1 18.4.31 3.56.63 10.44.68 15.34.13 7.42.4 9.7 1.63 13.52 2.69 8.51 6.69 27.03 6.63 30.77-.02 1.16.48 4.48 1.11 7.38 1.31 6.28 1.35 15.66.05 19.99-.52 1.65-1.11 4.03-1.31 5.25-.27 1.28-1.61 4.7-3 7.56-1.39 2.92-2.8 6.58-3.19 8.11-.39 1.53-1.86 5.18-3.25 8.11-1.33 2.86-2.74 6.89-3.14 8.84-.4 1.96-.99 4.77-1.39 6.3-1.9 7.58-2.79 13.88-2.97 21.42-.13 4.54-.47 10.17-.75 12.56-.64 5.39.15 21.9 1.35 27.62.45 2.34 1.1 7.87 1.34 12.29.3 4.36.76 10.07 1.09 12.59.39 2.52.62 7.61.56 11.35-.05 3.42.01 6 .18 6 .01 0 .03-.01.04-.04.16-.49.54-.71.92-.71.52 0 1.05.43 1.04 1.17-.02 1.29 3.76 2.57 7.87 2.64 1.41.02 2.51.28 2.5.65 0 .41.37.61.9.61.65 0 1.52-.3 2.18-.87.52-.47 1.09-.68 1.94-.68.47 0 1.01.06 1.69.18 1.35.27 2.5.65 2.5.96 0 .38.6.56 1.33.56.8 0 1.74-.22 2.16-.63.42-.4 4.18-.55 12.45-.55 2.86 0 6.26.02 10.25.05 4.1.05 7.71.07 10.8.07 7.61 0 12.01-.14 12.76-.44 1.3-.53 1.67-1.2 2.08-3.59.21-1.59.43-3.86.45-5.08.02-1.29.35-2.57.72-2.93.37-.36.9-2.56 1.12-4.83.22-2.33.75-4.59 1.24-5.01 1.25-1.27 1.1-3.79-.31-3.81-.92-.01-1.22-.63-1.48-3.09-.22-1.72-.19-3.38 0-3.68.19-.37.13-.61-.24-.62-.31 0-.72-1.12-.94-2.47-.22-1.35-.64-2.46-1-2.47-.86-.01-2.3-1.63-1.87-2.11.25-.18 0-.37-.55-.38-.67-.01-.79-.5-.58-1.85q.27-1.84-2.55-1.88c-2.7-.04-2.82-.11-2.79-1.88.03-1.66-.16-1.84-1.81-1.87h-.08c-1 0-1.76.29-1.77.71 0 .28-.05.42-.17.42s-.27-.13-.51-.37c-.36-.37-.53-1.17-.4-1.78.13-.67-.16-1.54-.71-1.91-.79-.69-.78-.87.02-1.41.81-.54.81-.6 0-.61-.74-.01-.91-.5-.7-2.22.21-1.41.04-2.39-.45-2.71-1.58-1.01-2.2-12.48-.9-16.88.58-1.83.55-3.98.01-8.71-.37-3.5-.88-6.33-1.19-6.34-.67-.01-.36-16.38.32-16.8.31-.24.76-1.77 1.03-3.42.27-1.71 1.17-4.34 1.99-5.86 1.89-3.4 1.9-3.77.19-4.47-1.34-.51-1.28-.57.88-1.46 1.23-.47 4.53-3.18 7.33-5.96 6.73-6.58 6.85-6.7 6.88-8.23.01-.74.58-1.83 1.26-2.37.68-.6 1.25-1.51 1.26-2.13 0-.61.32-1.09.69-1.09.42 0 .55-.61.45-1.53-.17-.86-.04-1.53.21-1.53.3 0 .56-.55.57-1.28.01-.74.7-1.83 1.51-2.43l1.55-1.14.56-23.85c.39-16.98.74-24.03 1.31-24.63.44-.55 1.08-6.24 1.65-15.55.49-8.09 1.22-14.95 1.53-15.31.31-.3.61-3.61.67-7.35.08-5.09.36-7.17 1.18-8.57.69-1.28 1.1-3.72 1.29-8.26.37-7.84.64-9.31 1.97-12.05.57-1.16.9-2.75.73-3.42-.4-1.6.93-12.5 1.76-14.2.26-.67.67-3.55.9-6.43.17-2.88.81-8.94 1.38-13.47.56-4.53 1.38-17.76 1.81-29.41.43-11.58.95-21.51 1.2-22.06.31-.49.81-8.33 1.13-17.46.42-10.91.81-16.61 1.24-16.72.43-.12.72-3.06.8-8.08.07-4.6.37-8.03.74-8.27.37-.18.66-3.06.72-6.49.06-3.62-.15-6.07-.52-6.08-.31 0-.61-.44-.6-.93 0-.49.32-.91.62-.91h.01c.37 0 .62-.61.63-1.28.01-.74.46-1.65 1.01-2.01.93-.66 1.5-5.62.78-6.92-.12-.25.19-4.47.76-9.37.57-4.9 1.09-10.84 1.25-13.17.34-6.07 1.16-11.27 1.84-11.62.31-.24.57-1.46.6-2.75.02-1.29.35-2.57.66-2.75.8-.48.87-4.77.03-5.64-.9-.93.03-6.3 1.08-6.3h.02c1.34 0 1.8-2.4 1.73-9.97 0-3.92.23-7.17.54-7.17.55 0 .75-1.41.76-5.94.04-2.58.3-3.31 1.35-3.84 1.11-.6 1.24-1.15 1.18-4.95-.07-3.25.13-4.41.81-4.89.68-.48.75-.72.2-.98-1.15-.45-.93-3.25.22-3.25h.04c.77 0 .89-.44.56-2.51-.22-1.41-.14-3.13.24-3.86.63-1.22 1.23-4.27 3.05-14.43.47-2.51 1.06-5.13 1.38-5.74.38-.79.33-1.28-.16-1.47-.43-.13-.72-.93-.71-1.79.01-.79.15-1.26.35-1.26.03 0 .07.01.1.04s.07.05.11.05c.54 0 1.95-2.43 1.97-3.57 0-.43.45-1.1.94-1.52 1.18-.96 1.28-3.66.18-3.68-.67-.01-.78-1.05-.54-4.79.16-2.57.64-5.75 1.03-6.98.39-1.22.54-3.06.37-4.1-.23-.98-.09-1.9.28-2.02.31-.12.64-1.89.68-4.04.09-2.08.37-3.79.67-3.79.31 0 .58-1.77.61-3.98.04-2.57.31-3.97.73-3.97.49 0 .62-.92.35-2.94-.22-1.6-.48-4.91-.56-7.37-.11-3.54-.01-4.3.66-4.3.06 0 .13 0 .2.02.06.01.12.02.17.02 1.16 0 1.65-2.54.49-3.26-.67-.44-.6-.68.14-1.16.43-.26.79-.4 1.09-.4.73 0 1.11.81 1.39 2.65.23 1.29.98 4.12 1.62 6.22.7 2.1 1.2 5.35 1.18 7.19-.03 1.84.19 3.5.49 3.69.91.57 1.28 4.44 1.18 10.93-.07 4.66.2 7.06 1.07 9.95.7 2.03 1.39 5.36 1.48 7.32.15 1.96.56 3.69.8 3.88.3.19.52 1.85.49 3.69-.04 2.39.19 3.31.81 3.32.8.01 1.57 1.25 1.55 2.54 0 .3-.42.54-.91.54h-.03c-.49 0-.92.54-.93 1.21-.01.67-.44 1.21-.93 1.21h-.03c-.48 0-.9.24-.91.6 0 .3-.88.58-1.89.58h-.41c-2.47 0-2.95.55-4.77 4.46-1.78 3.9-2.13 6.47-.99 8.33.6.93.59 1.6-.05 3.25-1.15 3.05-1.02 6.18.31 7.43.51.45.83.67 1.05.67.18 0 .3-.14.41-.41.06-.14.12-.21.18-.21.11 0 .19.29.18.83.03.86.17 1.18.66 1.18.18 0 .4-.04.68-.12.45-.14 1.02-.2 1.64-.2 2.21 0 5.03.78 5.02 1.6-.01.67.84.87 3.67.92h.59c2.25 0 3.09-.24 3.1-.81.01-.69 1.35-1.12 2.81-1.12.73 0 1.48.11 2.11.34.37.14.74.21 1.08.21.45 0 .85-.12 1.13-.36.29-.24.67-.38 1-.38.16 0 .3.03.42.09.04.04.1.05.16.05.39 0 1.12-.61 1.76-1.49.82-1.09 1.42-1.57 2.08-1.57.15 0 .3.02.46.07.22.09.44.14.62.14.32 0 .54-.13.55-.36 0-.31.63-.79 1.37-1.02.74-.17 2.23-1.13 3.22-2.1 1.05-.96 2.29-1.74 2.72-1.74.37 0 .73-.36.74-.85 0-.43 1-1.27 2.17-1.81 1.92-.89 2.17-1.25 2.33-3.58.02-1.41.11-3.06.06-3.68-.05-.55.32-1.03.8-1.03h.03c.72 0 1.09-.6.86-1.4 0-.06.7-1.52 1.58-3.23 1.96-3.71 1.96-3.77.63-5.26-.9-1.06-.9-1.12.02-1.17 1.53-.1 1.9-.22 2.77-.69.87-.6 1.15-6.54.23-6.56-.8-.01-.77-1.67.09-1.96.68-.23 1.77-3.65 2.32-7.38.21-1.35 0-3.43-.54-4.91-.47-1.42-1.05-3.45-1.28-4.44-.23-1.05-1-2.71-1.84-3.83-.78-1.05-1.44-2.29-1.43-2.6 0-.37-.23-1.17-.52-1.79-1.07-2.04-2.73-5.99-2.78-6.61-.06-.37-.11-.92-.16-1.29 0-.31-.59-1.24-1.32-1.98-.66-.81-1.85-3.16-2.55-5.31-.76-2.16-1.83-4.63-2.37-5.37-.54-.81-.95-2.22-.93-3.08.01-.92-.57-3.01-1.21-4.68-.77-1.73-1.28-4.56-1.36-6.83-.03-2.09-.24-4.05-.49-4.24-.18-.19-.35-.86-.34-1.48 0-.61-.63-2.65-1.4-4.44-1.66-3.71-3.41-9.5-4.43-14.6-.4-1.85-1.33-5.11-2.16-7.27-1.41-3.82-3.21-10.6-4.35-16.14-.28-1.54-.92-3.63-1.4-4.74-.47-1.05-1.34-4.62-1.96-8-.62-3.32-1.36-7.01-1.71-8.18-.99-3.63-3.43-16-4.38-22.02-.5-3.07-1.14-5.66-1.44-5.66-.31 0-.43-.25-.24-.49s.03-1.59-.26-2.95c-1.55-6.46-3.49-15.82-4.23-19.94-.96-5.47-5.31-21-6.1-21.81-.36-.37-.59-1.36-.58-2.22.01-.92-.52-2.28-1.18-3.09-.66-.81-1.2-1.8-1.19-2.23 0-.43-.29-.86-.66-.99-.3-.13-.77-1.42-.94-2.9-.22-1.9-.63-2.77-1.61-3.09-.73-.32-1.22-.69-1.09-.94.51-1.22 0-3.43-1.03-4.68-.66-.81-1.19-2.1-1.18-2.9.01-.74-.22-1.41-.59-1.42-.31 0-.9-1.18-1.31-2.66-.41-1.42-1.06-2.96-1.48-3.4-.42-.44-.89-1.73-1.12-2.9-.17-1.17-.58-2.16-.82-2.16-.25 0-.59-1.54-.8-3.51-.21-2.09-.74-3.75-1.34-4.19-.67-.5-1.01-1.86-1.1-4.31-.03-1.96-.43-3.75-.8-4-.43-.25-.88-2.41-1.03-4.98-.08-2.52-.48-4.73-.78-4.92-.3-.19-.69-3.02-.94-6.27-.19-3.25-.7-6.27-1-6.7-.36-.43-.66-1.24-.65-1.73-.08-2.7-1.39-8.91-1.94-9.29-.43-.25-.7-2.16-.73-4.24s-.31-3.99-.67-4.18c-.3-.25-.88-2.77-1.2-5.6-.38-2.89-.96-5.41-1.32-5.66-.36-.19-.6-.56-.6-.81 0-.18-.05-.68-.23-1.11-.12-.43-.26-2.95-.4-5.65-.08-2.64-.47-4.97-.78-5.22-.43-.25-.68-7.25-.69-18.72-.08-10.49-.32-18.53-.69-18.72-.67-.44-1.2-5.66-1.36-15.05-.11-4.91-.43-7.49-.92-7.8-.49-.31-.82-2.65-.88-6.64-.13-3.44-.33-6.2-.58-6.2-.18 0-.41-1.29-.44-2.95-.46-13.87-.72-16.69-1.76-16.71-.25 0-.66-1.05-.88-2.34-.23-1.23-.88-2.77-1.54-3.4-.6-.62-1.14-1.49-1.13-1.98 0-.49-.41-.93-.91-.93-.49 0-.92-.26-.91-.57.01-.86-2.88-3.79-3.74-3.8-.43 0-1.28-.63-1.88-1.44-.54-.81-2-1.81-3.15-2.32-1.16-.51-2.13-1.08-2.12-1.38 0-.25-.54-.5-1.16-.51-.61 0-1.28-.39-1.46-.88-.18-.49-1.15-1.06-2.19-1.32-1.47-.33-1.89-.77-1.87-1.93.01-.8-.52-1.97-1.19-2.53-.91-.81-1.2-1.86-1.16-4.25.04-2.33-.19-3.25-.93-3.57-.73-.32-.84-.93-.44-3.26.27-1.65.72-3.06 1.09-3.17 1.6-.59 2.92-2.53 2.58-3.95-.23-1.11-.04-1.53.89-1.7.92-.23 1.18-.72.95-1.95-.29-1.35-.03-1.72 1.01-2.01.68-.17 1.3-.72 1.31-1.14 0-.49.32-.85.68-.85.3 0 .48-.24.31-.55-.15-.26 0-.43.4-.43.07 0 .14 0 .22.01h.02c.98 0 2.62-4.47 2.99-8.17.14-1.03.5-1.51 1.34-1.51h.06c.66 0 1.14-.36 1.03-.78-.05-.43.39-1.34 1.07-2.01.94-1.03 1.14-2.01 1.07-5.75-.06-3.86.13-4.6 1-4.89.26-.08.6-.12.94-.12.38 0 .76.05 1.02.15.13.05.27.08.41.08 1.06 0 2.13-1.4 1.71-2.5-.18-.49-.05-.92.25-.92.36 0 .62-.55.63-1.22.01-.67-.23-1.23-.59-1.24-.31 0-.61-.44-.6-.93 0-.48.55-.9 1.22-.9h.07c.94 0 1.18-.44 1.21-1.88.01-.88.22-1.55.48-1.55.03 0 .06 0 .1.03.05.03.1.04.15.04.27 0 .57-.41.79-1.07.65-2.26.47-2.88-.75-2.89-.98-.02-1.1-.32-.64-2.1.53-2.32.21-5.27-.59-5.28-1.1-.02-.45-2.4.72-2.75 1.73-.53 4.9-3.73 5.36-5.44.65-2.38-.11-8.53-1.14-9.28-.48-.38-.9-1-.9-1.42 0-.37-.3-.68-.73-.69-.55 0-.55-.19.01-.74.44-.42.58-1.65.36-3.37-.27-2.18-.15-2.63.68-2.63h.06c.91 0 1.28-.98 1.13-3.05-.05-.49.53-2.63 1.3-4.76 1.22-3.29 1.29-3.97.56-4.41-.79-.5-.79-.75.03-1.96.69-1.15.92-3.79.89-13.97.05-6.93-.23-12.64-.54-12.76-.3-.13-.65-1.6-.87-3.26-.22-1.72-.74-3.45-1.16-3.94-.48-.44-.83-1.85-.81-3.02.02-1.35-.27-2.21-.7-2.22-.55 0-.61-.19-.12-.49.8-.48 1.59-3.78.92-3.79-.25 0-.41-.93-.4-2.03.27-5.64-.12-8.28-1.26-9.65-.66-.81-1.19-2.1-1.18-2.9.01-.74-.22-1.41-.47-1.42-.31 0-.85-.69-1.2-1.55-.35-.86-1.14-1.55-1.63-1.56-.55 0-.79-.26-.6-.62.19-.3-.29-1.29-1.13-2.1-.85-.81-1.57-1.62-1.57-1.8 0-.61-2.83-3.54-3.38-3.55-.31 0-1.09-.75-1.75-1.56-2.94-3.91-4.47-4.67-9-4.74-1.04-.02-1.65-.21-1.46-.45.62-.54-1.5-1.99-3.03-2.07-.98-.02-1.28-.27-1.03-.94.25-.55.01-.92-.54-.93-.49 0-1.04-.45-1.27-.94-.18-.49-.72-.93-1.27-.94-.49 0-.92-.2-.91-.51 0-.55-2.55-1.7-5.79-2.61-1.65-.47-6.66-.72-11.45-.72Z"/></svg>