<svg xmlns="http://www.w3.org/2000/svg" viewBox="0 0 850 1250"><path fill="#fff" d="M272.72 1194.61c3.1-5.25 22.12-11.6 24.64-19.09 2.51-7.56 4-20.12.99-30.18-3.03-10.03-6.54-24.09-6.54-32.61s-6.04-36.17-6.04-48.25-9.03-57.21-12.05-69.29c-3.01-12.08-16.58-76.37-19.61-88.42-3.01-12.04-28.09-64.3-18.03-84.42 9.99-20.05 29.61-60.73 33.14-70.79 3.49-10.06 12.05-33.63 14.04-44.72-13.56 4.04-34.68 11.57-34.68 4.55s-2.99-41.71 1.01-55.23c4.04-13.59 6.02-28.13 6.02-35.2s-2.99-160.75.53-178.86c3.5-18.03 14.04-82.84 15.55-99.42 1.52-16.6.51-80.87 8.06-89.41 7.53-8.56 19.59-19.09 26.11-24.12 6.54-5.03 10.56-13.05 12.06-18.1 1.5-5.01 16.08-43.14 16.6-53.21.5-10.04 11.53-53.26 14.56-64.31 2.97-11 12.01-36.13 23.57-47.7 11.57-11.55 24.64-17.07 40.7-16.08 16.08 1.03 29.16 5.53 35.18 13.57s31.61 69.82 34.63 86.4c3.01 16.58 11.05 79.85 17.07 91.91 6.02 12.05 24.6 35.67 24.6 46.73s4.55 78.34 6.06 89.91c1.5 11.55 5.03 27.63 6.53 38.17 1.51 10.56 27.61 81.37 30.66 93.91 3.01 12.6 41.12 123.58 40.65 131.64-.48 8.04-.48 19.09 1.51 23.61 2.02 4.52 6.02 21.08 6.02 28.57s-23.61 38.7-29.59 43.25c-6.03 4.52-16.09-5.03-10.06-8.04 6.02-3.05 15.05-10.54 17.04-14.06-5.99.48-7.05-.51-7.97-7.56-.99-7.01-10.54-33.12-10.54-41.16s-2.05-17.07-1.03-23.11c1.03-6-6.02-19.59-6.02-13.05s4.99 29.15-1.03 29.15-15.57-3.01-15.57 1.51.51 25.08-1.51 36.13c-2.02 11.05-14.58 146.69-12.56 160.72 2.02 14.1 11.05 63.82 5.55 93.45-5.55 29.63-24.64 109.97-27.65 125.1-3.01 15.05-9.07 24.09-6.53 33.12 2.54 9.03 13.55 26.66 9.03 36.17-4.52 9.54-11.57 22.07-16.05 31.61-4.55 9.55-5.54 9.55-5.54 31.21s-.99 24.6-11.06 27.1c-10.06 2.5-58.77 10.58-57.25-3.01 1.5-13.55 17.59-35.69 19.57-49.24 2.02-13.55 4.55-35.18 9.54-49.68 5.07-14.61 12.56-51.77 16.6-69.88 4.01-18.07 2.5-106.48 4.99-125.58 2.5-19.09 0-59.23-4.52-76.85-4.52-17.55-4.52-48.25-3.49-64.77 1.03-16.56-1.03-85.41 2.46-98.48-10.98 1.03-39.62 12.08-56.23 7.56-15.57 18.07-33.15 40.17-48.71 61.32-15.55 21.08-55.26 74.79-52.75 83.83 2.52 9.07 10.56 38.7 7.05 43.73-3.53 4.99-5.55 6.02-2.51 10.54 3.01 4.52 7.53 21.04 7.53 32.64s3.03 128.08 6.54 140.12c3.53 12.04 18.6 25.63 26.09 26.14 7.53.52 13.07 0 13.07 9.55s-2.02 45.68 0 61.24c2.02 15.57 7.53 22.62 2.02 23.13-5.55.48-5.55 2.49-11.58-12.56-5.97-15.09-12.01-35.18-13.51-28.16-1.52 7.05-4.04 8.56-6.55 20.08-2.5 11.57 2.04 38.7-9.02 43.73-11.07 5.03-38.68 6.57-50.25 6.57s-18.12-2-11.59-13.01l.03-.05Zm22.61-719.8c-2.51 15.05-.47 117.52-.47 128.55s2.51 18.1-1.01 17.61c-3.53-.49-2.51 5.01 0 18.09 2.52 13.07 0 35.1-2.02 46.7-2 11.53 1.52 8.52 5.01 8.52s10.08-13.07 20.64-25.63c10.54-12.48 4-13.51 6-23.06 2.02-9.55 9.05-21.59 13.06-27.14 4.04-5.54 5.05-3.03 5.05-9.05s3.01-10.54 7.53-19.59c4.53-9.03-4.02-14.58-7.03-32.17-3.01-17.53 2.02-55.22 2.02-73.29s-16.6-63.78-21.11-76.85c-4.53-13.06-4.53-20.6-8.56-49.76-8.02 8.08-16.56 101.99-19.08 117.1v-.04Zm183.85-84.9c0 13.07-.51 21.59 1.47 34.17 2.06 12.52 11.09 18.03 22.14 28.58-6.06-9.53-6.53-23.54-10.06-40.65-3.53-17.09-4.01-24.62-10.02-53.26-3.55 5.05-3.55 18.1-3.55 31.17l.03-.02Z"/></svg>