<svg xmlns="http://www.w3.org/2000/svg" viewBox="0 0 850 1250"><path fill="#fff" d="M475.18 22.91c-1.68.21-3.46.73-3.99 1.15-.42.42-3.67.42-7.35 0-16.16-1.99-35.26 2.62-48.7 11.75-7.35 5.04-24.66 21.2-26.97 25.29l-1.99 3.46 2.2-1.99c3.04-2.62 2.94-1.78-.73 4.93-1.68 3.04-3.36 7.14-3.78 9.13l-.84 3.67 2.2-2.62c2.62-3.15 2.83-1.89.84 3.99-.84 2.31-1.36 5.14-1.15 6.19 1.36 6.61 1.78 7.66 3.15 7.66 1.89 0 1.89.31 1.68 10.49-.21 7.14 0 8.29 2.73 12.07 2.2 3.04 2.94 5.35 2.83 8.4-.1 6.09-1.36 11.12-3.67 14.8-2.73 4.51-2.52 6.61 1.26 10.49 2.31 2.31 3.36 4.62 3.78 7.87.31 2.52 1.15 6.09 1.99 7.98.84 1.78 1.47 3.67 1.47 4.2 0 .63.94 1.89 1.99 2.83 1.36 1.26 2.31 3.99 2.73 8.08.52 4.3 1.47 7.24 3.15 9.13 2.1 2.41 3.15 2.73 8.5 2.73 3.46 0 9.66-.73 13.85-1.68l7.66-1.57 1.47 2.94c1.78 3.36 1.99 10.07.52 12.49-.73 1.26-4.51 1.68-18.05 2.2-14.59.42-17.84.94-22.46 2.94-6.51 2.83-14.06 10.39-17.53 17.42-3.25 6.51-9.13 24.24-9.13 27.39 0 3.67-2.94 6.09-15.64 13.01-25.92 13.96-38.31 24.14-43.87 36.21-2.41 5.25-2.83 7.77-2.94 15.22 0 7.45.42 9.87 2.73 14.69 4.83 10.28 10.81 15.43 22.25 18.89 3.46 1.05 3.99 1.57 3.36 3.57-.42 1.15-.94 9.45-1.26 18.26l-.63 16.16-2.73-.63c-14.9-3.25-24.35-4.72-33.16-5.35-12.91-.84-28.44-3.04-41.14-5.77-5.35-1.15-11.23-2.1-13.01-2.1-9.66 0-17.32 5.67-22.98 16.79-1.78 3.57-6.09 10.18-9.45 14.8-6.19 8.4-6.3 8.61-6.3 15.43 0 4.51-.73 9.03-2.1 12.59-2.83 7.56-2.73 9.66.52 9.66 1.57 0 2.94.73 3.36 1.78 3.46 10.18 11.33 24.45 13.43 24.45 2.73 0 3.99-3.15 3.36-8.4-.63-5.04-.52-5.25 1.47-4.2 4.72 2.62 3.78-6.19-1.05-9.03-3.46-2.1-4.2-5.77-3.25-16.16.63-7.03 3.36-10.81 9.55-13.22 2.1-.84 4.83-2.94 6.09-4.62 2.41-3.36 4.72-3.88 9.03-1.89 3.46 1.57 4.2 4.72 2.52 11.23-2.2 8.92 1.68 17.11 7.45 15.32 1.99-.63 3.67-6.09 4.83-16.27.63-4.51 2.41-11.54 2.94-11.54.21 0 3.78 1.99 8.08 4.3 4.3 2.41 11.12 6.19 15.11 8.4 7.77 4.2 23.72 10.49 40.19 15.85 5.25 1.68 9.66 3.67 9.66 4.3 0 .73-1.68 3.36-3.67 5.98-13.85 17.95-16.27 22.77-28.86 56.67-5.88 15.85-12.49 33.58-14.69 39.36-5.04 13.75-9.03 27.92-11.23 40.93-1.68 9.34-1.89 21.93-2.31 113.34-.63 138.53-.63 140.31-2.1 151.12-.63 5.14-1.89 17.42-2.73 27.29-.84 9.76-2.62 26.55-4.09 37.26-1.36 10.7-3.04 26.76-3.67 35.68-.73 8.92-1.68 21.62-2.31 28.02-.52 6.51-1.47 21.41-1.99 33.06-1.99 40.61-2.94 49.22-7.98 69.06-2.52 10.07-4.62 19.31-4.62 20.46-.1 1.15-.84 3.99-1.68 6.3s-1.78 8.08-1.99 12.91c-.52 10.39-1.99 19-4.83 28.13l-2.1 6.72H234c-7.24 0-16.27 1.89-19 3.88-3.46 2.52-5.14 6.61-5.04 12.38.42 19.73 13.33 27.18 38.2 22.04 8.4-1.78 11.33-2.73 19.31-6.51 5.04-2.41 5.25-2.62 6.51-8.5 1.36-6.4 4.41-13.12 7.66-16.48q1.99-1.99 3.46 0c3.04 4.09 2.94 11.86-.31 33.58-2.31 15.85-2.83 21.09-1.89 21.72 1.36.94 5.98 1.15 5.98.31 0-.31 1.26-6.82 2.73-14.38 4.83-24.98 9.87-40.82 18.79-58.67 6.51-12.91 7.35-16.37 5.77-23.51-2.2-10.18-13.22-27.81-17.32-27.81-2.83 0-4.72-3.78-4.72-9.76 0-13.96 9.76-51.63 20.15-77.87 1.36-3.46 4.09-11.23 5.98-17.32 4.83-15.43 12.07-37.26 14.59-44.08 2.1-5.56 4.51-15.01 6.09-23.61.42-2.31.84-21.93.94-43.55.21-33.48.52-40.09 1.99-44.6 1.05-2.94 3.67-11.65 5.88-19.42s5.56-19.1 7.35-25.19c3.46-11.86 5.56-20.88 13.75-58.25 4.93-23.09 12.07-52.47 13.01-53.94.84-1.47 4.93-17.95 8.92-35.68 3.04-13.64 4.62-18.79 6.3-20.46q2.2-2.2 3.46-.1c1.36 2.31 9.24 20.04 18.05 40.51 3.15 7.24 7.35 19.21 9.45 26.76 3.36 11.96 8.4 28.34 11.02 36.1 1.99 5.77 7.45 24.56 12.07 41.45 11.33 40.82 16.58 54.57 27.29 70.84 3.57 5.46 8.71 13.54 11.44 17.84 2.62 4.3 7.24 11.12 10.07 15.22 9.66 13.64 18.05 32.85 29.7 67.69 8.5 25.4 8.29 24.77 18.68 65.59 14.59 57.09 17.84 73.15 18.05 88.16 0 6.61-.42 9.45-2.31 13.64-1.68 3.57-2.52 7.87-2.83 13.54-.52 10.39-2.83 19.52-6.61 26.34l-2.94 5.25-6.82.52c-11.23.84-14.17 4.2-13.22 14.8.63 6.51 4.83 12.8 11.33 17.21l4.72 3.15h18.89c12.17 0 20.78-.52 24.35-1.47 3.04-.73 5.88-1.05 6.3-.84.52.31.31 5.46-.31 11.44-1.99 17-1.99 18.47 1.15 19.31 1.47.42 2.94.42 3.15.21s1.15-5.35 2.1-11.44c2.41-17.11 4.72-28.23 7.03-35.05 2.62-7.66 8.5-19.52 12.38-25.19 4.72-6.72 5.88-13.85 3.67-22.88-1.99-8.08-7.98-22.04-10.91-25.4-.94-1.15-2.41-4.72-3.25-7.87-.73-3.04-2.52-8.29-3.99-11.54-5.46-12.38-6.72-19.1-9.13-48.28-.84-10.07-1.99-24.03-2.62-30.96-.63-6.93-1.57-24.87-2.1-39.88-.84-23.3-1.36-28.76-3.57-37.26-7.45-29.39-19.1-52.26-36.42-71.89-10.91-12.38-16.37-22.46-20.67-38.41-2.62-9.55-3.78-17.42-6.51-45.55-4.41-44.6-10.6-95.82-12.07-98.02-.94-1.68-5.25-36.63-6.82-56.57-1.36-17.32-2.83-24.56-8.4-40.61-7.35-21.3-14.9-47.33-19.52-66.64-.94-4.3-4.09-13.75-6.82-20.99-7.14-18.68-9.34-28.02-9.34-39.04 0-13.54 3.67-34.53 8.5-48.07 2.73-7.77 13.01-26.24 21.72-39.25 5.04-7.35 10.28-15.32 11.75-17.53s2.83-4.09 3.25-4.09c.31 0 2.52 9.55 4.93 21.2 2.41 11.75 5.56 26.24 7.03 32.32 5.04 20.99 5.77 25.4 5.77 36 0 18.68 6.3 59.61 13.22 86.27 6.61 25.29 10.6 45.34 11.75 59.3 1.26 15.32 5.35 26.87 11.86 33.06 2.31 2.31 5.88 7.45 7.98 11.33 5.77 10.91 11.86 14.27 15.53 8.71 1.57-2.31 1.57-2.83-.1-6.09-.94-1.89-2.62-4.62-3.67-5.98-3.46-4.3-2.2-4.93 1.99-.94 3.88 3.78 6.19 4.83 12.28 5.46 2.52.21 3.67 1.26 5.88 5.35 3.36 6.09 4.83 17.63 2.94 22.98-1.47 4.09-.63 8.5 1.89 9.45 3.78 1.47 9.66-10.07 9.76-19.21q0-3.46 2.62-1.78c1.99 1.36 3.15 1.47 4.72.63 1.89-1.05 1.57-1.68-4.72-11.33-9.97-14.8-9.55-13.85-5.77-13.85 1.78 0 7.45 2.1 12.59 4.72 9.76 4.93 13.64 5.67 15.64 3.25.94-1.15.42-2.1-2.73-4.51-2.2-1.78-5.14-3.78-6.51-4.51-1.36-.63-4.51-2.83-6.93-4.72-4.2-3.15-15.64-7.87-19.1-7.87-2.83 0-29.18-18.58-30.85-21.72-.94-1.78-.94-8.5.1-29.39 2.83-56.46 1.57-77.56-6.3-108.93-2.2-8.71-4.72-22.14-5.67-29.91-4.09-33.58-4.83-40.3-6.4-58.25-.84-10.39-2.1-22.25-2.62-26.24-.63-4.09-1.47-13.96-2.1-22.04-1.57-24.03-3.78-36.42-9.03-50.06-3.67-9.66-5.35-11.96-17.84-22.88-9.76-8.71-10.18-9.24-16.16-21.51-6.61-13.85-10.49-27.18-10.49-35.89 0-5.46.1-5.56 2.62-4.93 2.73.63 2.62.84 5.88-7.98.84-1.99 2.94-5.35 4.93-7.45 4.09-4.72 7.98-13.75 9.66-22.98.73-3.78 1.68-7.66 2.2-8.61.52-1.05.94-3.99.94-6.61s.63-6.51 1.47-8.61c.84-2.2 1.78-7.98 2.1-12.91s.84-11.86 1.15-15.53c.94-10.28-.63-14.38-8.5-21.93-4.51-4.41-6.51-7.03-6.09-8.08.31-.94.21-1.68-.31-1.68s-1.89-.84-3.04-1.89c-3.99-3.46-7.24-4.72-12.7-5.04-5.56-.21-13.12-4.3-10.7-5.67 1.47-.94-3.99-4.51-7.45-4.83-1.47-.21-3.57-.52-4.72-.73s-3.46-.21-5.25.1Z"/></svg>