<svg xmlns="http://www.w3.org/2000/svg" viewBox="0 0 850 1250"><path fill="#fff" d="M515.92 50.69c-6.99 3-13.47 11.05-20.4 10.88-4.77-.12-9.35-6.12-13.66-8.18-13.67-6.52-28.43-11.2-43.59-9.53-12.73 1.41-23.74 8.9-32.71 17.7-6.07 5.96-12.45 15.75-16.36 23.18-3.9 7.43-9.53 25.88-9.53 25.88s-12.4-.29-17.7 0c-15.19.82-35.43 2.84-50.42 5.48-20.31 3.58-49.51 5.07-66.77 16.36-1.71 1.12-3.48 3.46-4.13 5.4-1.83 5.41-1.55 13.55 0 19.05 2.34 8.3 10.81 17 15.01 24.53 15.71 28.21 37.76 49.62 61.29 70.9 7.51 6.79 24.53 23.18 24.53 23.18 6.98 5.76 16.45 11.52 16.36 19.05-15.6 19.28-35.29 36.21-38.65 62.64-1.61 12.64 5.13 24.18 12.76 34.06 6.81 7.35 16.02 14.71 19.05 23.18 1.41 10.87-1.74 21.78-1.35 32.71.35 9.62 5.5 19.48 6.83 31.36 2.99 26.68 8.29 56.95-2.7 80.34-7.19 15.31-9.76 30.37-13.66 46.37-5.57 22.84-7.24 44.89-5.48 68.12 2.63 34.67-1.67 27.3 2.78 55.9 2.44 15.68-5.66 18.62-.59 51.65s7.77 115.9-8.94 159.54c-5.29 13.81-5.21 26.61-5.48 40.89-.47 25.23 1.66 51.32-2.7 76.3-2.69 15.41-13.49 34-17.7 49.07-2.24 8.03-4.51 18.95-5.48 27.23-1.34 11.36-1.15 26.67-1.35 38.11-.14 8.19-7.42 28.07 0 27.32 56.79-5.79 182.54 27.49 216.67 6.83 13.32-8.06 54.71-1.21 77.67-4.12 5.62-.71-7.64-26.93-2.72-35.42 14.6-25.2 11.84-56.1 13.57-84.47 2.94-48.13 1.52-94.96-9.53-141.72-9.64-40.79-28.29-77.44-25.88-119.89.84-14.79 2.8-34.5 5.48-49.07 2.36-12.87 8.08-29.45 10.88-42.24 5-22.83 10.66-46.09 9.53-69.55-2.61-53.82-23.61-105.61-51.77-151.25-32.73-38.42-13.69-70.93 2.7-117.19 18.54-51.11 46.6-98.49 64.42-149.75 3.43-11.62 2.55-23.64 2.35-35.55 1.61-45.84 4.24-91.75-1.35-137.59-.2-3.71-.23-8.77-1.35-12.31-1.53-4.87-3.98-12.03-8.18-14.92-26.26-13.42-56.44-1.36-81.78 9.53Zm39.54 51.77c-5.44 34.07-2.93 22.83-4.13 32.71-1.93 15.86-3.17 37.14-3.78 53.11-.33 8.59 0 28.66 0 28.66l-9.8 8.18-9.53 5.4c-1.92-21.24 3.39-42.82 5.4-63.99 1.51-15.9.47-32.33-4.05-47.72-2.47-8.42-13.66-25.88-13.66-25.88 13.63 0 9.12.6 13.66 0s22.31-.46 27.23-4.28c7.16-5.55-.48 8.39-1.35 13.8ZM368.8 148.74c4.68 1.82 8.99 4.45 12.22 8.18 6.06 6.98.33 21.93 1.35 31.36s5.48 31.36 5.48 31.36l.88 12.33-34.94-28.69-43.59-32.71s41.88-28.34 58.59-21.84Z"/></svg>