<svg xmlns="http://www.w3.org/2000/svg" viewBox="0 0 850 1250"><path fill="#fff" d="M390.27 1215.71c-26.85-.4-39.98-26.54-37.66-50.52-5.05-22.51-3.56-45.85-4.53-68.85 2.06-23.14 21.76-41.17 15.57-66.3-3.11-37.23-4.87-74.88-.58-112.07 4.2-24.94 13.46-48.45 25.58-70.54.29-20.04-3.9-39.59-12.25-57.87-14.58-37.71-27.84-75.94-45.89-112.18-8.06-20.45-4.48-48.36-34.09-48.93-17.01-1.88-35.19-2.94-30.5-26.06-1.18-31.57 3.95-62.99 2.66-94.64 4.55-28.15-22.55-45.52-37.4-65.53-15.7-21.87-32.9-42.98-45.36-67-4.35-29.81 14.01-56.22 24.4-82.85 12.15-30.72 29.69-58.93 42.97-89.06 10.76-17.8 24.8-40.58 48.45-39.99 22.64-.45 46.86.54 65.3-14.85 17.26-15.49 22.96-38.33 32.33-58.42 12.24-28.4 35.57-54.65 67.74-58.99 24.33-3.89 50.81 5.21 68.9 21.61 3.9 22.95 19.71 38.48 25.56 60.65 2.49 21.53-2.29 45.5 24.99 52.18 24.74 16.83 50.28 32.79 73.42 51.79 14.52 18.65-5.63 46.05-27.33 47.31-28.5 13.29-59.15 21.79-90.55 24.61-27.88-4.29-18.63 31.66-1.72 39.88 23.56 21.16-22.88-12.64-23.18-12.36-.26 12.99-3.78 24.58-8.09 5.3-11.15-22.15 3.96 31.49-5.43 19.37-1.78-11.09-13.78-34.88-13.28-9.82 1.3 8.03 14.21 33.96-.67 15.64-6.99-15.67-3.58-33.86-5.09-50.74-26.39-2.77-11.88 22.66-7.91 36.5 5.97 25-25.13 39.55-22.68 61.96 12.94 16.43 31.57 29.5 42.84 49.13 24.41 33.32 29.99 74.92 40.63 113.67-1.49 14.89 32.93 29.94 3.81 30.29-16.72 11.07-10.87 39.91-21.52 57.74-7.71 38.93-19.29 77-31.3 114.78-8.06 27.2-18.27 54.63-17.23 83.57-.36 40.67-6.09 81.1-16.62 120.35-5.81 25.47-15.31 50.35-14.89 77.06-2.19 24.53 2.41 48.98 11.71 71.6 7.37 20.12-4.17 48.71-29.66 40.63-24.51-5.69-10.97 27.47 2.91 33.26 14.53 16.75 1.15 34.28-19.32 29.02-5.02 0-10.06.1-15.06-.33Zm-121.8-810.49c.16-22.09 10.41-42.25 5.24-64.23-2.08-9.98 4.9-41.86-5.44-38.66-6.72 22.85-29.25 40.55-28.37 65.34 8.51 16.52 21.61 30.41 27.22 48.67 1.8-3.45.92-7.45 1.35-11.12Zm252.68-105.3c.93-13.95-20.6-7.37-6.22 2.41 3.97 6.03 8.46 5.04 6.22-2.41Zm59.8-74.98c-11.22-15.73-26.65-27.69-40.46-40.91-11.99-1.74-12.72 24.78-21.55 33.89 1.23 17.12 35.65 4.3 49.7 7.82 4.1-.25 8.26-.03 12.31-.8Zm-20.67-81.28c4.51-20.53-17.82 12.62-1.15 4.06l1.15-4.06Zm-5.14-8.5c8.84-11.18-12.11-43.92-7.45-15.82 1.26 3.6-.62 29.43 7.45 15.82Z"/></svg>