<svg xmlns="http://www.w3.org/2000/svg" viewBox="0 0 850 1250"><path fill="#fff" d="M390.73 32.56c-10.7 1.74-21.54 6.09-28.97 11.64-21.94 16.52-35.39 48.84-41.61 99.75-.8 6.22-1.54 12.44-1.74 13.85-.33 2.27-.13 2.54 2.54 4.08 1.54.94 3.55 2.88 4.48 4.42 5.62 9.17 6.89 10.9 8.83 12.11 1.2.74 2.48 1.27 2.81 1.14s1.4-2.27 2.41-4.82c2.94-7.63 5.29-11.71 7.16-12.58 1.61-.74 1.87-.54 4.35 2.21 9.63 11.17 6.69 21.74-8.83 31.85-11.91 7.69-23.68 11.91-44.29 15.99-27.43 5.42-32.38 6.49-34.45 7.76-11.31 7.02-20.94 51.11-28.57 131.06-2.61 26.69-4.68 53.32-8.76 109.38-2.01 27.96-4.42 60.48-5.29 72.25-2.01 25.82-3.41 45.76-4.75 68.57-.94 16.32-.94 17.13.27 18.73 1.2 1.67 4.68 2.81 11.64 3.68 1.87.27 3.88 1.07 5.02 2.01l1.81 1.54-.2 24.02c-.2 26.16.2 31.18 3.41 37.46 2.14 4.08 4.62 6.42 8.7 8.23 4.01 1.81 4.68 1.34 6.49-4.42 1.4-4.55 2.34-11.24 3.01-21.68.74-10.7 2.88-20.74 4.48-20.74 1.94 0 5.02 2.88 7.76 7.36 3.95 6.29 5.75 8.03 8.43 8.03 1.74 0 2.74-.4 5.62-2.34.07-.07-.94-2.88-2.21-6.29-10.97-28.37-13.31-73.93-6.29-123.63 2.01-14.58 6.56-37.8 7.56-38.8 1.4-1.4 1.34 1.14-1.27 42.28-.54 8.43-1 23.55-1 33.58v18.13l2.01 1.74c3.08 2.54 6.56 2.74 17.6 1 8.83-1.34 9.9-1.4 11.31-.47 1.27.8 2.27 3.68 5.82 15.99 14.12 49.51 35.73 115.2 58.2 176.89 14.18 39.07 14.32 39.47 16.06 39.67.87.13 6.09-1.34 11.64-3.21 10.1-3.48 16.66-4.68 18.53-3.41.87.6 1 4.88 1 31.64 0 19.13-.33 35.06-.87 41.68-5.29 66.57-14.05 109.58-43.95 217.43-6.02 21.68-12.98 47.17-15.45 56.53l-4.42 17.06 1.47 2.88c4.08 7.69 15.39 12.85 28.23 12.85 7.02 0 11.57-.87 17.06-3.35 4.82-2.21 5.82-3.48 9.23-12.38 6.89-17.86 8.23-28.37 9.03-70.11.94-46.76 2.07-57.2 8.36-76.6 5.02-15.65 11.71-29.5 27.1-56.67 5.42-9.57 11.04-19.74 12.44-22.61 1.4-2.81 2.81-5.15 3.08-5.15 1.14 0 5.49 6.89 9.57 15.05 2.34 4.75 6.89 15.45 10.1 23.75 6.62 17.33 11.57 27.9 22.81 48.9 19.87 36.93 26.23 52.32 30.44 73.06 2.34 11.37 2.07 27.16-.67 48.37-3.61 27.36-3.55 34.59.54 42.82 8.3 16.86 37.33 22.55 53.45 10.44l2.27-1.67-.47-13.78c-1.2-36.73-3.75-61.15-8.23-79.68-3.01-12.31-6.36-19.74-17.26-38.13-11.98-20.27-14.92-27.3-18.33-44.49-2.54-12.71-4.28-26.36-6.42-50.85-3.14-36.53-5.15-51.51-8.96-67.5-2.41-9.97-4.95-17.06-12.31-33.85-10.97-25.36-12.31-30.64-13.85-55.53-1.27-21.01-3.28-30.98-7.96-39.94l-2.61-4.88 1.81-.4c8.23-1.74 15.05-4.75 29.9-13.05 13.78-7.76 22.21-10.9 31.24-11.77 2.94-.27 4.48-.67 4.48-1.27 0-1.74-2.74-26.49-4.42-39.4-2.34-18.6-4.08-30.71-11.31-78.27-7.76-51.31-8.43-55.93-11.64-81.62-3.21-25.29-3.35-25.62-15.65-46.16-3.35-5.55-7.29-12.78-8.9-16.06-2.68-5.69-6.09-16.12-5.42-16.79.13-.2 2.48 1.94 5.15 4.75 6.36 6.49 9.37 7.96 16.06 7.89 6.15 0 8.83-1.14 16.32-6.56 8.7-6.22 13.85-11.24 28.83-27.76 7.83-8.63 18.93-20.07 24.62-25.36 15.05-13.92 21.34-21.34 25.42-30.04 1.94-4.08 2.07-5.08 2.07-10.84 0-5.02-.4-7.43-1.74-11.37-3.88-11.17-9.63-19.07-26.23-35.79-11.98-12.04-32.78-35.66-73.12-82.62l-21.54-25.15-7.56-3.21c-4.15-1.74-17.46-6.49-29.64-10.57-12.11-4.01-24.49-8.43-27.5-9.83-9.5-4.48-17.33-10.5-22.14-17.06l-2.94-3.95 14.92-9.83c8.23-5.42 16.19-11.04 17.73-12.44l2.88-2.61 1.67-11.71c2.48-17.86 3.21-29.97 2.81-46.1-.4-16.73-1.94-27.23-5.55-38.13-5.22-15.86-13.45-26.63-24.55-32.31-6.36-3.21-29.97-5.49-40.21-3.88Zm130.06 307.95c5.29 2.68 18.67 10.3 33.12 18.87 4.28 2.54 7.76 5.35 12.11 9.83 5.82 5.95 6.15 6.42 7.56 11.44 1.27 4.55 1.4 5.75.74 8.76-.87 4.28-3.28 6.82-11.11 11.57-2.94 1.87-7.76 5.35-10.7 7.76-2.88 2.41-8.16 6.76-11.64 9.63-8.1 6.76-13.65 10.9-14.52 10.9-.33 0-1.2-.67-1.94-1.4-1.81-2.01-14.12-10.37-21.14-14.32-3.28-1.87-8.16-5.02-10.9-7.02-4.48-3.28-5.15-4.15-7.43-8.9-2.34-4.95-2.41-5.49-2.01-9.7.33-3.48 1.14-5.69 3.35-9.83 1.61-2.94 3.88-7.89 5.08-11.04 1.14-3.08 3.48-7.69 5.08-10.24 1.67-2.54 4.35-7.29 5.95-10.57 4.01-7.89 4.82-8.63 9.23-8.63 2.74 0 4.62.6 9.17 2.88Z" vector-effect="non-scaling-stroke"/></svg>