<svg xmlns="http://www.w3.org/2000/svg" viewBox="0 0 850 1250"><path fill="#fff" d="m280.5 271.75 1.28-3.04c.69-5.89-1.28 3.04-1.28 3.04Zm-17.82 37.38-1.98.23s-.6 2.67 1.98-.23Zm334.89 88.5c2.08-31.5-58.57-175.18-58.57-175.18-2.76-17.08-36.92-29.42-36.92-29.42l4.14-3.37c-2.7-27.39-31.34-39.72-31.34-39.72-13.67-2.06-6.15-8.9-6.15-8.9.66-108.74-93.4-119.08-93.4-119.08-71.66-13.6-86.65 104.73-86.65 104.73 4.77 17.06-1.33 36.23-1.33 36.23-5.46 13.71-11.63 10.97-11.63 10.97 7.51 4.08 8.91 0 8.91 0s9.52-4.1 2.04.7c-7.51 4.74-3.44 14.34-3.44 14.34l8.2-12.27-5.48 36.26c-6.79 23.25-31.36 19.13-31.36 19.13l6.13 3.45c14.01 13.91 24.13 9.05 26.18 7.73-.09.64-.16 1.17-.22 1.79-2.7 17.78-7.91 21.55-9.98 22.36 4.33-.65 7.94-5.26 7.94-5.26l-2.83 6.57c-.13 1-.32 2.4-.6 4.4-2.04 13.64-26.61 17.78-26.61 17.78 9.57 8.24 18.43 0 18.43 0l-3.45 8.24c-3.42 5.49-5.5 8.46-6.87 9.99l7.55-1.1-6.09 11.58c-32.71 26.65-10.24 34.96-10.24 34.96l2.05-4.17c2.04-15.75 6.83-7.52 6.83-7.52l-4.09 14.36C263.5 381.2 243 398.95 243 398.95s-4.04 0 2.06.71c6.15.7 8.87-2.7 8.87-2.7 5.72-1.35 7.72-3.21 8.45-4.38l-2.98 7.79c-13.66 6.15-12.28 35.58-12.28 35.58 12.96 11.6 6.13 29.44 6.13 29.44v8.16c-2.04 2.7.68 11.62.68 11.62 0 6.16-2.72 8.25-2.72 8.25-5.47 4.73-2.05 31.46-2.05 31.46l2.05 1.33c-7.5 18.45-2.73 18.45-2.73 18.45 1.32 2.74 18.42 30.84 18.42 30.84l-14.33 64.3c8.16 10.24 19.11 24.64 19.11 24.64-4.79 4.79 11.56 104.68 11.56 104.68l.66 7.55c0 34.9-7.46 97.81-7.46 97.81-19.11 39.01-7.51 123.16-7.51 123.16s-4.2-48.22 1.33 8.21c5.48 55.39 2.1 93.74 2.1 93.74-4.13 12.28-7.53 36.28-7.53 36.28-.65 13.01-6.11 25.99-6.11 25.99-8.93 55.43-5.47 59.47-5.47 59.47 3.42 15.13 40.95 3.58 41.61 3.43 4.42-1.23 6.79-19.15 6.79-19.15s2.72-47.16 8.2-59.56c.25-.5.43-1.01.65-1.58 4.13-11.85-3.38-24.43-3.38-24.43-5.47-13.68 3.4-62.87 3.4-62.87 12.96-36.94 23.22-121.16 23.22-121.16-2.78-19.07 4.05-59.47 4.05-59.47 7.51-21.21 14.31-64.36 14.31-64.36 2.75-4.73 20.48-136.09 20.48-136.09l40.89.63c3.43 15.75 35.52 166.34 35.52 166.34 10.2 20.47 19.04 60.43 19.11 62.88.65 24.64 13.61 78.03 13.61 78.03 16.31 36.93 31.34 111.53 31.34 111.53-5.43 19.17-1.32 34.22-1.32 34.22-2.07 47.19 1.32 79.99 1.32 79.99 0 19.16 52.5 8.24 52.5 8.24 13.64-19.86-10.21-94.4-10.21-94.4l-2.01-8.88c-2.78-18.56-10.94-37.02-10.94-37.02-1.38-6.77-2.03-80.67-2.03-80.67 6.8-66.39-5.47-102.65-5.47-102.65-2.04-14.67-14.32-49.24-14.32-49.24-1.33-17.09-8.19-56.1-8.19-56.1 0-12.99 4.09-114.29 4.09-114.29l3.43.68c4.1-7.52 6.12-75.25 6.12-75.25 9.5-.72 13.65-7.53 13.65-7.53 8.16-5.48 7.5-17.1 7.5-17.1 11.55 0 10.93-5.52 10.93-5.52l47.72-131.31c8.85-19.14-8.22-41.06-8.22-41.06Zm-263.15 25.28c-8.19 8.9-6.91 10.99-6.91 10.99s-28.6 67.73-35.43 68.37c-1.17.14-1.84.14-2.35.14l-3.07 1.9s13.59-62.22 28.61-84.12c0 0 5.43-32.15 5.43-38.97s-5.43-23.27-5.43-23.27 6.18 17.74 15.02 21.2c0 0 12.27 34.9 4.13 43.76Zm208.59-2.72s-2.67 4.82-2.67 10.94c0 0-4.29 62.94-8.23 78.53-.18.9-.43 1.67-.64 2.23-4.09 10.27-7.5 19.12-6.15 22.56 0 0-15.69 19.88-8.19 23.3l3.4 3.37-10.91-1.32s-8.16-8.24-7.56-24.68c0 0-5.41-6.16-6.78-5.43l-4.06-22.6 8.83-3.39s-9.49-57.5-16.37-69.79c0 0 3.47 6.84 10.28 17.74l5.45 7.56s8.18-4.75 6.81-17.11c0 0-6.16 1.36-8.87-8.19-2.69-9.59.65-2.09.65-2.09s6.89-.68 8.22-12.26c0 0 7.51 10.22 19.78 0l6.12-8.21 3.38-6.72c-1.6-.87-4.16-2.7-8.75-6.31 0 0-10.3-4.08-11.67-19.86 0 0-4.06-12.98 8.9-18.44 0 0 8.14 41.72 15.67 38.96 0 0 6.78 4.79 2.03 11 0 0 4.11 3.42 1.33 10.22Z"/></svg>