<svg xmlns="http://www.w3.org/2000/svg" viewBox="0 0 850 1250"><path fill="#fff" d="M376.15 24.84c-3.58 1.02-10.08 2.26-14.39 2.85-9.64 1.31-12.93 2.19-18.26 4.82-14.17 7.01-23.67 19.21-29.66 37.99-3.36 10.52-4.53 19.14-5.26 37.62-.37 9.64-1.1 18.99-1.75 21.99-3.43 16.14-10.3 24.47-23.3 28.12-5.33 1.53-7.52 1.75-20.09 1.75-7.67 0-14.03.07-14.03.15 0 .15 1.46.58 3.29 1.02s3.29 1.02 3.29 1.31-3.07.95-6.72 1.46c-12.2 1.75-22.72 5.41-27.98 9.86-1.68 1.46-1.97 1.97-1.17 2.56.73.44.37 1.1-1.68 2.7-3.36 2.7-6.72 7.38-8.18 11.4-1.31 3.8-1.46 11.25-.22 13.95s2.12 2.48 2.12-.58c0-7.38 8.04-12.2 16.44-9.86 1.83.51 3.29 1.02 3.29 1.17 0 .22-1.39 2.05-3.14 4.16-1.75 2.19-3.87 5.33-4.75 7.16-1.83 3.94-2.92 9.13-1.68 8.4 1.17-.73 1.1-.44-1.39 4.82-2.63 5.62-4.38 13.22-4.38 19.21 0 5.11 1.02 10.08 2.12 10.45.44.15.8 1.53.8 3.07 0 3.87 2.48 11.4 5.04 15.41 2.19 3.58 5.84 6.72 8.69 7.6l1.68.51-1.53-2.48c-.8-1.31-1.46-3.29-1.46-4.38 0-2.48 2.78-10.08 3.73-10.08.37 0 .66 1.75.66 3.8.07 2.12.51 4.68 1.1 5.7 1.02 1.75 1.1 1.75.66-1.17-.51-3.29.88-11.25 1.97-11.25.58 0 .22 5.55-.51 7.89-.58 2.05 1.31 10.67 3.36 15.19 2.19 4.82 3.36 6.06 2.78 2.85-.58-3.07.66-2.05 1.53 1.31.95 3.14 5.04 10.45 5.62 9.86.15-.22 0-2.7-.37-5.55-.73-5.84 0-13.88 1.83-19.87 1.24-4.09 5.84-13.81 7.82-16.44s2.12-.58.22 3.14c-3.36 6.72-5.62 15.92-6.06 24.69-.44 8.62.15 14.9 1.31 14.9.37 0 .66-.44.58-.95-.22-2.05.15-4.89.66-4.89.29 0 .44 2.12.29 4.68-.73 11.47 4.46 26.44 10.23 29.51 3.8 2.05 3.94 2.7 3.43 25.86-.51 24.4-1.24 31.63-8.33 81.3-5.92 41.57-6.57 46.9-8.4 66.26-2.19 24.11-2.12 23.74-12.35 43.25-2.19 4.16-3 6.57-3 8.91q0 3.21 4.24 5.26l4.16 1.97.22 6.65c.22 7.52.22 7.6 6.57 7.6h3.14l-.44 5.26c-1.1 12.71-2.78 24.18-4.53 32-3 13.22-2.85 14.76 2.41 25.93 4.09 8.84 13.37 25.71 18.85 34.33 2.05 3.07 3 3.87 5.99 4.82 3.43 1.02 3.58 1.24 4.09 4.31.29 1.83 1.1 19.72 1.68 39.81.58 20.09 1.75 45.07 2.56 55.52 3.43 43.83 3.36 54.64-.73 100.08-1.17 13.22-3.29 43.03-4.75 66.11-1.39 23.08-4.02 65.16-5.84 93.5-3.65 58.07-6.65 108.33-7.38 124.33l-.51 10.74 1.75.37c.95.22 4.53 1.1 8.04 1.83 8.99 2.12 14.83 4.46 21.33 8.55 5.33 3.36 5.62 3.73 5.26 5.77-1.9 11.18-.58 19.87 3.87 24.62 7.52 7.96 25.06 8.55 34.84 1.17 5.92-4.46 8.4-11.4 8.4-23.52v-6.79l7.74-3.43c4.31-1.97 9.42-4.09 11.54-4.82l3.73-1.24-.22-3.21c-.07-1.75-.95-19.65-1.97-39.74-3.8-75.83-4.68-90.58-9.13-148.29-4.46-57.71-5.19-71.44-5.62-104.83-.58-41.71.44-58.37 7.38-121.7 4.82-43.83 8.33-79.26 9.2-93.8.95-14.61 2.26-23.96 4.38-30.68 1.97-6.5 2.63-7.38 3.51-5.11.44 1.02 4.38 11.03 8.77 22.28 4.38 11.25 14.46 36.96 22.35 57.2 7.96 20.16 20.75 52.23 28.49 71.22 32.14 78.75 37.55 96.06 49.02 159.03 2.26 12.27 5.41 29.37 7.01 37.99 6.72 36.6 12.56 72.32 27.03 165.38 6.28 40.1 6.94 43.76 8.33 44.19.8.29 10.88 3.8 22.35 7.74l20.89 7.16.51 6.28c1.46 19.07 7.89 26.3 24.03 26.96 6.5.29 7.38.15 11.1-1.61 4.46-2.26 9.72-7.6 12.05-12.49 1.97-4.09 2.19-12.49.44-19.07-.66-2.48-1.17-4.68-1.17-4.89 0-.15 2.19-1.61 4.82-3.14 5.7-3.29 9.57-7.52 10.23-11.03.73-3.94-.88-11.91-7.38-36.31-7.67-28.78-33.24-118.05-39.45-137.77-2.63-8.25-10.52-32.07-17.6-52.96-17.82-52.81-19.21-57.93-34.63-124.91-8.99-39.3-18.7-80.79-30.68-130.76-5.55-23.3-11.18-47.77-12.42-54.42-2.63-14.03-5.84-24.11-13.15-41.27-2.92-6.87-6.65-16.07-8.25-20.45l-2.92-8.04-.22-18.63c-.07-10.23-.51-22.06-.95-26.22s-.58-7.89-.37-8.25c.29-.44 1.46-1.17 2.78-1.68 2.19-.95 2.34-.88 5.99 2.56 7.16 6.79 15.49 7.38 27.03 1.9 3.07-1.46 6.43-3.29 7.6-4.09l2.05-1.46 4.09 5.55 4.16 5.48 4.53-3.58c6.36-5.04 11.25-7.96 15.41-9.06 3-.8 4.02-1.61 6.79-5.11 4.53-5.99 8.99-14.54 13.73-26.88 2.26-5.84 6.28-15.19 8.91-20.82 18.34-39.23 23.08-55.96 19.58-69.32-.66-2.41-4.31-10.74-8.11-18.63-17.17-34.99-29.37-64.87-43.03-105.26-8.18-24.25-11.4-31.78-15.71-37.04-1.97-2.34-4.97-6.43-6.57-9.2-3.87-6.43-4.97-7.09-11.69-7.01-3.87.07-8.77-.73-16.8-2.56-7.6-1.83-14.83-2.92-21.99-3.51l-10.74-.88 1.31-3.8c11.18-32.43 14.03-69.18 7.38-96.79-6.43-27.25-27.9-59.46-47.92-71.95-3.07-1.9-8.4-4.46-11.91-5.62-5.7-2.05-7.38-2.26-16.58-2.48-9.06-.22-10.96 0-16.8 1.61Zm125.64 306.44c7.3 11.25 14.76 27.76 25.2 55.74 9.72 26.15 10.96 32.51 8.33 41.42-1.31 4.31-13.37 28.85-15.85 32.29-.95 1.31-3.14 2.63-5.84 3.65-5.55 1.97-8.55 4.82-8.55 7.89 0 1.83.73 3.07 3.29 5.55 1.83 1.75 3.29 3.58 3.29 4.09 0 .58-.95 1.53-2.05 2.19-1.17.73-3.51 2.78-5.19 4.6-2.92 3.21-3.07 3.51-1.9 4.75 1.1 1.24 1.1 1.39-.15 1.68-5.62 1.61-5.26 1.75-13.44-6.21-4.24-4.16-8.91-8.18-10.37-8.91-1.39-.8-2.78-2.12-3-2.92-.22-.88-.8-6.57-1.31-12.78-1.61-20.97 1.97-48.36 10.81-82.25 1.75-6.87 4.82-18.7 6.79-26.3 1.97-7.67 4.16-17.39 4.89-21.77.66-4.31 1.39-7.82 1.53-7.82s1.75 2.26 3.51 5.11ZM283.01 578.92c0 9.72-.66 11.61-2.19 6.79-.95-2.7-2.19-14.76-1.68-15.78.15-.29 1.1-.51 2.12-.51h1.75v9.5Zm-.73 60.92c.58.07 1.31.88 1.53 1.9.73 2.78.73 10.23.07 10.23-1.53 0-7.45-10.3-7.45-12.93 0-.22 1.1-.07 2.41.22 1.24.29 2.85.51 3.43.58Z" vector-effect="non-scaling-stroke"/></svg>