<svg xmlns="http://www.w3.org/2000/svg" viewBox="0 0 850 1250"><path fill="#fff" d="M582.86 677.29c-5.58-11.04-5.58-37.61-5.58-37.61-13.88-171.93-20.53-177.51-20.53-177.51-3.92-25.99 3.68-109.52 3.68-109.52 7.95-83.53-17.68-95.28-17.68-95.28l-9.37-6.05c9.37-2.37 9.73-7.83 9.73-7.83-17.68.83-8.19-20.41-8.19-20.41 7.83-13.29 2.37-28.24 2.37-28.24 14.83-24.32-9.37-57.19-9.37-57.19 3.09-8.66-24.32-43.07-24.32-43.07-6.29-7.83-23.61-45.56-23.61-45.56-20.53-39.16-68.58-26.82-68.58-26.82s-58.26 6.41-58.97 66.69c0 0-2.37 42.36-9.49 51.02 0 0-10.32 21.83-8.66 43.07 0 0-18.87 63.36.71 79.74 0 0-27.29-4.51-27.29 40.11v45.09s-15.9 27.88 4.51 51.38l4.63 60.04s-14.12 45.33-16.97 85.2c0 0-9.73 47.58-15.19 66.33-5.58 18.75-8.19 21.6-7.12 29.9 0 0-13.29 28.24-13.29 37.61 0 0-4.39 7.24-2.73 11.63 0 0-6.64 19.93-4.39 24.32 0 0 14.36 19.93 18.27 23.26 0 0 3.32-6.05-2.73-15.43l-3.32-12.7s11.04 6.64 13.29 7.71c0 0 15.43 1.07 23.73-3.92 0 0 5.58-8.31.59-9.37 0 0 1.07-4.98-2.73-6.64 0 0-3.32-11.04 1.07-22.07 0 0 7.24-13.76 3.32-34.29 0 0 6.05-34.29 13.29-44.73l2.25 6.05s-.24 22.54-3.68 48.65c0 0-8.9 111.66 3.8 178.11 0 0 4.98 41.53 3.32 64.19 0 0-3.32 32.63 5.58 40.94 0 0 0 13.88 5.58 18.75 0 0 13.88 54.46 34.89 114.5 10.8 30.73 7.71 54.7 7.71 54.7-3.92 11.63-11.04 41.53-11.04 41.53-17.09 9.37-19.34 25.99-19.34 25.99-6.05 2.73-6.64 17.09-6.64 17.09-5.58 18.75 13.29 16.02 13.29 16.02 51.38-6.64 46.99-33.7 46.99-33.7 1.66-16.02 19.22-43.19 19.22-43.19l.12 25.39c3.92 4.39 6.53-.47 6.53-.47.12-18.39 5.7-36.07 5.7-36.07 18.27-16.02 7.24-23.73 7.24-23.73 0-4.39-6.64-9.97-6.64-9.97 2.25-5.58-6.05-10.56-6.05-10.56-5.58-4.39-11.63-16.61-11.63-16.61-7.71-12.7-4.98-55.89-4.98-55.89 12.7-37.02-13.41-85.2-13.41-85.2 3.2-15.43 1.31-49.72 1.31-49.72-1.07-30.38 13.88-88.52 13.88-88.52 12.22-24.8 14.48-74.75 14.83-94.69 1.66 11.27 8.42 25.16 8.42 25.16 9.49 20.41 15.43 50.31 15.43 50.31 3.8 28.48 11.04 50.9 11.04 50.9.59 13.29 14.36 55.29 14.36 55.29-2.25 36.55 13.88 47.58 13.88 47.58 2.25 12.22 3.32 78.55 3.32 78.55-1.07 61.35-17.68 97.89-17.68 97.89-9.37 9.97-29.31 71.31-29.31 71.31-10.56 6.64-18.75 19.93-18.75 19.93-4.39 0-11.04 12.22-11.04 12.22-21 12.7 13.29 19.93 13.29 19.93 53.63 5.58 58.85-18.27 58.85-18.27 3.92-11.63 18.39-42.6 18.39-42.6v24.32c2.49 4.98 8.42 0 8.42 0-1.66-16.02 6.29-36.55 6.29-36.55 17.68-27.65 5.81-28.24 5.81-28.24 1.66-9.37-10.44-21.6-10.44-21.6-2.25-5.58 3.32-18.75 3.32-18.75 53.04-117.83 29.31-176.44 29.31-176.44-1.07-12.7-6.64-45.33-6.64-45.33 5.58-48.65 1.66-108.33 1.66-108.33 2.73 4.98 19.93-3.32 19.93-3.32l12.1-8.31c5.58-2.73 11.75-27.53 11.75-27.53 4.39-6.76-9.61-40.58-9.61-40.58Zm-60.16-87.92-2.73-6.05c-.59-15.43-38.68-95.64-38.68-95.64-4.98-15.43 7.24-66.92 7.24-66.92 0-4.98 16.02-37.61 16.02-37.61l7.12 84.6c-7.59 33.58 30.02 152 31.56 156.75v.12-.12c-3.09-9.73-20.53-35.12-20.53-35.12Zm26.46 138.95 1.19-33.34c3.2 6.29 4.15 16.61 4.15 16.61-.83 15.43-5.34 16.73-5.34 16.73Z"/></svg>