<svg xmlns="http://www.w3.org/2000/svg" viewBox="0 0 850 1250"><path fill="#fff" d="M492.92 13.57h1.22c8.75 2.8 18.36.25 26.68 4.72-4.42-8.75 6.46 5.52 9.19 4.26-.65-2.46 3.96 2.05 2.53-.41-.49-2.14-5.71-6.12-1.24-6.01 4.85 1.06 4.44 5.97 8.46 11.25 3.64.53 11.6 4.08 8.93 9.56 1.76 1.66 10 1.16 4.63 2.06 8.55 5.05 10.1 15.04 15.16 23-3.08-.73-1.47 3.49-1.71 5.31 2.09 10.05 3.13 23.41-2.45 30.72-1.69 10.53-5.39 20.6-9.76 30.27-6.24 3.63-4.6 16.5-11.72 17.12-3.03 5.57-5.73 11.37-8.59 17.03 3.18 9.37 4.47 19.3 6.56 28.96-3.53-1.28-3.96-1.06-5.85 1.93 3.06-1.74 5.15 7.26 1.47 5.04-5.55-2.09 2.94 10.49-3.19 8.26-5.99-3.58 4.06 10.49-3.79 8.07 1.23-9.35-2.68-18.67-3.61-28.08-.42-4.88 4.57-11.58 1.83-15.24-3.71 10.18-12.5 17.22-20.05 24.07 5.02 2.68 7.17 7.73 7.7 13.13 3.47 11.54 12.79 19.67 19.67 29.15 2.15 4.44 7.39 4.05 11.4 5.37 14.06 3.12 24.97 15.12 28.83 28.72 5.81 13.74 7.66 28.53 9.37 43.2v29.23c-4.21 19.23-1.5 39.1-4.97 58.43-5.84 23.1 3.14 46.42.3 69.8 4.91 45.45-13.06 88.7-16.36 133.52-8.02 16.62-5.15 35.58-7.43 53.37-5.71 11.46-9.44 24.48-19.83 32.66-5 .83-9.43 3.37-14.37 4.46.6 28.64 2.89 57.24 4.47 85.87 2.91 50.58 1.16 100.73 5.12 151.21-.02 9.3-2.74 18.89.16 27.99.6 1.59 4.63 4.13 1.3 4.85-10.61.84-21.36 2.31-31.99.98-7.98 1.53 2.02-9.72-7.62-7.24-2.3 22.07-7.9 43.77-14.83 64.82 2.95 20.97 8.13 42.79 20.19 60.69 7.25 6.58 10.59 16.06 16.02 24.15 5.27 16.37-9.3 29.55-13.25 44.51-2.86 13.26-1.97 26.95-2.07 40.42-2.39.41-4.98.82-7.24-.24-3.96-15.74 8.37-41.07-10.08-50.71-10.61 7.13-9.95 22.7-18.65 31.52-3.12 9.15-15.82 6.94-21 13.75-2.03 6.52-.15 25.04-11.79 16.3-.25-6.6 5.52-20.88-6.02-18.73-8.18 10.47-2.47 28.02-13.25 37.5-14.82 6.59-31.69 4.9-47.37 7.88h-4.96s-.02.03-4.6 0h-5.71c-4.63-.75-9.53-1.17-13.7-3.48-4.29-5.87-.68-12.54-3.31-18.62-.9-12.38 14.42-14.04 19.53-23.21 4.09-7 14.42-8.14 15.95-16.81 18.08-50.42 48.95-99.3 43.87-154.96-14.12-23.04-29.8-45.32-41.42-69.81-6.72-11.69-14.68-22.68-22.9-33.31-9.9 2.56-13.97-9.35-23.21-9.72-9.29.46-18-2.92-27.09-3.65 5.61-45.64 7.53-91.59 13.51-137.17 5.56-34.55 5.71-68.64 9.09-103.63 3.61-31.39 6.36-63.04 10.57-94.26-.44-7.88 7.17-19.22 2.9-28.52-5.18 8.56-11.91 16.39-15.02 26.06-1.45 9.74.45 20-3.3 29.38-4.07 10.99-11.82 22.96-5.99 34.73 1.69 5.3 9.13 7.61 7.96 13.89-6.92 2.6-13.55-4.98-17.65-9.79.59 9.15 13.45 10.95 15.72 19.37-.47 3.54-4.34 3.39-7.03 3.06-1.15 8.85-13.62-3.65-14.87 5.33-8.42-.39-15.28-8.46-20.32-14.84-8.39-8.15-2.45-20.95-6.6-30.67v-4.7c10.65-19.41 22.28-38.76 25.4-61.17 9.99-29.64 22.11-58.6 28.45-89.35 9.09-20.13 6.54-42.25 8.77-63.69 2.61-20.5 1.85-39.91 4.63-58.71 6.42-11.48 13.18-22.89 19.06-34.63 7.68-8.14 6.32-23.55 14.14-33.01 2.35-10.34 3.93-21.24 7.69-31.31 5.45-12.06 19.7-15.78 31.76-16.95 10.99 3.35 15.09-9.98 23.91-13.67 8.95-4.07 2.75-12.06 5.25-19.44-9.98 2.46 2.62-11.96-.29-15.74-4.5-.5.56 8.28-4.08 8.4-2.8-.31-.47-3.77-.18-5.39 3.21-4.35-6-2.03-2.97-5.64 1.96-9.66 7.09-18.28 10.3-27.57 4.26-2.6-4.76-2.76-4.75-6.7-2.88-11.29-4.94-23.64-3.45-35.09 11.8-13.66 4.09-33.9 14.3-48.39 2.96-7.43 9.56-12.05 14.57-17.97.58-2.08-1.08-1.71-2.45-1.16 3.86-3.41 9.47-3.91 13.5-6.96 4.19-9.19 18.7-4.1 23.95-8.97m26.87 376.08c-3.57 7.7-4.63 16.46-10.53 23.14-2.56 16.66-1.25 33.96-4.34 50.5 1.1 5.23 1.31 12.93-4.69 15.27-3.96-1.22-.65-6.18-.56-8.93 1-15.57 2.44-31.02 4.55-46.39-13.66 12.06-7.35 34.11-7.47 50.6 2.48 4.24-5.39 8.9-6.41 3.75.37-11.54-.13-23.05 1.85-34.5-2.38 3.66-3.32 8.64-3.56 12.47-9.39 2.22 4.76 10.24-2.38 14.37-8.4 4.94 1.62 14.71-4.54 21.13 2.41 5.86 8.08 11.65 5.27 19.06-3.14 5.12 5.21 7.9 3.65 13.38 8.02 17.32 14.1 35.59 25.04 51.36 5.11 9.37 7.14 20.04 9.75 30.18 6.66-8.25 7.47-19.49 8.05-29.65.27-36.01-5.69-71.8-6.2-107.78-3.5-25.77-1.7-53.15-7.51-77.96Zm-17.37 36.26q.33.33 0 0Zm-5.35 39.48q.33.33 0 0ZM307.75 638.7q.33.33 0 0Zm5.35 88.34q.33.33 0 0Zm-16.05 158.58q.33.33 0 0Zm43.49 309.13q.33.32 0 0Z"/></svg>