<svg xmlns="http://www.w3.org/2000/svg" viewBox="0 0 850 1250"><path fill="#fff" d="M442.74 26.63c-.18.25-2.89 4.31-6.06 9.07-3.14 4.74-7.17 10.61-8.92 13.04-7.32 10.06-9.44 14.12-11.2 21.63-1.05 4.43-.77 14.55.65 25.22.65 4.64.77 5.88.77 6.89v1.17l-3.05.49c-1.66.28-4.55.98-6.37 1.57-3.2 1.05-3.78 1.08-3.81.15 0-.09 1.17-.58 2.58-1.08 1.45-.46 2.55-.92 2.49-.98-.06-.09-1.23.25-2.61.71-1.35.49-2.52.83-2.58.74-.03-.06-1.11-3.11-2.31-6.74-1.23-3.63-2.34-6.89-2.49-7.23s-.65-1.6-1.11-2.77c-1.2-3.2-4-8.64-5.57-10.89-3.32-4.77-7.81-8.92-13.93-12.89-8.09-5.23-10.4-7.01-18.03-14-3.88-3.54-3.94-3.6-4.34-2.89-.62 1.2-1.05 10.34-1.11 23.47-.06 13.44.06 14.95 1.69 20.27 2.52 8.37 9.63 17.23 19.93 24.92 1.69 1.26 3.32 2.43 3.63 2.61.49.28.49.34 0 .62-.31.18-.55.68-.55 1.08 0 .46-.18.77-.43.77s-.55.15-.68.37c-.15.25-.06.28.28.15.31-.09.52-.06.52.06 0 .15-1.02.68-2.21 1.14-2.03.77-2.58 1.2-5.84 4.4-2 1.97-3.63 3.78-3.63 4.06 0 .74-1.11 1.66-1.42 1.17-.15-.25-.09-.31.18-.12.28.15.34.12.18-.09-.12-.22-.09-.37.06-.37.18 0 .37-.22.49-.46.25-.68.12-.58-1.35.98-.77.8-1.02 1.14-.52.74.46-.43.83-.58.83-.4s-.15.43-.31.52c-.18.12-.25.34-.15.49.12.15.03.28-.12.28-.18 0-.34.15-.34.31 0 .18-.55 1.11-1.2 2.09-.68.95-1.51 2.58-1.88 3.6-3.23 8.95-4 11.75-3.97 14.27.03 1.63.06 1.57.58-1.35.49-2.83 1.05-4.77 1.32-4.77.06 0-.22 1.85-.62 4.06-.65 3.63-.71 4.71-.55 9.47.18 6.52-.34 5.94-.74-.77l-.25-4.31-.06 4.31c0 2.4.09 4.46.25 4.61.31.34 1.14 5.08 1.38 8l.15 1.85-.43-1.23c-.22-.68-.43-1.08-.43-.89-.06.62 1.81 9.47 2.12 10.12.74 1.51.98 2.65 1.26 5.35.37 4.06 2.58 15.35 2.92 15.04.12-.12-.71-5.97-1.57-11.32-.68-4-.71-4.34-.52-4.15.52.52 3.17 8.64 3.45 10.58.34 2.37 1.17 5.78 1.2 4.95 0-.25-.18-1.29-.43-2.31-.71-2.95-.49-3.63.37-1.08.46 1.42.8 3.23.86 4.68.06 1.29.28 2.65.43 2.98.43.77.43 2.09.03 2.34-.18.12-.22.4-.03.71.18.34.18.74 0 1.08-.28.49-1.81 4.52-1.81 4.77 0 .06.12.03.28-.06.12-.09.22.18.15.58-.03.43-.03.77.03.77s.77-.83 1.57-1.85c.92-1.11 1.57-1.69 1.69-1.48.12.18 0 .71-.28 1.11-.28.43-.55 1.05-.58 1.38-.09.49-.03.55.34.25s.4-.25.28.28c-.09.37-.37.74-.58.83-.25.09-.43.37-.43.62 0 .4.06.4.52.06.46-.4.46-.37.12.25-.28.55-.28.89.09 1.6.25.46.37.98.25 1.11s.12.12.55 0c.68-.22.71-.18.34.28-.37.43-.34.49.09.49s.49.22.37.98l-.15 1.02.58-.77.62-.77v.86c0 .52.12.8.31.68.34-.22.15 1.51-.22 2.12-.12.18.03.15.28-.06.46-.37.55-.28.74.74.12.62.12 2.25.03 3.63-.15 2.28-.12 2.4.25 1.57.46-1.02.65-1.88.92-4.55.12-.95.31-1.69.46-1.6s.34-.03.43-.22c.09-.22.12.8.06 2.31s-.28 2.89-.49 3.14c-.22.28-.31.55-.25.65.09.09.55-.58.98-1.48l.83-1.63-.15 1.38c-.06.77-.22 1.66-.34 2s.15 0 .58-.74c.43-.71.8-1.69.83-2.15 0-.71.03-.74.25-.18l.25.62.18-.62c.37-1.08.31-4.83-.09-7.84-.58-4.64-.34-4.95 1.23-1.69 1.26 2.55 1.35 3.01 1.54 6 .12 1.78.25 2.74.28 2.15l.09-1.08.28.92c.18.49.25 2.03.15 3.38-.12 1.85-.09 2.31.18 1.88.25-.46.37-.49.58-.15.18.31.43.03.86-.95.62-1.29.65-1.32.46-.34-.12.71-.09.95.15.83.18-.12.4.15.52.65.12.46.34 1.02.49 1.2.12.18.15.62.03.92q-.18.55.55 0c.4-.34 1.26-1.17 1.91-1.85l1.17-1.26-.49 1.23c-.28.68-.34 1.08-.12.86.43-.43 1.2-.18 1.2.43 0 .25.12.37.28.28.15-.12.8.71 1.42 1.81l1.11 2.03.62-.77c.4-.52.58-1.23.58-2.34 0-2.09.46-1.72.92.74.4 2.12 1.17 3.69 1.26 2.49 0-.37.15-.18.34.46.15.58.52 1.32.8 1.6.31.31.8.83 1.11 1.17.46.46.68.52.86.25.12-.22.25-.28.25-.12 0 .12.34.03.77-.25s.77-.4.77-.28c.03.15.22-.22.46-.77s.58-.95.77-.83c.15.09.95 1.05 1.72 2.09.8 1.05 2.09 2.55 2.83 3.35l1.42 1.48.12 2.71c.12 2.58.09 2.77-.65 3.51-.65.65-.8 1.17-.95 3.35-.8 9.87-1.38 13.47-2.71 16.27-1.69 3.63-1.85 4.03-1.51 4.43.74.89-7.11 9.94-10.46 12.06-1.29.8-1.35.8-4.09.49-1.54-.15-4.95-.28-7.57-.25-3.91.06-5.17.22-6.98.77-4.31 1.29-8.15 3.51-10.61 6.06-3.41 3.6-6.86 10.8-8.83 18.43-2.31 8.95-1.48 23.84 2.46 43.53.89 4.61 2.06 11.1 2.25 12.61.49 4 .8 8.21 1.11 14.3.15 3.72.37 7.94.46 9.38.22 3.29.22 32.95.03 33.16-.25.22-4.74-2.52-11.23-6.86-3.32-2.18-7.41-4.89-9.11-6-13.9-9.01-27.01-20.06-32.55-27.47-1.72-2.28-6.58-9.97-7.72-12.15-.83-1.6-1.08-4.15-.86-8.64l.22-4.12 1.85-.52c2.68-.77 3.69-1.38 4.28-2.58.68-1.48.62-2.77-.22-3.75-.71-.83-1.08-.92-4.43-1.26-1.88-.18-1.94-.22-1.94-1.08 0-.8.06-.86.86-.68.46.12 1.6.52 2.52.89 2.52 1.05 7.51 2.09 8.92 1.91 1.38-.18 3.51-1.57 3.97-2.61.43-.89.43-2.09.03-2.83-.4-.71-4.8-3.63-8-5.29-1.69-.89-2.8-1.26-4.15-1.35-3.54-.28-3.85-.37-3.85-1.23 0-.4.18-.83.43-.92.22-.09 2.12.4 4.21 1.11s4.61 1.35 5.57 1.45c1.6.15 1.88.09 3.29-.8 1.69-1.08 1.88-1.42 1.88-3.05s-.58-2.55-2.37-3.6c-.89-.49-3.05-1.78-4.77-2.86-1.75-1.05-3.69-2.06-4.34-2.25-1.26-.34-1.29-.37-.8-1.78.34-.92.4-.95 2.06-.95 4.28-.03 7.78-.95 8.8-2.37.74-.98.98-3.35.52-4.8-.43-1.26-1.57-1.85-4.86-2.4-1.14-.18-2.65-.43-3.29-.55l-1.2-.18-.52-2.61c-.77-3.69-1.6-5.32-3.2-6.43-1.97-1.38-4.61-1.42-6-.12-.74.74-.98 1.42-1.57 4.25-1.08 5.17-.58 4.68-4.83 4.83-4.55.15-5.91.74-9.63 4.06-1.45 1.29-3.85 3.08-5.38 4.03-3.85 2.34-6.18 4.25-7.26 5.91-1.48 2.37-1.48 2.89-.15 10.18.4 2.18.43 2.68.06 3.38-.98 1.94-.77 5.81.55 10.06.28.83.77 3.81 1.11 6.61.95 8 2.49 13.97 4.86 19.07.68 1.45 1.94 4.28 2.83 6.31 3.45 8 3.88 8.58 11.07 14.92 4.77 4.18 7.78 7.11 19.87 19.23 11.01 11.04 15.66 16.03 23.01 24.76 9.26 10.98 13.38 15.66 16.8 19.07 3.85 3.81 7.91 7.17 12.15 9.94 3.48 2.28 9.57 5.63 12.4 6.8 3.91 1.66 9.14 2.18 12.24 1.26 2.92-.86 7.38-4.74 8.98-7.78 1.97-3.75 4.09-12.12 5.48-21.44.09-.52.34-1.97.58-3.23.34-1.97.95-5.44 1.23-7.08.65-3.91.86-4.95.92-4.86.06.06 1.05 2.25 2.25 4.86 5.94 13.2 12.09 29.87 12.7 34.45 1.08 7.87-.89 21.99-4.46 32.08-2.12 6.03-4.52 10.12-11.14 19.04-1.85 2.46-4.18 5.69-5.2 7.17s-2.15 2.8-2.49 2.92c-.37.15-1.69.37-2.92.49-1.26.12-2.55.4-2.89.62-.34.25-.92.43-1.32.43s-1.08.28-1.51.62-.98.62-1.23.62-1.2.65-2.12 1.42c-1.29 1.11-1.66 1.63-1.66 2.31 0 .46-.12.92-.28 1.02s-.37.52-.46.95c-.12.46-.68 1.48-1.26 2.31-.58.86-1.08 1.63-1.08 1.78s-.43.65-.95 1.17c-.8.77-.89 1.05-.74 1.94.18.89.09 1.17-.52 1.6-.62.49-.68.65-.37 1.48.25.58.25 1.02.06 1.2s-.18.52.03.92c.25.46.25.71 0 .86-.25.12-.28.77-.15 1.94.12.95.22 2.06.15 2.49-.18 2.34.31 7.91.83 8.89.25.43.43 1.02.43 1.26s.34 1.08.74 1.85.83 1.72.95 2.15.55 1.17.95 1.63c.4.49.74 1.2.74 1.63 0 .4.15.74.31.74.18 0 .31.28.31.62s.28.89.65 1.26c.74.74.83.43-2.09 6.8-3.51 7.66-6.03 16.24-6.83 23.32-.83 7.29-1.05 22.03-.37 26.92 1.42 10.4 3.91 18.3 11.41 35.99 7.54 17.72 13.29 32.55 15.93 40.91 2.43 7.69 3.63 12.24 6.52 24.46 6.55 27.75 8.61 34.73 17.53 59.22 1.05 2.86 2.49 6.95 3.23 9.07s1.97 5.57 2.71 7.69c2.92 8.24 7.6 22.86 8.8 27.53.28 1.08.18 1.94-.77 5.84-3.23 13.75-4.09 19.72-4.58 32.15-.22 5.48-.43 9.26-.65 11.01-.15 1.26-.31 1.45-2.98 3.41-1.57 1.14-4.71 3.35-7.01 4.89-10.43 7.08-17.69 14.21-23.41 22.98-5.04 7.72-8.15 15.63-9.94 25.22-.74 3.88-4.03 13.38-6.55 18.92-.49 1.11-2.15 4.71-3.69 8-2.74 5.97-4.21 9.47-6.37 15.07-1.94 5.08-6.03 16.06-6.98 18.76-6.34 18.03-8.09 22.49-11.94 30.3-3.66 7.41-6.89 11.23-9.47 11.23-.62 0-2.03-.28-3.14-.65-2.95-.92-5.35-1.05-8.06-.46-6.8 1.51-11.69 5.91-13.9 12.52-1.54 4.55-2.09 12.67-1.38 20.12 1.14 11.63 1.38 14.27 1.63 17.23.18 1.94.37 5.78.65 12.21.37 9.63.49 11.87.62 13.47.22 2.8.68 11.1.92 16.92.49 11.17 2.15 18.76 5.26 24.15.8 1.35 2.03 3.51 2.77 4.77.71 1.26 1.85 2.92 2.46 3.66 1.94 2.21 4.71 3.08 6.71 2.03.46-.25.92-.46.98-.46s.28.62.46 1.38c.46 1.88 1.91 3.78 3.26 4.34 1.14.49 2.4.37 3.81-.37.8-.4.83-.37 1.38.89 1.81 4.15 4.43 5.63 7.87 4.4 1.08-.4 1.17-.37 1.6.28.77 1.14 3.08 2.09 4.55 1.88 1.66-.28 2.86-.92 3.66-2l.65-.86 1.42.43c2.89.89 6.43 0 8.18-2.06.62-.77.8-1.29.8-2.43 0-1.66-.68-3.41-3.85-10-1.94-4.09-3.29-7.57-3.69-9.57-.09-.52-.31-3.57-.46-6.77-.31-5.69-.86-10.24-1.72-14.3-.95-4.31-1.08-5.17-1.17-8-.22-6.18.52-14.77 1.97-22.46 1.11-6 1.17-6.28 1.57-9.97.71-6.86 1.66-10.46 4.28-16.18 3.69-8.15 7.11-15.84 8.46-19.07 4.68-11.23 7.44-15.81 20.55-34.3 6.95-9.81 12.98-18.03 18.36-25.07 3.91-5.11 7.17-9.23 7.26-9.14.37.37.74 7.29.89 16.67.09 5.91.22 13.1.31 16 .09 2.86.22 8.55.34 12.61.09 4.06.25 7.57.31 7.81s.15 5.08.15 10.77c0 22.73-1.48 32.51-5.75 37.74-.71.89-1.91 1.72-3.88 2.74-5.48 2.83-8 4.95-10.15 8.49-2.89 4.77-3.63 10.67-2 15.6 2.55 7.63 6.95 14.4 15.29 23.44 8.12 8.83 11.6 13.57 14.37 19.63 1.48 3.26 2.52 6.28 4.55 13.29 3.01 10.46 5.32 16.73 7.6 20.52 1.45 2.46 5.78 6.92 8.15 8.4 2.61 1.66 4.06 2.15 6.37 2.15 1.69 0 2.31.18 5.57 1.81 2.03.98 4.25 1.97 4.92 2.15 3.01.83 8.52.09 10.98-1.48 1.14-.74 1.72-.89 3.35-.89 2.37 0 3.48-.4 4.8-1.66 1.11-1.08 2.43-4.46 2.12-5.41-.12-.34-.74-1.02-1.42-1.57s-1.23-1.23-1.23-1.54-.34-.83-.71-1.23c-.65-.55-.71-.89-.58-2.15.12-1.35.06-1.57-.68-2.03-.43-.28-1.26-1.17-1.81-1.97-.58-.77-2.15-2.61-3.51-4.09s-2.65-3.14-2.86-3.69c-1.51-3.78-4.64-10.4-6.09-12.86-4.61-7.78-5.84-10.55-8.24-18.58-1.94-6.58-5.69-22.61-6.89-29.56-1.02-5.97-1.17-9.91-1.08-25.69.06-13.2.18-16.49.92-22.24.06-.65.28-2.4.46-3.85.18-1.48.4-3.01.46-3.45s.49-3.05.92-5.84 1.32-7.91 2-11.38c.65-3.48 1.26-6.86 1.38-7.54.25-1.6 3.45-16.98 4-19.38.22-1.02.65-2.74.89-3.85s2.06-8.49 4.03-16.43c7.17-28.92 10.77-47.62 12.18-63.09.43-4.74.52-16.73.18-22.67l-.22-4.21 2.25-3.01c1.23-1.66 3.08-4.18 4.06-5.63s2.71-3.88 3.81-5.44c6.8-9.47 10.34-15.81 11.38-20.43.58-2.49.37-6.12-.58-10.92-1.29-6.34-1.45-7.38-2.15-14.92-.86-9.47-1.32-13.72-2-19.13-.09-.62-.22-1.66-.31-2.31-.28-2.31-2.03-15.63-2.15-16.36-.52-3.48-.55-3.29 1.81-10.15 5.72-16.61 8.43-24.58 8.89-26.15 5.23-17.96 6.46-22.52 10.21-37.37 5.11-20.24 8.21-34.08 11.2-50.08 4.8-25.53 5.57-39.47 3.41-60.69-.34-3.26-.68-6.37-.77-6.92-.18-1.17-1.94-15.66-2.15-17.81-.06-.77-.28-2.83-.46-4.61s-.4-3.66-.49-4.15c-.09-.52-.25-3.91-.34-7.54-.22-8.46.09-11.32 2.98-27.69.55-3.05.65-4.58.52-7.38-.18-4.12-.58-5.81-2.71-10.89-.86-2.03-1.91-4.55-2.34-5.57-.58-1.48-.8-2.71-1.02-6.06-.4-5.88-1.32-9.54-3.2-12.49-.95-1.51-1.23-4.12-.8-7.14.62-4.31.71-7.72.31-11.2-.37-3.26-.34-3.57.4-7.41.77-3.91.89-4.18 4.8-12 4.43-8.83 5.6-12 7.17-19.66.8-3.81.98-5.35.98-8.49v-3.85l1.02 2.15c3.38 7.2 4.06 10.31 5.32 23.53.77 8.12 1.51 12.43 3.23 19.38.74 2.95 1.69 7.32 2.15 9.69s2.12 10.8 3.72 18.76c2.61 13.04 3.69 18.86 4.31 23.38.09.83.25 1.81.31 2.15.37 2.03 1.2 10.49 1.81 18.3.34 4.4.4 11.23.15 13.84-.31 2.89-1.48 8.95-2.61 13.66-.89 3.51-1.69 5.23-4.71 9.84-3.23 4.95-4.09 7.57-7.17 21.72-.34 1.6-.68 3.2-.77 3.54s-.28 2.21-.46 4.15c-.65 7.41-1.26 11.35-2.58 16-1.51 5.38-1.97 7.57-2.18 10.46-.31 4.09-.28 5.94.18 6.77.77 1.42 4.31 2.03 6.15 1.08 3.08-1.6 5.78-8.27 5.88-14.52.03-1.72.03-1.69.55 1.29.52 3.05.52 3.11-.15 6.46-2.28 11.14-2.03 10.46-5.63 15.57-1.42 1.97-2.49 3.14-3.72 3.97-2.15 1.48-3.57 3.05-4.49 5.04-.92 1.97-.95 3.81-.12 4.89l.65.8-.65 1.38c-1.17 2.58-.52 5.17 1.48 6l.95.4 5.32-4.95c3.41-3.17 6.18-5.44 7.63-6.31 1.6-.95 3.41-2.49 5.84-4.95 1.94-1.97 4.34-4.21 5.29-4.98 2.03-1.63 3.05-3.38 3.78-6.71.28-1.2 1.66-5.57 3.08-9.72 2.74-8.06 3.66-12.21 4-18.27.25-4.12.62-6.71 1.85-12.92 1.26-6.43 2.03-12.3 2.58-20.46.22-2.89.4-3.57 1.6-6.31l1.35-3.08-.09-9.35c-.06-5.17-.15-9.87-.25-10.46-.43-3.6-.49-40.88-.09-62.48.46-26.61.46-31.31-.03-38.7-.77-11.17-1.85-15.04-7.47-26.45-2.34-4.74-4.55-9.81-5.88-13.44-4.74-13.07-6.43-17.23-11.35-28.18-1.26-2.8-3.48-8.4-4.92-12.46-3.23-9.17-3.17-8.95-3.6-12.18-.18-1.48-.62-3.75-.95-5.08s-.95-4.06-1.38-6.06c-.83-3.88-1.69-5.97-3.17-7.63-.77-.89-1.02-1.66-1.69-5.17-.43-2.28-1.08-6.09-1.42-8.46-2.15-14.86-3.72-23.56-5.29-29.19-4.09-14.83-11.17-23.5-22.46-27.44-4.37-1.54-5.17-1.63-22.89-2.74-8.09-.52-9.75-.83-12.43-2.46-.92-.55-2.46-1.32-3.38-1.69-3.78-1.48-6.18-4.25-7.38-8.52-.34-1.14-.62-2.15-.62-2.25 0-.28 1.38-.22 1.57.09.18.28.28.09 1.66-3.63.46-1.2.92-2.43 1.08-2.77.46-1.02 1.54-4.52 1.54-4.98 0-.25.62-1.6 1.38-3.01l1.42-2.58-.34-3.17c-.34-3.45-1.48-6.43-2.52-6.58-.31-.03-1.42.12-2.46.34-1.08.22-2.03.34-2.15.25-.15-.06-.25-1.2-.25-2.49 0-2.58-.43-4.55-1.14-5.35-.65-.74-.28-6.15.52-7.47.86-1.45 3.23-6.86 4.74-10.83 1.63-4.25 2.74-8.15 3.38-11.78.43-2.43 1.42-9.81 1.42-10.67 0-.22.22-.31.52-.18.37.15.43.09.25-.25-.25-.37-.18-.37.28 0 .4.34.62.34.86.09.28-.28.18-.55-.34-1.11l-.68-.71.77.12c.65.12.74.06.58-.52-.18-.71 0-.71 1.69-.09.18.09.37 0 .37-.18s.18-.25.43-.15c.83.31.8-.43-.03-1.11-1.08-.86-1.91-2.25-2.09-3.54-.12-.98-.09-1.02.8-.92.77.12.89.06.58-.31-.28-.34-.22-.37.31-.25.37.09.58.34.49.58-.09.22 0 .49.22.62s.28.12.15-.03c-.12-.12-.09-.46.06-.77.22-.43 0-.86-1.08-2.03-1.11-1.23-1.32-1.66-1.2-2.43.09-.74.09-.8-.15-.31-.25.58-.28.58-.46-.15-.83-3.54-.98-6.34-.49-8.4.18-.71.52-2.74.77-4.52.43-3.11.43-2.28.03 2.61-.15 1.69-.12 1.66.28-.58.25-1.32.52-2.49.62-2.58.12-.12.15 2.37.09 5.54-.06 3.14 0 5.66.15 5.57.12-.06.22-1.57.22-3.32s.12-3.29.31-3.38c.18-.12.31 1.17.34 3.6.03 2.21.12 3.48.28 3.01.18-.71.25-.68.43.46.43 2.28.8 3.38 1.42 4.4.68 1.11 1.48 1.08.89-.03-.22-.4.25-.09 1.14.74 1.97 1.85 4.37 3.23 4.8 2.8.22-.22-.28-.71-1.54-1.57-1.05-.68-1.97-1.42-2.09-1.6-.15-.25-.09-.28.18-.12.43.28 1.26.43 3.32.68 1.38.15 1.75-.25.71-.8-.77-.43-2.15-2.92-2.31-4.15-.06-.52-.28-1.35-.46-1.85-.25-.62-.25-1.02-.06-1.2.22-.22.37-.15.49.18.09.28.22.77.34 1.05.12.43.22.43.4.12s.31-.28.43.12c.12.28.09.4-.09.31-.43-.28-.37.22.12.83.46.65 1.6.77 1.23.18-.4-.65-.37-1.51.03-1.17.22.15.46.22.55.09.12-.09.22 0 .25.25s.12.09.25-.34c.15-.43.12-1.02-.03-1.32-.31-.62-.15-.65.65-.15.46.28.68.25 1.05-.12.43-.4.4-.52-.12-.95-.71-.62-.8-1.6-.12-1.32.71.25.55-.28-.22-.86-.4-.28-.52-.43-.31-.34.68.34 2.21.43 2.21.15 0-.12-.18-.34-.37-.4-.22-.09-.06-.18.34-.18.71-.03.74-.06.18-.65-.52-.58-.52-.62 0-.62.43 0 .46-.09.18-.43-.58-.68.22-.95.92-.31.52.49.58.49.58.03 0-.31.15-.52.34-.52.25 0 .22-.15-.03-.46-.52-.65-.12-.98.62-.52.77.46 1.17.49.71.03-.18-.18-.28-.55-.18-.77.09-.25 0-.43-.22-.43-.18 0-.28-.12-.15-.28.09-.15 0-.4-.15-.49-.18-.12-.31-.65-.25-1.17.06-.77-.06-1.05-.62-1.32-.95-.49-1.66-1.2-.89-.95.86.31.58-.03-.46-.58-1.14-.55-3.32-2.55-3.32-3.01 0-.18.15-.15.37.06s.58.37.83.37c.28 0-.06-.34-.71-.77-1.38-.83-1.97-1.66-1.45-1.97.18-.12-.03-.43-.58-.77-.95-.55-1.97-2.28-2.92-5.01-.31-.86-.71-1.57-.86-1.54-.4.09-2.06-4.15-2.37-6.06-.43-2.58-3.23-12.03-4.74-16-.77-2-1.42-3.81-1.42-4 0-.46 1.32 2.43 2.18 4.74.37 1.02.8 1.94.92 2.03.31.18-.55-2.8-1.14-3.94-.52-.98-.55-1.26-.12-1.02.18.09.22-.03.12-.28-.09-.28-.34-.4-.52-.28-.18.09-.22.03-.09-.18.12-.18-.18-1.11-.71-2.06-1.26-2.18-2.55-5.11-2.18-4.89.15.09.86 1.14 1.57 2.31.71 1.2 1.32 2.15 1.38 2.15s-.31-.86-.86-1.94c-.55-1.05-1.02-2.06-1.02-2.21 0-.18-.74-1.42-1.6-2.74-1.57-2.34-1.97-3.2-1.35-2.8.46.28 3.11 4.64 3.26 5.32.12.74 1.45 2.83 1.78 2.83.12 0-.12-.62-.58-1.38-.43-.77-.74-1.48-.65-1.57s.31.12.52.46c.18.37.46.65.65.65.15 0-.25-.74-.89-1.63-.68-.86-2.37-3.48-3.78-5.75-1.51-2.46-3.81-5.63-5.69-7.81-1.75-2.03-3.11-3.75-3.05-3.88.15-.25-3.26-3.69-3.63-3.66-.15.03-1.35-.89-2.68-2-2.52-2.09-7.63-5.72-8.09-5.72-.12 0-.15.18-.03.37.12.25.09.31-.06.15s-.28-.43-.28-.58c0-.43-4.52-2.71-7.54-3.81-1.26-.46-2.34-.86-2.4-.89-.03-.06.68-1.29 1.63-2.8 6.43-10.18 10.31-22.64 10.31-33.19 0-5.57-.58-8.71-3.41-18.73-.68-2.37-1.26-4.58-1.32-4.92-.06-.37-.49-1.97-.92-3.57-1.17-4.28-1.6-5.81-2.95-10.92-1.23-4.55-2.06-6.92-2.43-6.92-.09 0-.34.18-.49.4Zm-28.24 78.23c-.09.09-.37.12-.58.03-.25-.09-.15-.18.18-.18.34-.03.52.06.4.15Zm-4.92 1.23c-.09.09-.37.12-.58.03-.25-.09-.15-.18.18-.18.34-.03.52.06.4.15Zm8.62.3c-.09.09-.37.12-.58.03-.25-.09-.15-.18.18-.18.34-.03.52.06.4.15Zm-11.14 2.28c-.83.37-1.32.37-.77 0 .25-.15.68-.28.92-.28.31 0 .25.09-.15.28Zm19.84 1.54c.37.25.31.31-.31.28-.43-.03-1.11-.15-1.54-.28-.71-.22-.68-.25.31-.28.58 0 1.29.12 1.54.28Zm23.53.92c.09.18-.03.22-.28.12-.55-.22-.65-.43-.22-.43.18 0 .4.12.49.31Zm4.25 3.48c1.2 1.05.52.77-1.17-.49-1.75-1.32-2-1.63-.83-.95.58.31 1.48.98 2 1.45Zm4.15 2c.46.4.03.18-.92-.43-.98-.62-1.78-1.2-1.78-1.26 0-.22 1.78.89 2.71 1.69Zm.37 1.44c.22.28-.31.06-1.17-.49-.89-.52-1.6-1.05-1.6-1.11 0-.25 2.37 1.14 2.77 1.6Zm2.09 2.52c1.05.74 1.91 1.42 1.91 1.51 0 .18-.12.12-2.31-1.29-1.48-.92-3.17-2.49-2-1.81.25.12 1.32.86 2.4 1.6Zm3.91 1.33c.31.34.49.62.4.62s-.4-.28-.71-.62-.49-.62-.4-.62.4.28.71.62Zm-1.39 2c.4.43.65.77.55.77-.06 0-.46-.34-.86-.77s-.65-.77-.55-.77c.06 0 .46.34.86.77Zm.62 1.84c0-.12.22-.06.46.15s.37.52.25.71c-.09.15-.06.22.12.12.34-.22 2.43 1.88 3.48 3.48.65 1.02.58.98-.68-.31-.77-.77-1.88-1.75-2.49-2.21-.58-.49-1.42-1.32-1.78-1.85q-.71-1.02-.03-.43c.37.34.68.49.68.34Zm2.55 3.6c.25.4 1.17 1.45 2.03 2.37.86.89 1.48 1.78 1.35 1.97-.22.34-3.66-3.29-4.55-4.8-.52-.86-.52-.89.06-.55.34.15.83.62 1.11 1.02Zm7.14 9.01c.46.83.71 1.38.52 1.23-.62-.62-3.14-4.49-3.14-4.86 0-.43 1.48 1.63 2.61 3.63Zm.34 2.83c2.55 4.12 3.91 6.55 3.75 6.74-.09.06-.8-1.02-1.6-2.4-.8-1.42-2.15-3.6-2.95-4.86-.83-1.26-1.78-2.8-2.15-3.38l-.62-1.08.86.98c.46.52 1.69 2.34 2.71 4Zm-108.13-1.66c-.31.28-.34.25-.15-.18.09-.31.28-.46.37-.37s0 .34-.22.55Zm110.83 3.51c.28.55.43 1.02.37 1.02-.18 0-1.11-1.69-1.11-2.03s.15-.09.74 1.02Zm-111.94.89c-.52 1.72-.92 2.21-.62.74.34-1.72.49-2.15.77-2.15.15 0 .09.65-.15 1.42Zm-3.13 2.96c-.09.74-.31 1.54-.46 1.78-.18.31-.22.03-.09-.77.37-2.4.83-3.26.55-1.02Zm-1.57 15.31-.28 4.77-.06-5.11c0-2.8.06-5.78.22-6.61l.22-1.51.09 1.85c.03 1.02-.06 4-.18 6.61Zm2.4-2.64c0 2.77-.18 2.52-.43-.58-.15-1.72-.12-2.34.09-2 .18.25.34 1.42.34 2.58Zm-1.26 6.98c.25 1.88.28 1.91.34.58l.06-1.38.4 1.69c.22.92.62 3.57.89 5.84.62 5.35 1.14 8.98 1.32 8.83.06-.09-.09-1.88-.37-4-.25-2.12-.46-4.12-.43-4.43.03-1.14.49.62.86 3.29.55 3.97.95 5.84 1.63 7.69.34.92.8 3.2 1.05 5.08.25 1.85.52 3.97.62 4.68.12.74.12 1.32.03 1.32-.18 0-.89-2.25-2.21-7.08-1.38-5.08-2.21-7.78-3.05-10.15-1.05-2.95-.83-1.69.4 2.49.52 1.78 1.05 3.91 1.14 4.71.12.77.31 1.42.43 1.42.34 0 .55.68 1.23 3.81.34 1.54.71 3.14.8 3.57.31 1.42-.49.18-.95-1.42-.25-.83-1.26-3.94-2.31-6.89-2.06-5.97-2.03-5.69-2.34-17.38-.12-5.04.03-5.72.46-2.28Zm.24-1.2c-.09.22-.15.06-.15-.37s.06-.58.15-.4c.06.22.06.58 0 .77Zm122.77 5.57c.95 2.28 1.48 4.21 1.17 4.21-.43 0-1.72-2.46-2.03-3.85-.15-.86-.4-1.88-.46-2.25-.34-1.38.4-.37 1.32 1.88Zm1.6 6.52c0 .25-.06.46-.12.46s-.18-.22-.31-.46c-.09-.25-.03-.46.12-.46.18 0 .31.22.31.46Zm-117.38 7.05c.28 1.32.46 2.49.37 2.55-.18.18-.74-1.63-.95-3.14-.09-.68-.25-1.57-.34-2-.34-1.94.49.34.92 2.58Zm113.35.18c.03.4 0 .4-.28 0-.15-.25-.28-.74-.28-1.08v-.62l.28.62c.15.34.28.83.28 1.08Zm8.64 1.23c.18.34.25.62.18.62-.09 0-.31-.28-.49-.62s-.25-.62-.18-.62c.09 0 .31.28.49.62Zm-121.07 4.46c.15.68.12.8-.12.46-.15-.25-.31-.74-.31-1.05 0-.8.18-.55.43.58Zm113.05 4.31c0 1.02-.12 2.12-.28 2.46-.15.37-.22-.28-.12-1.69.06-1.6.03-2.03-.15-1.38-.25.89-.28.89-.31-.34 0-.71.06-1.75.18-2.31l.22-1.05.22 1.23c.15.68.25 2.06.25 3.08Zm11.9-.25c-.18.22-1.72-.49-1.72-.8 0-.15-.09-.55-.22-.86-.12-.34.22-.18.92.49.62.58 1.08 1.11 1.02 1.17Zm-126.09.31c-.09.31-.15.12-.15-.37 0-.52.06-.74.15-.55.06.22.06.65 0 .92Zm116.19 4.21c.12 2.34.43 4.83.68 5.51.46 1.29.37 1.91-.12.92-.4-.77-1.54-5.75-1.75-7.72-.18-1.78.4-4.58.8-3.57.09.34.31 2.49.4 4.86Zm-114.99-.27c.28 2-.03 1.69-.43-.4-.15-.92-.18-1.54-.03-1.38s.37.95.46 1.78Zm-.98-.1c.12.86.06 1.51-.12 1.63s-.31-.46-.31-1.57c0-2.06.15-2.09.43-.06Zm113.6.93c-.09.25-.18.15-.18-.18-.03-.34.06-.52.15-.4.09.09.12.37.03.58Zm-112.01 16.18q-.55.49-.18-.18c.18-.4.43-.65.55-.55.09.12-.06.43-.37.74Zm2.28 4.4c-.22.34-.43.55-.52.46s0-.37.22-.65c.55-.65.71-.58.31.18Zm16.37 10.79c.06.77-2.15 5.04-2.43 4.74-.09-.09-.03-.55.15-1.02.22-.46.49-1.51.68-2.28.15-.8.43-1.81.62-2.31.31-.77.4-.83.65-.37.15.28.31.83.34 1.23Zm79.91 56.39c0 .37-.15 1.48-.37 2.49-.31 1.51-.4 1.69-.58 1.05-.12-.43-.22-1.78-.25-3.05-.03-2.25-.03-2.28.58-1.72.34.31.62.86.62 1.23ZM362.09 169.73c0 .68.06.92.12.52.06-.37.06-.92 0-1.23-.09-.28-.15.03-.12.71Zm.3 2.77c0 .68.06.92.12.52.06-.37.06-.92 0-1.23-.09-.28-.15.03-.12.71Zm52.76-69.77c.22.09.49.06.58-.03.12-.09-.06-.18-.4-.15-.34 0-.43.09-.18.18Zm-1.85.31c.18.06.55.06.77 0 .18-.09.03-.15-.4-.15s-.58.06-.37.15Zm-1.53.31c.22.09.49.06.58-.03.12-.09-.06-.18-.4-.15-.34 0-.43.09-.18.18Zm-1.23.31c.22.09.49.06.58-.03.12-.09-.06-.18-.4-.15-.34 0-.43.09-.18.18Zm51.58 14.55c.31.34.62.62.71.62s-.09-.28-.4-.62-.62-.62-.71-.62.09.28.4.62Zm-97.39 16.82c-.4.49-.37.52.12.12.28-.22.52-.46.52-.52 0-.25-.25-.09-.65.4Zm116.62 10.25c.18.34.4.62.49.62.06 0 0-.28-.18-.62s-.4-.62-.49-.62c-.06 0 0 .28.18.62Zm.12 2.76c.52.98.98 1.75 1.05 1.69.15-.12-1.42-3.17-1.72-3.35-.15-.09.15.65.68 1.66Zm1.42 8.06c0 .06.43 1.54.92 3.32.58 1.97.86 2.68.77 1.85-.18-1.38-1.32-5.23-1.57-5.23-.06 0-.12.03-.12.06Zm1.57 1.33c.03.58.55 1.57.55 1.08 0-.25-.12-.68-.28-.92s-.28-.34-.28-.15Zm-125.45 12.3c0 .68.06.92.12.52.06-.37.06-.92 0-1.23-.09-.28-.15.03-.12.71Zm.28 2.46c0 .49.06.68.15.37.06-.28.06-.71 0-.92-.09-.18-.15.03-.15.55Zm127.9-.03c0 .25.12.52.28.62.15.12.22-.09.12-.43-.18-.71-.4-.8-.4-.18Zm-128.24 12.8c0 .09.18.77.4 1.54.25.77.46 1.11.46.77 0-.52-.8-2.71-.86-2.31Zm.92 3.57c0 .34.09.43.18.18.09-.22.06-.49-.03-.58-.09-.12-.18.06-.15.4Zm119.39 8.12c0 .58.06.83.15.52.06-.28.06-.77 0-1.08-.09-.28-.15-.03-.15.55Zm2.46 6.46c0 .43.06.58.15.37.06-.18.06-.55 0-.77-.09-.18-.15-.03-.15.4Zm.24 2c0 .95 1.02 3.23 2.12 4.68.46.62.58.68.43.25-.18-.55-.09-.52.65.12.92.86 2.03 1.23 1.38.46-.18-.22-.46-.37-.58-.28-.25.15-3.08-3.32-3.08-3.78 0-.15-.22-.77-.46-1.32l-.43-1.05-.03.92Zm-113.47.33c0 .34.09.43.18.18.09-.22.06-.49-.03-.58-.09-.12-.18.06-.15.4Zm-2.16 2.47c0 .34.09.43.18.18.09-.22.06-.49-.03-.58-.09-.12-.18.06-.15.4Zm118.4-.07c0 .06.25.31.55.52.46.4.49.37.09-.12s-.65-.65-.65-.4Zm-102.68 26.18c0 .49.06.68.15.37.06-.28.06-.71 0-.92-.09-.18-.15.03-.15.55Zm-.06 1.75c0 .58.06.62.31.25.4-.58.4-.92 0-.92-.15 0-.31.31-.31.68Z" vector-effect="non-scaling-stroke"/></svg>