<svg xmlns="http://www.w3.org/2000/svg" viewBox="0 0 850 1250"><path fill="#fff" d="M462.43 15.89c-11.4 1.7-30.3 9.4-34.7 14.3-1.4 1.4-2.9 2.6-3.4 2.6-1.7 0-7.3 4.8-10.8 9.2-1.9 2.3-2.7 3.8-1.9 3.3 1.5-.9-6.6 11.1-10.5 15.5-3.4 3.9-5.7 10.8-6 18.3-.3 7 1 14.4 2.8 16.2.7.7.8.4.4-.8-.9-2.5.8-1.3 3.5 2.6l2.3 3.2-2.8-1.8c-3.5-2.3-3.5-.5.1 2.1 2.6 2 2.7 2.3 3.2 14.9.5 12.1.7 13 3.3 16.4 1.5 2 2.7 4.1 2.7 4.6 0 .6.7 1.3 1.5 1.7 1.1.4 1.5 2.1 1.5 5.8 0 7.3 2.2 14.9 7 24 2.2 4.2 4 8 4 8.4 0 .3-1.9.4-4.2.2-2.4-.3-5.3-.1-6.6.4-1.5.5-3.3.3-5.2-.7-6.6-3.4-10.5-1.7-21 9-4.1 4.3-12.7 11.9-19.1 17.1-6.4 5.1-15.5 13.4-20.2 18.4-5.2 5.6-9 8.9-9.7 8.5-2.4-1.5-9.9 2.6-14 7.5-4.6 5.5-13.2 10.2-18.6 10.2-3.2 0-3.4.2-6.4 8-3.6 9.5-3.6 9.9-.9 15.3l2.2 4.3-8.1 9.9c-4.4 5.4-11 13.3-14.6 17.6-7.5 8.9-15 19.7-19.2 27.7-2.5 4.8-2.9 6.5-2.9 14 .1 17.6 6.7 30 16.8 31.5 10.5 1.6 25-4 37.5-14.5 4-3.3 10.2-8 13.9-10.4 3.8-2.4 8.6-5.8 10.8-7.6l4-3.2.7 4.4c.4 2.3 1 15.3 1.4 28.8.5 18.3.3 27.1-.7 35-.7 5.8-1.4 19.5-1.4 30.5-.1 25.8-1.2 39.9-3.6 44.5-1.1 1.9-1.9 5.1-1.9 7.1s-.9 6.2-2 9.4-2 7-2 8.4-.9 5.8-2 9.6c-1.1 3.9-2.5 9.7-3 13-.6 3.3-2 9.6-3.2 14-1.1 4.4-2.2 11.7-2.3 16.1l-.2 8.2-8.5 12.8c-9.7 14.6-14.1 22.2-25.7 44.8l-8.3 15.9 4.7 4.6 4.6 4.7-1.5 3.6-1.5 3.6 4.2 3.4c2.3 1.9 4.9 3.7 5.8 4 1.4.5 1.3 1.9-.7 13-5.3 28.8-8.7 67.6-10.5 120.8-.7 17.9-1.4 37.4-1.6 43.4-.3 7.4.1 14.1 1.2 20.5 1.4 8.5 1.5 12.4.4 34.6-.9 19.1-.9 29.6 0 44.3l1.1 19.4-2.5 3c-2.5 3-3.2 6.6-1.6 8.4.5.5 1.7 9 2.7 18.8 1.5 16.1 1.6 20.7.5 45.5-2.7 58.2-3.5 71.4-5 78-.6 2.5-1.7 8.5-2.6 13.3-1.4 8-9.7 33.6-12.6 39.1-.7 1.2-3 4.6-5.2 7.5-3.7 4.9-4 5.9-4.8 14.4-1 10.2-.4 13.6 3.5 20.2 5.1 8.7 12.8 13.6 21.6 13.6 15.1 0 37.9-13.7 40.9-24.6.6-2.2 1.1-12.6 1.1-23.9 0-16.3.4-21.6 2-28.5 1.1-4.7 2.5-11 3.1-14s2.4-8.1 4-11.2c11.4-22 11.7-31.4 1.4-45.3-1.2-1.7-2.5-3.9-2.9-4.9-1.7-4.7 4.6-42.4 9.4-57.1 1.1-3.4 4.1-14.8 6.6-25.5 4.2-17.4 4.9-22.7 4.3-28.8-.1-.9.6-6.2 1.6-11.7 2.7-16.1 1.7-34.1-3.4-59.1l-4.1-20.2 2.5-13.3c7.4-39.3 13-55.4 36.5-103.9 7-14.6 14.6-30.4 16.8-35.3 3.5-7.6 4.4-8.7 6.6-8.7 4 0 7.6 2.1 7.6 4.4 0 1.2.5 8.2 1 15.6 5 69.3 5.7 76 10.4 100.5 1.3 7.1 2.7 15.4 3.1 18.4.6 5.4 2.9 13.2 10.5 36.6 5.3 16.1 6.1 22.9 6.7 58.6l.5 30.7-2.2 3c-1.7 2.3-2.3 4.4-2.2 7.9.1 2.6-.8 11.8-1.8 20.3-1.1 8.5-2.6 23.4-3.5 33-2.1 23.2-8.9 73.3-10.8 79.5-.8 2.8-2.5 11.5-3.6 19.5-2.4 16-7.2 35.2-10.1 41-1.2 2.4-5 6.1-10.2 10-10.7 8.1-19.5 16.5-21.8 21.1-2 3.8-2.9 15.5-1.6 19.7 1.7 5.3 15.2 7.8 36.6 6.7 22.1-1 39.8-5.4 47.4-11.7 5.6-4.6 7.5-9.4 9.7-24.5 2.1-15 5.9-32.3 6.9-32.3 1.1 0 2 14.4 1.3 19.6-.4 3.4-.2 4.8.8 5.5 2.1 1.3 6.9 1.1 7-.4.1-.6 0-11.1-.1-23.3l-.2-22.1 3-6.9c4.8-11.1 6.3-16.9 6.4-23.9 0-7.8-2.9-14.6-9.4-22l-4.1-4.7 1.2-9.6c.7-5.4 2.8-15.6 4.7-22.7 1.9-7.2 5.3-20.8 7.5-30.4 5.6-24.8 7.8-33.2 9.4-36.8 1.9-4 1.9-4.5-.4-7.5-1.9-2.3-1.9-2.8-.6-7.3 3.5-11.6 4.9-23 4.9-41 0-20.7-1.2-29.3-7.8-55-5.9-22.9-7-32.4-6.3-55.8.5-20.3 1.8-29.7 9.7-70.7 2.1-11.3 4.8-25.9 6-32.5 3.8-22.3 5-26.8 6.6-25.4 1.1.9 2.1.8 4.6-.4 1.8-.8 4.8-1.8 6.6-2.2 3-.6 3.2-.5 2.3 1.7-2.9 7.8-2 15.4 1.9 15.8 4.2.6 5.2-.2 8-6.1l2.8-6 2.3 3c1.3 1.7 3.1 3.1 4.1 3.1 1.3 0 1.8.8 1.8 2.8 0 3.4-3.1 5.2-8.6 5.2-5.1 0-10.4 2.5-10.4 4.9 0 1.7.9 2.1 5.2 2.7 4.8.7 5 .8 2.8 1.7-9.6 3.9-12.3 6.4-10.1 9.1.9 1.1 2.1 1.1 6.6.1l5.5-1.3-.6 3.8c-.5 3.1-.3 4 1.4 4.9 2.2 1.2 2.6.8 8.1-7.4 1.9-2.8 4.9-6.4 6.7-8 3-2.7 7.6-10.2 15.1-24.5 1.8-3.5 2.5-7.2 3.3-16.6.5-6.6 1.7-15.4 2.5-19.5 3.4-15.7 5.4-32.5 4.8-40.3-.5-6.4-.3-7.6.9-7.6.9 0 2.6-.9 3.9-1.9 2.2-1.8 2.4-2.6 2.5-12.8.1-5.9.6-12.6 1.2-14.8 2.4-8.5 3.4-14.5 2.9-16-.4-1-2-1.5-4.7-1.5h-4.1l.2-31.3c.3-30.6.2-31.4-2.5-44.7-1.5-7.4-3.1-16.2-3.6-19.5s-1.6-8.2-2.4-10.9c-2.2-6.8-2-21.4.4-36.1 1-6.6 2.6-21.7 3.5-33.5 1.5-20 3.3-37.1 7-64.7 1.1-8.7 1.3-13.4.5-20.5-1.8-16.4-4.4-25-10.1-32.8-1.9-2.5-4-5.8-4.9-7.4-1.1-2.1-4.1-4.3-10.3-7.5-4.8-2.6-11.7-7.1-15.2-10l-6.5-5.5.4-7c.5-8.4.3-7.6 1.9-7.1.7.3 2.2-1.3 3.5-3.8 1.9-3.6 2.7-4.3 4.7-4 1.7.4 2.8-.2 4-2.1 1-1.5 1.5-2.9 1.2-3.2s-1 .4-1.7 1.5c-.6 1.2-2 2.1-3.3 2-2.1 0-2.1-.1-.2-.8 4.1-1.7 5.4-4.6 7.4-16.5 1.2-6.5 2.1-13.5 2.1-15.5s.4-4.1.9-4.7c.5-.5 1.7-5.6 2.6-11.3 1.3-8.8 1.4-12 .4-20-.6-5.3-.8-12.6-.4-16.3.5-5.4.1-8.8-2-17.8-3.2-13.4-4.4-14.1-1.5-.9 2.4 11.2 2.5 14.7.1 6.4-.9-3.3-3.6-10.6-5.9-16.2-2.3-5.5-4.8-12.6-5.6-15.6-.8-3.1-2-6.6-2.6-7.9-.8-1.6-.2-1.3 2.1 1.2l3.2 3.5-2.4-3.9c-1.6-2.7-1.9-4.1-1.1-4.4.7-.2 1.2-1.2 1.2-2.2 0-.9.7-2.3 1.5-3 2.1-1.8.1-4-3.5-4-1.6 0-3.6-.3-4.5-.6-1.4-.6-1.4-.8-.1-2.3 2.1-2.4 2.7-7.9 1.2-12.1-1.6-4.7-9.5-14-11.9-14-2 0-3.6-3.2-1.9-3.8.7-.2 1.2-1.6 1.2-3.2 0-6.1-10.8-10.7-22.4-9.5-3.9.4-6.8.3-6.4-.1 1.3-1.3-2.5-3.2-8.7-4.3-7.3-1.3-25.2-1.9-31.7-1Zm-61.7 49.6c-1.2 2-1.4 1.4-.5-1.2.4-.9.9-1.4 1.1-1.1.3.2 0 1.3-.6 2.3Zm156.4 133.4c-1.8 7-3.1 9.9-4.4 9.9-.5 0 .5-4.2 2.3-9.4 3.4-10.3 4.7-10.6 2.1-.5Zm-118.6-1.6c2.8 3.6 6.6 7.1 8.3 7.8l3.1 1.3-6.2 2.8c-7.6 3.4-10.6 3-11.5-1.5-.3-1.7-.2-3.9.4-4.9.5-.9.7-4.1.3-6.9-.3-2.8-.4-5.1-.1-5.1.2 0 2.8 2.9 5.7 6.5Zm-26.2 6.1c-2.3 2-3.1 2.2-5.8 1.2l-3-1 2.7-2.9c2.6-2.7 2.8-2.8 5.7-1.2l3.1 1.6-2.7 2.3Zm111.7 228c2.6 15.6 2.7 17.4 2.4 48-.3 31.4-.3 32.1 2.4 45.8 3.7 18.7 6.1 28.4 9.6 38.9 1.5 4.8 2.6 9 2.3 9.1-.3.2-2.1.7-3.8 1.1-2.5.5-3.3.3-3.3-.8 0-2.2-3.9-13.4-7.7-22.5-2.8-6.5-3.3-8.5-2.4-9.6 1.6-1.9.8-3.4-8.9-16.6-11.2-15.3-22-31.6-24.2-36.8-1.9-4.2-1.9-5.1-.8-11.9 1-5.8 1-8.5.1-12.6-1-4.4-.9-6 .4-9.6.8-2.4 1.5-5.8 1.5-7.7 0-4.6 1.6-8.2 5-11.4 1.9-1.8 3-3.8 3-5.5 0-3.7 6.9-17.2 12.9-25.4 2.7-3.6 5.5-7.7 6.2-9.1 1.3-2.3 1.5-1.5 2 9 .4 6.3 1.9 18.8 3.3 27.6Zm18 168c2.9 8.9 5.5 12.4 9.1 12.4 2.9 0 3.7 3.1 3.9 14.5l.1 7.4-4.4 4.5c-2.5 2.5-4.6 4.4-4.8 4.2-.2-.1-.8-4.1-1.3-8.7-.6-4.6-2.1-14.5-3.5-21.9-4.5-25.2-4.3-28.5.9-12.4Zm7 89 .1 6.2-2.4-1.9c-1.3-1.1-3-1.9-3.8-1.9-1.7 0-1.1-2.3 1.9-8.4 1.8-3.5 2.1-3.8 3.1-2.1.5 1 1 4.7 1.1 8.1Zm-154.8-618.1c-.9 2.6-.7 3.2.5 1.2.6-1 .9-2.1.6-2.3-.2-.3-.7.2-1.1 1.1Z"/><path fill="#fff" d="M556.13 97.99c.4 1.3 1.1 2.7 1.6 3.3.5.5.4-.5-.2-2.3-1.2-3.6-2.4-4.4-1.4-1Zm1.1 116.3c-.9 2.6-.7 3.2.5 1.2.6-1 .9-2.1.6-2.3-.2-.3-.7.2-1.1 1.1Z"/></svg>