<svg xmlns="http://www.w3.org/2000/svg" viewBox="0 0 850 1250"><path fill="#fff" d="M307.41 127.49c.55-.43.97-.95 1.3-1.52-1.88 1.9-3.08 2.75-1.29 1.52Zm318.81 989.97c-7.54-14.53-27.11-25.22-26.81-54.03.28-28.77-8.44-95.16-8.72-97.28-.31-2.02-9.07-59.61-20.77-78.88-11.78-19.21-28.33-55.7-28.33-55.7s-12.64-55.79-13.86-82.5c-1.18-26.7-1.8-64.37-1.8-64.37l9.96-.58s-15.05-78.89-25.32-94.01c-10.18-15.1-13.22-61.13-12.64-81.22.61-20.21 2.14-46.28 2.14-46.28s74.36-41.53 78.56-51.85c4.19-10.43-1.53-70.35-1.53-74.5s-21.39-95.74-22.85-99.94c-1.51-4.11-10.21-27-12.98-32.64-2.71-5.66-14.13-19.27-31.88-18.41 0 0 11.45-2.3 18.33 1.55 6.96 3.84-8.43-6.54-14.41-7.12-6.02-.61-6.31-2.98-9.08-4.74 0 0 14.49 4.13 16.89 5.61 2.43 1.44-4.53-27.6-14.12-35.31 0 0 11.1 8 13.54 16.9 0 0 .3-9.47-8.17-19.85-8.41-10.38-11.99-13.03-15.3-19.84 0 0 12.62-5.63 21.37 11.83 8.7 17.48 6 12.75 11.41 16.91 5.42 4.17-4.81-5.35-6.3-12.45-1.53-7.13-11.75-23.46-19.59-25.83-7.81-2.32-11.73-9.47-18.06-23.92 0 0 3.02-2.14 8.43 8.5 5.4 10.69 15.06 16.94 19.85 19.61 4.84 2.62-10.82-11.57-18.65-27.02-7.86-15.36-14.72-9.76-19.29-16.33-4.52-6.49-25.88-68.16-74.34-46.25 0 0-34.62-13.33-54.19 8.02-19.53 21.38-13.82 35.9-20.17 36.5-6.32.56-15.94-.95-21.96 3.54-5.99 4.43-6.57 11.28-6.57 11.28s3.54-4.16 10.78-8.02c7.25-3.84 15.06-.29 19.28-2.65 0 0-5.74 12.19-9.35 13.9-3.6 1.79-10.21 3.9-10.49 15.46-.25 9.85 1.4 16.92-.52 20.41 2.28-2.28 5.58-6.28 5.94-10.34 0 0 1.48 15.43-1.85 18.09-3.27 2.68-12.04 7.09-12.63 10.08-.57 3.01 8.14 6.52 9.63 11.84 1.26 4.54 3.58-3.02 2.87-8.21 1.61 4.21 4.18 10.94 3.46 12.35-1.18 2.39-3.92 8.63-4.8 10.1-.9 1.52.6-2.91-3.33 11-3.92 13.98-2.41 17.5 2.74 9.19 5.1-8.3 2.05-15.98 6.89-22.25 4.84-6.23 10.55-13.35 7.23-1.46-3.31 11.83-8.42 26.64-13.86 30.53-5.4 3.88-2.39 8.28-1.48 10.39.91 2.02 9.02-10.71 12.03-17.21 2.99-6.52 0 15.69-5.12 19.23-5.11 3.63-16.84 1.25-16.56 8.33.29 7.13 5.71 9.22 7.79 9.22s-4.78-4.46-.88-8.89c3.95-4.48 13.25-3.91 16.55-10.39 3.34-6.53 3.05 3.26 1.19 6.26-1.79 2.91-1.79 5.9-6.28 9.15-4.53 3.23 5.42 4.19 11.42-.57 0 0-6 10.1-31.27 21.38-25.33 11.2-34.06 60.2-34.06 60.2s-13.22 55.14-23.19 64.31-12.34 10.45-19.88 82.76c0 0-1.76 6.81 9.38 10.41 0 0 50.56 29.96 59.33 31.42 0 0-27.74 91.59-42.47 121.27-14.76 29.7-15.38 51.58-15.38 51.58l31.95 4.52s12.3 102.58 9.63 140.86c-2.71 38.23-7.55 62.26-9.63 69.11-2.14 6.8-11.51 42.34-5.78 78.53 5.78 36.22 6.96 78.62 8.16 88.07 1.19 9.49 6.02 38.57 5.4 53.12-.56 14.55-5.4 22.57-9.61 29.09-4.25 6.5-4.25 28.42-4.25 28.42s-2.68 51.04 1.84 57.81c4.5 6.86 32.8 14.6 41.56 12.18 8.73-2.38 19.83-11.81 20.74-19.53.89-7.7-8.76-25.87-8.42-42.45.29-16.59-.59-42.72-.59-45.65s-4.25-16.04-3.62-32.63c.62-16.63 9.32-66.12 17.75-101.45 8.42-35.21 6.63-86.86 6.93-90.43.29-3.56.29-11.26 11.13-42.98 10.86-31.72 12.04-71.5 13.83-76.54 1.82-5 16.55-85.71 16.55-85.71l31.92 1.19s37.03 118.34 42.18 126.65c5.06 8.28 13.2 34.69 36.71 70 0 0 7.48 10.38 23.78 67.57 16.25 57.22 27.97 56.65 42.45 98.48 14.44 41.81 10.53 81.83 10.53 81.83s-3.61 35.64-18.7 52.5c-14.98 16.92-18.04 28.81-14.98 30.59 2.94 1.78 76.42 9.74 83.62-20.49 7.26-30.27 3.34-36.2 6.64-44.19 3.27-8.06 13.79-22.26 6.33-36.78v.02Zm-106-788.91 13.23 54.55-18.03 12.2 4.8-66.75ZM311.91 451.93l-35.54-24.89 42.45-112.69c-11.17 54.28 16.24 69.09 16.24 69.09l2.73 13.39c3.9 28.41-25.89 55.11-25.89 55.11Z"/></svg>