<svg xmlns="http://www.w3.org/2000/svg" viewBox="0 0 850 1250"><path fill="#fff" d="m434.69 27.94 1.67-.07c1.39 2.28-4.86 6.26-3.95 9.02 11.38 3.47 22.47 7.89 33.36 12.65 1.55 2.77-2.74.28-3.78 1.94-3.26 3.39-8.62 1.06-12.76 2.02 1.92 6.03 10.2 1.14 14.42 4.13 6.59 3.05 14.27.61 20.81 3.8 10.62 2.71 21.79.16 32.49 2.56 38.39 8.38 78.55 6.98 116.34 18.22 12.55 5.44 30.09 9.58 33.14 25.25l.24 5.59c-2.35 14.64-10.42 27.45-17.79 40.02-11.3 20.29-23.93 39.78-36.34 59.39-9.89 18.01-22.55 34.24-34.25 51.06-13.31 18.09-19.06 40.24-24.76 61.58-3.57 20.11-11.88 39.14-14.61 59.39-1.43 4.61-3.81 8.9-4.95 13.6-1.24 9.62-5.54 18.48-8.59 27.6-7.2 12-14.5 24.8-14.35 39.27-3.54 21.74 14.85 37.5 22.63 55.94 11.03 28.11 23.51 55.69 32.64 84.52 8.37 18.83 13.29 38.91 17.52 59 7.94 37.57 7.19 76.17 11.65 114.18-.45 28.59 4.53 56.97 12.02 84.49 2.75 17.66 12.14 33.21 17.16 50.19 4.04 11.92 7.37 24.23 7.76 36.89.7 34.27 6.39 68.12 9.82 102.17 2.23 25.23 6.57 50.56 16.3 74.08 2.35 9.56 7.5 17.99 12.55 26.33 2.84 5.79 10.05 6.8 14.02 11.57 5.38 4.7 6.77 13.22 3.66 19.44-12.76 3.47-28.24 1.11-38.23 11.4-2.12 8.58 2.83 16.62 4.09 24.94-.51 1.22-1.52 2.13-2.47 3.01l-1.1.05c-4.12-4.16-4.25-10.82-7.22-15.77-3.44-9.49-11.85-15.78-20.22-20.7-2.77-1.44-2.8-5.93.24-7.01-4.42-6.03-2.64-14.1-1.52-20.92-.28-8.02-1.05-16.11-3.65-23.74-3.32-11.81-3.38-24.42-7.98-35.91-2.13-5.21-3.09-10.76-4.41-16.18-3.21-11.88-9.61-22.57-13.03-34.38-5.89-16.99-10.95-34.27-17.68-50.96-6.8-18.03-12.61-36.54-15.13-55.7-3.08-16.68-2.43-34.1-8.08-50.25-8.49-19.67-18.15-39.23-21.5-60.56-6.63-27.16-15.83-54.01-30.02-78.2-7.36-16.22-14.85-32.41-21.25-49.04-4.45-17.75-8.76-35.54-13.84-53.11-.63-1.71-1.3-4.26-3.6-4.05-7.25-1.2-14.48-.78-21.76-1.4-4.55 3.57-7.12 8.81-8.56 14.29-5.8 15.25-9.96 31.14-16.86 45.96-11.4 19.44-21 39.98-34.3 58.25-10.59 18.23-20.3 37.2-26.79 57.31-5.24 18.24-13.5 35.46-22.72 52-4.24 7.24-8.25 14.82-9.47 23.23-5.17 26.42-10.26 53.3-22.4 77.59-12.04 25.15-23.93 50.34-35.68 75.64-10.48 20.29-19.2 41.57-25.1 63.68-2.1 6.22-6.58 12.94-2.56 19.53 3.21 6.92 9.2 15.12 4.2 22.67 2.59-.33 3.96 2.22 3.56 4.52-3.93 4.88-8.68 9.1-12.08 14.42-7.84 11.3-9.39 25.29-13.63 38.07-1.7 1-3.68-.26-5.08-1.25 1.43-9.42 3.95-18.73 4.22-28.27-.04-5.48-7.07-8.39-11.27-5.13-12.78 4.61-26.14 13.15-40.1 9.73-2.24-2.91-3.24-6.59-4.68-9.9l-.07-1.7c-.23-7.84 4.77-14.02 9.7-19.48 1.16-4.41 5.29-5.56 9.14-6.57 6.88-17.21 13.42-34.62 21.79-51.19 6.73-15.66 11.39-32.12 16.11-48.46 6.36-33.01 15.66-65.54 21.52-98.79.98-13.65 4.05-27.19 8.03-40.26 6.15-16.38 14.88-31.63 22.72-47.21 7.09-20.5 14.78-41.02 17.7-62.62 4.13-25.36 8.76-50.63 13.04-75.96 4.29-30.12 10.04-60.2 20.71-88.77 6.67-22.68 18.32-43.39 30.73-63.35 5.99-15.39 14.98-29.53 19.18-45.62 4.32-16.26 13.84-30.49 18.97-46.42 3.33-16.59-.01-34.55-6.81-49.57-.53.26-.36 2.23-1.05 1.38-3.49-2.51-3.37-7.33-6.32-10.23-2.33-2.47-3.99-5.44-5.69-8.35-1.54 3.51.27 8.82-.7 12.96-3.4 2.05-3.28-5.64-6.24-2.22-2.56-4.25-7.1-6.8-9.1-11.48-2.01-1.77-3.2-6.37-6.37-4.17-3.6-3.03-5.61-8.32-9.56-11.31-.64 1.57.73 4.84-.96 5.42-.27-3.94.07-8.73-3.71-11.15-1.07 2.34-1.14 5.22-2.84 7.26.39-3.19 1.38-6.25 1.87-9.41-3.44-4.73-6.55-9.84-7.82-15.62-.43-5.23 2.56-9.8 4.57-14.38 1.64-6.65 2.47-13.63 5.91-19.69 2.6-4.58 3.99-10.86.66-15.42-10.32-15.16-15.01-33.93-28.74-46.73-24.72-24.64-46.13-52.22-68.42-79-12.37-17.13-27.93-32.24-36.88-51.63-4.09-8.33-3.1-19.07 3.12-26.1 9.18-9.65 20.47-16.86 31.64-23.96 20.09-9.27 39.62-19.78 60.32-27.73 7.73-4.35 15.5-8.68 23.81-11.89 13.3-7.14 27.05-13.79 41.92-16.91 16.9-5.78 35.25-10.3 53.04-6.4 6.55-.97 12.64-4.22 18.66-6.98m-78.8 47.61c-10.25 1.69-17.44 9.9-26.2 14.7-15.09 7.58-26.7 20.61-42.24 27.47-11.59 8.63-24.87 14.37-37.05 22.02-4 4.3 2.9 8.97 5.81 11.64 18.22 13.74 34.82 29.39 51.23 45.19 10.09 10.42 22.69 17.73 34.25 26.31 1.23-4.24 2.53-8.51 3.15-12.88.04-13.72-9.1-25.34-10.32-38.89.79-8.24-.35-16.62 1.14-24.79 3.11-13.04 12.91-23.42 24.07-30.3 3.65-1.9 6.15-5.19 9.22-7.81 5.51-3.53 6.39-10.85 11.79-14.5 3.64-3.08 8.66-3.42 12.76-5.69-1.3-2.5-4.36 1.26-6.15-.06 1.38-3.02 3.76-5.33 6.11-7.59-9-.66-18.6-.78-27.24-4.27-3.27-1.46-6.9-1.19-10.34-.55m142.15 19.7c-1.85.65-5.24.48-5.39 3.01 3.91.32 6.94 5.48 10.78 2.8 2.78 10.29 13.92 15.48 15.9 26.13.98 8.08-2.63 15.43-6.1 22.4 2.8 5.3 5.81 10.51 7.97 16.13 3.34 5.04 7.63 9.8 8.29 16.12-.7 10.97 11.3 18.21 9.91 29.34 25.71-21.59 42.67-51.25 66.87-74.3 3.49-3.9 8.02-6.91 10.55-11.61 1.02-1.96-.53-3.48-2.2-3.65-31.86-5.13-62.58-15.12-93.84-23-7.44-1.88-14.92-5.44-22.75-3.35m10.25 17.62c1.13 3 6.09 5.03 3.73 8.37 3.22 4.18-.54 9.55.96 14.2.77 3.09-1.26 5.96-3.74 7.61-.21 2.08 1.81 4.05 3.23 5.4 7.76-10.67 8.36-28.21-4.18-35.58Z"/></svg>