<svg xmlns="http://www.w3.org/2000/svg" viewBox="0 0 850 1250"><path fill="#fff" d="M472.98 38.67c-13.15.96-26.67 7.37-39.17 14.9-15.4 4.08-26.21 21.1-32.37 33.99-5.93 21.36-10.44 43.16-12.62 65.39-8.56 18.78 2.69 49.48-20.08 58.28-26.46 3.29-45.91 24.89-57.3 47.58-7.59 25.25-21.44 47.64-34.64 70.25-8.14 19.94-32.81 48.39-10.36 66.7 26.26 16.49 58.12 9.34 86.76 5.18 19.26 6.03 13.11 40.3 13.27 57.62.75 24.57-7.78 47.72-11.98 71.55-5.73 30.16 7.91 58.68 9.71 88.38 5.03 13.95-6.07 56.76 17.49 46.62 13.87 33.68 36.67 62.85 51.48 96.15 8.34 20.57 26.8 43.12 16.18 66.04-13.64 21.93-14.66 48.16-13.27 73.17-.62 26.72 8.46 52.33 10.04 78.64.81 38.12-21.73 71.17-25.9 108.47-1.34 21.76-26.4 39.99-12.31 61.54.39 2.59 6.27 16.37 9.72 29.42 2.95 11.19 7.33 18.65 11.32 25.9 7.35 14.5 20.87 3.11 23.96-3.83 8.76-19.79 14.33-29.42 13.27-5.18-1.06 24.24 47.37-4.77 52.13-24.35.58-2.38-.94-3.52 1.62-11.29 2.44-19.89-13.36-38.12-11.98-60.81-1.27-32.43-9.15-64.23-10.69-96.55-2.57-23.93 7.7-45.17 15.87-66.99 19.16-49.34 5.91-103.12 15.54-154.1 10.93-42.36 20.98-85.33 38.52-125.61-.89-18.39 20.38-20.42 25.58-30.76-17.12-45.49-12.18-96.36-31.73-141.15-11.79-19.53-23.53-41.51-34.95-59.57 10.41 8.04 27.29 13.76 37.22-2.59 2.46-11.07 14.4-21 9.72-32.7-8.61-21.13-4.68-43.27-8.42-65.72-10.33-20.34 26.7-1.53 19.42-11.33 21.04-14.01-21.31 8.01-11.98-12.3-4.57-23.82-10.07-47.05-19.75-69.29-7.05-48.59-12.56-98.26-29.46-144.71-7.04-10.12-4.91-16.98-13.6-28.49-10.4-14.73-23.1-19.4-36.26-18.45ZM343.16 329.72c5.59.8 1.72 20.91-.96 29.46-.23 6.92-4.89 5.55-9.4 4.21-23.94.47-6.9-16.97 1.29-26.87 4.43-5.2 7.2-7.07 9.06-6.8Z"/></svg>